<svg xmlns="http://www.w3.org/2000/svg" viewBox="0 0 73 73"><defs><style>.cls-1{fill:#f29e8c;}.cls-2{fill:#1b3249;}.cls-3{fill:#edc16b;}.cls-4{fill:#fff;}</style></defs><title>Asset 331</title><g id="Layer_2" data-name="Layer 2"><g id="_1" data-name="1"><path class="cls-1" d="M12.3,21.13C4.12,33,.5,51.45.5,57.27c0,12.3,16.12,15.23,36,15.23h0c19.88,0,36-2.93,36-15.23,0-5.82-4.47-23.74-12.19-32.07Z"/><path class="cls-2" d="M36.5,73C20.83,73,0,71.37,0,57.27,0,51.81,3.54,33,11.89,20.84a.52.52,0,0,1,.45-.21l48,4.07a.52.52,0,0,1,.33.16C68.68,33.51,73,51.73,73,57.27,73,71.37,52.17,73,36.5,73ZM12.55,21.65C4.44,33.6,1,51.94,1,57.27,1,67.32,12.28,72,36.5,72S72,67.32,72,57.27c0-5.4-4.18-23.07-11.92-31.59Z"/><path class="cls-3" d="M59.47,15.88c-1.39,2.73-8.24,8.21-24,6.86C21.16,21.52,16.25,13.3,16.25,13.3c.53-1.4.27-2.16,2-4.09,1-1.12,2.88-1.54,4.41-2.68,1.26-1,2-3,3.69-3.74a25,25,0,0,1,5.05-1.25A25.15,25.15,0,0,1,36.5.5c1.74,0,3.22,1.73,4.73,2a24.13,24.13,0,0,1,4.58,1.18,21.82,21.82,0,0,1,4.25,2.08c1.47,1,2.87,1.13,4.07,2.06C55.71,9,55.87,10.45,57,11.48,58.83,13.08,57.84,14.29,59.47,15.88Z"/><path class="cls-2" d="M40.23,23.45c-1.5,0-3.09-.06-4.79-.21C21,22,16,13.9,15.82,13.56a.5.5,0,0,1,0-.43,8.89,8.89,0,0,0,.3-1,6.71,6.71,0,0,1,1.75-3.26,7.58,7.58,0,0,1,2.44-1.59,13,13,0,0,0,2.05-1.16,7.7,7.7,0,0,0,1.31-1.47,6.71,6.71,0,0,1,2.48-2.33,18.08,18.08,0,0,1,4.07-1.07l1.09-.21c.49-.1,1-.25,1.54-.39A13.46,13.46,0,0,1,36.5,0a5.93,5.93,0,0,1,3,1.14A5.77,5.77,0,0,0,41.32,2,23.65,23.65,0,0,1,46,3.21a22,22,0,0,1,4.34,2.12,11.08,11.08,0,0,0,1.94.94,9.21,9.21,0,0,1,2.17,1.14,7.28,7.28,0,0,1,1.85,2.26,6,6,0,0,0,1.07,1.44,4.36,4.36,0,0,1,1.45,2.51,3.46,3.46,0,0,0,1,1.9.5.5,0,0,1,.1.59C58.52,18.84,52.69,23.45,40.23,23.45ZM16.8,13.24c.85,1.22,6.06,7.92,18.73,9C50.68,23.54,57.3,18.4,58.85,16a4.48,4.48,0,0,1-1-2.08,3.42,3.42,0,0,0-1.15-2,6.76,6.76,0,0,1-1.27-1.68,6.11,6.11,0,0,0-1.61-2,7.68,7.68,0,0,0-1.93-1,11.91,11.91,0,0,1-2.1-1,21.24,21.24,0,0,0-4.16-2A22.93,22.93,0,0,0,41.15,3,6.38,6.38,0,0,1,39,2,5.18,5.18,0,0,0,36.5,1a13.3,13.3,0,0,0-3.43.62c-.55.15-1.09.3-1.61.41l-1.1.21a17.47,17.47,0,0,0-3.84,1,5.92,5.92,0,0,0-2.09,2,8.09,8.09,0,0,1-1.51,1.67,13.71,13.71,0,0,1-2.21,1.26,6.79,6.79,0,0,0-2.12,1.35A5.85,5.85,0,0,0,17,12.39C17,12.66,16.9,12.93,16.8,13.24Z"/><path class="cls-1" d="M60.31,25.2c2.9-2,4.17-6.81,2.54-8.62-2.53-2.81-6.42,2.36-25.26,1.19s-22.62-7-26-4.41c-1.53,1.13-.79,4.81.75,7.77,1.08,2.07,12.17,5.7,24.21,6.48C48.09,28.37,58.62,26.35,60.31,25.2Z"/><path class="cls-2" d="M41.58,28.28c-1.67,0-3.38-.05-5.1-.17-11.76-.76-23.37-4.35-24.62-6.75-1.66-3.17-2.4-7.07-.61-8.4s3.53-.71,6.72.4a66,66,0,0,0,19.65,3.92A63.6,63.6,0,0,0,57.44,15.8c2.88-.65,4.47-1,5.78.44a4.35,4.35,0,0,1,.8,3.47,8.78,8.78,0,0,1-3.43,5.9h0C59,26.7,50.94,28.28,41.58,28.28ZM13.47,13.22a2.56,2.56,0,0,0-1.63.54c-1.12.83-.71,4,.9,7.14.89,1.69,11.3,5.4,23.8,6.22,11.39.74,21.91-1.26,23.49-2.33h0a7.68,7.68,0,0,0,3-5.2,3.45,3.45,0,0,0-.55-2.68c-.87-1-1.91-.79-4.81-.13a64.36,64.36,0,0,1-20.1,1.49,67,67,0,0,1-19.92-4A14.45,14.45,0,0,0,13.47,13.22Zm46.84,12h0Z"/><path class="cls-4" d="M47.38,22a.5.5,0,0,1,0-1,62.17,62.17,0,0,0,11.53-2,.5.5,0,0,1,.61.35.49.49,0,0,1-.35.62,63.09,63.09,0,0,1-11.72,2Z"/><path class="cls-4" d="M41.89,22.25a77.51,77.51,0,0,1-12.95-1.12.51.51,0,0,1-.41-.58.5.5,0,0,1,.58-.41A74.78,74.78,0,0,0,44,21.22a.5.5,0,0,1,0,1C43.32,22.24,42.6,22.25,41.89,22.25Z"/><path class="cls-4" d="M25.41,20.43h-.1a67.28,67.28,0,0,1-10.54-3.15.51.51,0,0,1-.26-.66.5.5,0,0,1,.65-.26,65.84,65.84,0,0,0,10.36,3.09.5.5,0,0,1-.11,1Z"/><path class="cls-4" d="M41.37,25.63q-3,0-6.06-.24a.52.52,0,0,1-.46-.54.52.52,0,0,1,.54-.46,71.83,71.83,0,0,0,19.84-1.11.5.5,0,0,1,.58.4.48.48,0,0,1-.39.58A71.58,71.58,0,0,1,41.37,25.63Z"/><path class="cls-4" d="M31.71,25h-.06a59.28,59.28,0,0,1-12.21-2.78.51.51,0,0,1-.28-.65.5.5,0,0,1,.64-.29,58.37,58.37,0,0,0,12,2.73.5.5,0,0,1-.07,1Z"/><path class="cls-3" d="M42.89,38.88A20.92,20.92,0,0,0,40,41.66c.09-3.91-2.41-8.06-2.41-8.06s-3.91,3-5.27,6.67c-2-4.79-10.27-5.19-10.27-5.19s.41,8.25,5.2,10.27c-3.7,1.35-6.67,5.26-6.67,5.26s4.15,2.5,8.06,2.41a21.59,21.59,0,0,0-2.78,2.87S30,58.4,34,58.3a21,21,0,0,0-2.79,2.88s11.53,7,14.27-2.74c9.7-2.74,2.74-14.27,2.74-14.27A21,21,0,0,0,45.3,47C45.4,43,42.89,38.88,42.89,38.88Z"/><path class="cls-2" d="M50.35,63.85a.52.52,0,0,1-.35-.14L32.63,46.34a.5.5,0,1,1,.71-.71L50.7,63a.5.5,0,0,1-.35.85Z"/><path class="cls-2" d="M27.21,45.82a.45.45,0,0,1-.2,0c-5-2.15-5.42-10.33-5.44-10.68a.54.54,0,0,1,.15-.38.49.49,0,0,1,.38-.14c.35,0,8.59.48,10.7,5.49a.5.5,0,0,1-.26.65.51.51,0,0,1-.66-.26c-1.57-3.73-7.4-4.64-9.26-4.84.2,1.86,1.1,7.65,4.79,9.25a.5.5,0,0,1-.2,1Z"/><path class="cls-2" d="M33,46.49a.5.5,0,0,1-.4-.21c-4.34-6.08,4.63-13,4.73-13.08a.49.49,0,0,1,.39-.09.54.54,0,0,1,.34.23c.1.18,2.57,4.32,2.48,8.33a.48.48,0,0,1-.51.49.52.52,0,0,1-.49-.51,16.36,16.36,0,0,0-2.06-7.28c-1.68,1.43-7.32,6.77-4.07,11.33a.49.49,0,0,1-.12.69A.43.43,0,0,1,33,46.49Z"/><path class="cls-2" d="M28.45,53.53c-3.94,0-7.94-2.39-8.11-2.49a.5.5,0,0,1-.23-.34.49.49,0,0,1,.09-.39c.07-.09,7-9.07,13.08-4.73a.5.5,0,0,1-.59.81c-4.55-3.25-9.89,2.39-11.32,4.07a16.49,16.49,0,0,0,7.27,2.06.5.5,0,1,1,0,1Z"/><path class="cls-2" d="M38.27,51.77a.52.52,0,0,1-.41-.21c-4.33-6.08,4.64-13,4.73-13.07a.51.51,0,0,1,.4-.1.48.48,0,0,1,.33.24c.11.17,2.58,4.32,2.49,8.34a.51.51,0,0,1-.52.48.49.49,0,0,1-.48-.51,16.55,16.55,0,0,0-2.06-7.29c-1.68,1.43-7.32,6.77-4.08,11.33a.5.5,0,0,1-.11.69A.46.46,0,0,1,38.27,51.77Z"/><path class="cls-2" d="M33.74,58.81a18.16,18.16,0,0,1-8.12-2.49.49.49,0,0,1-.23-.33.56.56,0,0,1,.09-.4c.07-.09,7-9.06,13.07-4.73a.5.5,0,0,1,.12.7.51.51,0,0,1-.7.11c-4.55-3.24-9.89,2.4-11.32,4.08a16.37,16.37,0,0,0,7.29,2.06.5.5,0,1,1,0,1Z"/><path class="cls-2" d="M45.44,58.94a.49.49,0,0,1-.48-.36.51.51,0,0,1,.35-.62,6.07,6.07,0,0,0,4.36-3.48c1.34-3.39-.83-8-1.63-9.54-1.69,1.43-7.33,6.78-4.07,11.34a.51.51,0,0,1-.11.7.5.5,0,0,1-.7-.12c-4.36-6.08,4.63-13,4.72-13.08a.52.52,0,0,1,.4-.1.5.5,0,0,1,.33.24c.16.25,3.79,6.37,2,10.92a7,7,0,0,1-5,4.08A.34.34,0,0,1,45.44,58.94Z"/><path class="cls-2" d="M39,64.1a18.15,18.15,0,0,1-8.11-2.49.49.49,0,0,1-.23-.33.56.56,0,0,1,.09-.4c.07-.09,7-9.08,13.09-4.72a.5.5,0,1,1-.58.81c-4.57-3.26-9.91,2.39-11.34,4.07,1.52.8,6.14,3,9.54,1.63A6.07,6.07,0,0,0,45,58.31a.51.51,0,0,1,.62-.35.5.5,0,0,1,.34.62,7,7,0,0,1-4.08,5A7.56,7.56,0,0,1,39,64.1Z"/></g></g></svg>