<svg xmlns="http://www.w3.org/2000/svg" viewBox="0 0 73 69"><defs><style>.cls-1{fill:#edc16b;}.cls-2{fill:#1b3249;}.cls-3{fill:#f29e8c;}.cls-4{fill:#fff;}</style></defs><title>Asset 21</title><g id="Layer_2" data-name="Layer 2"><g id="_1" data-name="1"><path class="cls-1" d="M72.5,26c0,13.13-13.78,13.1-30.78,13.1s-30.78,0-30.78-13.1c0-20.52,33.4-18.58,30.78-18.58S72.5,5.09,72.5,26Z"/><path class="cls-2" d="M42,39.6h-.47c-8.29,0-16.12,0-21.71-1.66C13.4,36.06,10.44,32.27,10.44,26c0-7.57,4.33-13,12.88-16.26a52.82,52.82,0,0,1,17.2-2.87h1.13c.35,0,.91,0,1.8,0A50.28,50.28,0,0,1,60.67,9.79C68.85,13,73,18.46,73,26c0,6.27-3,10.06-9.34,11.94C58.07,39.59,50.25,39.6,42,39.6Zm-.35-1H42c8.22,0,16,0,21.43-1.62C69.26,35.25,72,31.76,72,26a14.52,14.52,0,0,0-5.19-11.51C59.16,8,45,7.67,42.09,7.85a.43.43,0,0,1-.24.06h-.27l-.13,0c-2.39,0-17.13,0-25,7a14.27,14.27,0,0,0-5,11.16c0,5.76,2.73,9.25,8.62,11,5.45,1.61,13.2,1.62,21.42,1.62Z"/><path class="cls-3" d="M57,18.86C50,20.5,49.29,24.79,43.77,25c-7.55.31-8.74-8-20.11-3.08a13.79,13.79,0,0,1-12.19-.79,1.94,1.94,0,0,1-.78-2.6c6.2-12,24-12,30.77-12s24.34.25,30.66,11.89a1.5,1.5,0,0,1-2,2.06C67,19.13,62.1,17.68,57,18.86Z"/><path class="cls-2" d="M43.36,25.52c-2.87,0-4.85-1.21-6.78-2.38-3.1-1.88-6-3.66-12.72-.75a14.27,14.27,0,0,1-12.62-.81,2.45,2.45,0,0,1-1-3.26C16.56,6.08,34.57,6.06,41.39,6.06h0c6.09,0,24.54,0,31.13,12.16a2,2,0,0,1-.29,2.27A2,2,0,0,1,70,21c-3.14-1.37-7.92-2.77-12.86-1.62L57,18.86l.11.49A16.94,16.94,0,0,0,50.2,22.8c-1.77,1.33-3.45,2.59-6.41,2.71ZM30.11,19.85c3,0,5,1.23,7,2.44s3.85,2.35,6.65,2.22S47.89,23.29,49.6,22a17.75,17.75,0,0,1,7.29-3.62c5.2-1.21,10.21.24,13.48,1.67a1,1,0,0,0,1.17-.24,1,1,0,0,0,.14-1.12C65.37,7.06,47.38,7.06,41.46,7.06h0c-6.7,0-24.26,0-30.3,11.71a1.45,1.45,0,0,0,.58,1.93,13.34,13.34,0,0,0,11.75.78A16.68,16.68,0,0,1,30.11,19.85Z"/><path class="cls-4" d="M18.52,18.17H18a.5.5,0,0,1,0-1h0a17.79,17.79,0,0,0,5.47-.7c6.54-1.92,9.8-1,13.1.38a.5.5,0,1,1-.37.92C33,16.45,30,15.58,23.8,17.42A18.61,18.61,0,0,1,18.52,18.17Z"/><path class="cls-4" d="M43.37,19.52a14,14,0,0,1-3.25-.38.5.5,0,0,1,.23-1,12.43,12.43,0,0,0,3.41.35,12.23,12.23,0,0,0,5.92-1.71,21.9,21.9,0,0,1,7.24-2.43,27.51,27.51,0,0,1,6.76-.17.51.51,0,0,1,.46.55.53.53,0,0,1-.55.45,26,26,0,0,0-6.51.16,20.77,20.77,0,0,0-6.95,2.34,13.32,13.32,0,0,1-6.35,1.81Z"/><path class="cls-4" d="M49.6,6.71c0,3.42-3.66,2.67-8.18,2.67s-8.18.75-8.18-2.67S36.9.5,41.42.5,49.6,3.28,49.6,6.71Z"/><path class="cls-2" d="M37.58,10c-1.77,0-3.17-.17-4-1a2.92,2.92,0,0,1-.81-2.23C32.74,3,36.63,0,41.42,0S50.1,3,50.1,6.71a2.92,2.92,0,0,1-.81,2.23C48.16,10,46.1,10,43.5,9.92c-1.33,0-2.83,0-4.16,0ZM41.42,1c-4.23,0-7.68,2.56-7.68,5.71a2,2,0,0,0,.5,1.51c.84.81,2.8.76,5.07.7,1.35,0,2.87,0,4.22,0,2.27.06,4.24.11,5.07-.7a2,2,0,0,0,.5-1.51C49.1,3.56,45.66,1,41.42,1Z"/><path class="cls-1" d="M65.86,54.62c0,13.91-14.61,13.88-32.62,13.88S.61,68.53.61,54.62c0-21.75,35.4-19.7,32.63-19.7S65.86,32.46,65.86,54.62Z"/><path class="cls-2" d="M33.47,69H33c-8.8,0-17.1,0-23-1.75-6.74-2-9.88-6-9.88-12.63,0-8,4.59-13.8,13.64-17.2A56,56,0,0,1,32,34.37c.53,0,.92,0,1.2,0a17.83,17.83,0,0,1,1.91,0c3.1,0,11.07.3,18.24,3.13,8.66,3.4,13,9.17,13,17.15,0,6.63-3.14,10.64-9.87,12.63C50.56,69,42.26,69,33.47,69Zm-.35-1h.35c8.72,0,17,0,22.73-1.71,6.25-1.85,9.16-5.55,9.16-11.67a15.41,15.41,0,0,0-5.53-12.24c-8.43-7.19-23.65-7.09-26.26-7a.53.53,0,0,1-.19,0h-.29a.35.35,0,0,1-.14,0c-2.5,0-18.12,0-26.54,7.37a15.15,15.15,0,0,0-5.3,11.86c0,6.12,2.91,9.82,9.16,11.67C16.06,68,24.29,68,33,68Z"/><path class="cls-3" d="M16.79,47.05c7.72,3,8.22,10.94,15.82,9.6,7.88-1.39,8-11.33,18.43-6.74,5,2.19,10,1,12.91-.15a2.77,2.77,0,0,0,1.39-4C58.33,34,40.2,34,33.25,34c-7.13,0-26,.26-32.59,12.79a1.37,1.37,0,0,0,1.86,1.84C5.92,46.87,11.41,44.94,16.79,47.05Z"/><path class="cls-2" d="M31,57.3c-3.5,0-5.44-2.16-7.49-4.43a18,18,0,0,0-6.9-5.35h0c-5.11-2-10.36-.25-13.85,1.57a1.84,1.84,0,0,1-2.2-.34,1.81,1.81,0,0,1-.33-2.17c6.88-13.06,26.56-13.06,33-13.06h0c7,0,25.35,0,32.49,12a3.27,3.27,0,0,1-1.64,4.72c-3.3,1.29-8.28,2.36-13.29.15-6-2.64-8.32-.31-11,2.39C38,54.54,36,56.57,32.69,57.14A9.53,9.53,0,0,1,31,57.3ZM17,46.59c3.43,1.34,5.47,3.61,7.28,5.61,2.35,2.61,4.21,4.67,8.27,4,3-.53,4.81-2.35,6.59-4.11,2.72-2.71,5.54-5.51,12.13-2.6,4.7,2.07,9.4,1.06,12.53-.16A2.28,2.28,0,0,0,64.91,46C58.07,34.54,40.12,34.52,33.32,34.52h0c-6.36,0-25.59,0-32.18,12.53a.82.82,0,0,0,.15,1,.83.83,0,0,0,1,.15C6,46.28,11.5,44.44,17,46.59Z"/><path class="cls-4" d="M30.93,49.38c-3.13,0-4.85-1.23-6.8-2.64-.26-.18-.51-.37-.78-.55a.5.5,0,0,1-.12-.7.49.49,0,0,1,.69-.12l.79.56c2.18,1.56,3.89,2.8,7.69,2.36a13.12,13.12,0,0,0,6.09-2.45c2.6-1.68,5.06-3.27,11.06-1.55a21,21,0,0,0,8.49.5.51.51,0,0,1,.56.43.5.5,0,0,1-.43.56,22,22,0,0,1-8.9-.53c-5.56-1.59-7.73-.19-10.24,1.43a14.17,14.17,0,0,1-6.52,2.61A14.92,14.92,0,0,1,30.93,49.38Z"/><path class="cls-4" d="M20.53,44.47a.51.51,0,0,1-.2,0,15.62,15.62,0,0,0-2.55-.88A20.55,20.55,0,0,0,9,43.43a.49.49,0,0,1-.58-.4.5.5,0,0,1,.4-.58,21.54,21.54,0,0,1,9.25.13,16.44,16.44,0,0,1,2.72.94.5.5,0,0,1,.25.66A.51.51,0,0,1,20.53,44.47Z"/><path class="cls-4" d="M41.59,34.17c0,3.63-3.88,2.83-8.67,2.83s-8.67.8-8.67-2.83,3.88-6.58,8.67-6.58S41.59,30.54,41.59,34.17Z"/><path class="cls-2" d="M28.85,37.58c-1.86,0-3.34-.18-4.25-1.06a3.12,3.12,0,0,1-.85-2.35c0-3.9,4.12-7.08,9.17-7.08s9.17,3.18,9.17,7.08a3.12,3.12,0,0,1-.84,2.35c-1.2,1.16-3.37,1.09-6.12,1-1.41,0-3,0-4.41,0C30.06,37.56,29.44,37.58,28.85,37.58Zm4.07-1.08c.77,0,1.52,0,2.24,0,2.41.07,4.5.13,5.39-.74a2.15,2.15,0,0,0,.54-1.63c0-3.35-3.66-6.08-8.17-6.08s-8.17,2.73-8.17,6.08a2.16,2.16,0,0,0,.55,1.63c.89.87,3,.81,5.39.74C31.4,36.52,32.15,36.5,32.92,36.5Z"/></g></g></svg>