<svg xmlns="http://www.w3.org/2000/svg" viewBox="0 0 73 73"><defs><style>.cls-1{fill:#edc16b;}.cls-2{fill:#1b3249;}.cls-3{fill:#fff;}.cls-4{fill:#f29e8c;}</style></defs><title>Asset 101</title><g id="Layer_2" data-name="Layer 2"><g id="_1" data-name="1"><path class="cls-1" d="M69.5,36.5H3.5l7.77,31.67a5.74,5.74,0,0,0,5.6,4.33H56.13a5.74,5.74,0,0,0,5.6-4.33Z"/><path class="cls-2" d="M56.13,73H16.87a6.22,6.22,0,0,1-6.09-4.71L3,36.62a.51.51,0,0,1,.1-.43A.49.49,0,0,1,3.5,36h66a.49.49,0,0,1,.39.19.51.51,0,0,1,.1.43L62.22,68.29A6.22,6.22,0,0,1,56.13,73Zm-52-36,7.61,31.05a5.23,5.23,0,0,0,5.12,4H56.13a5.23,5.23,0,0,0,5.12-4l7.61-31Z"/><path class="cls-3" d="M51.4,69.56l-.15,0a1,1,0,0,1-.84-1.13l3.49-24A1,1,0,0,1,55,43.56a1,1,0,0,1,.85,1.13l-3.49,24A1,1,0,0,1,51.4,69.56Z"/><path class="cls-3" d="M21.6,69.56a1,1,0,0,1-1-.86l-3.48-24a1,1,0,1,1,2-.28l3.49,24a1,1,0,0,1-.84,1.13Z"/><path class="cls-3" d="M41.62,69.56h0a1,1,0,0,1-1-1l1.26-25.22a1,1,0,1,1,2,.1L42.62,68.61A1,1,0,0,1,41.62,69.56Z"/><path class="cls-3" d="M31.38,69.56a1,1,0,0,1-1-1L29.12,43.39a1,1,0,0,1,2-.1l1.26,25.22a1,1,0,0,1-1,1Z"/><path class="cls-4" d="M72.5,33.74c0,14.3-16.12,6.79-36,6.79S.5,48,.5,33.74,16.62.5,36.5.5,72.5,19.44,72.5,33.74Z"/><path class="cls-2" d="M62.42,43a94.85,94.85,0,0,1-10.22-.83A139,139,0,0,0,36.5,41a139,139,0,0,0-15.7,1.14c-8.32.94-14.88,1.69-18.31-1.37C.82,39.3,0,37,0,33.74,0,18.55,16.84,0,36.5,0S73,18.55,73,33.74c0,3.25-.82,5.56-2.49,7.06C68.66,42.46,65.88,43,62.42,43ZM36.5,40a138.43,138.43,0,0,1,15.82,1.15c8.06.92,14.43,1.64,17.52-1.12,1.45-1.3,2.16-3.37,2.16-6.32C72,19,55.62,1,36.5,1S1,19,1,33.74c0,2.95.71,5,2.16,6.32,3.09,2.76,9.46,2,17.52,1.12A138.43,138.43,0,0,1,36.5,40Z"/><path class="cls-3" d="M48.78,24.09c0,2.7-2.59,4.61-5.29,4.61A4.35,4.35,0,0,1,39,24.09c0-2.7,1.82-5.35,4.52-5.35A5.66,5.66,0,0,1,48.78,24.09Z"/><path class="cls-2" d="M43.49,29.2a4.85,4.85,0,0,1-5-5.11c0-2.82,1.92-5.85,5-5.85a6.13,6.13,0,0,1,5.79,5.85C49.28,27.24,46.28,29.2,43.49,29.2Zm0-10c-2.48,0-4,2.51-4,4.85a3.85,3.85,0,0,0,4,4.11c2.3,0,4.79-1.57,4.79-4.11A5.14,5.14,0,0,0,43.49,19.24Z"/><path class="cls-3" d="M48.78,24.09c0,2.7-2.59,4.61-5.29,4.61A4.35,4.35,0,0,1,39,24.09c0-2.7,1.82-5.35,4.52-5.35A5.66,5.66,0,0,1,48.78,24.09Z"/><path class="cls-2" d="M43.49,29.2a4.85,4.85,0,0,1-5-5.11c0-2.82,1.92-5.85,5-5.85a6.13,6.13,0,0,1,5.79,5.85C49.28,27.24,46.28,29.2,43.49,29.2Zm0-10c-2.48,0-4,2.51-4,4.85a3.85,3.85,0,0,0,4,4.11c2.3,0,4.79-1.57,4.79-4.11A5.14,5.14,0,0,0,43.49,19.24Z"/><path class="cls-3" d="M33.34,11.83c.94,2.14-.45,4.56-2.59,5.5a3.76,3.76,0,0,1-5.19-2.07c-.95-2.14-.43-4.88,1.71-5.83A4.92,4.92,0,0,1,33.34,11.83Z"/><path class="cls-2" d="M29,18.21a4.3,4.3,0,0,1-3.94-2.75c-1-2.26-.53-5.38,2-6.48a5.37,5.37,0,0,1,6.72,2.65h0c1.11,2.53-.61,5.17-2.85,6.16A4.78,4.78,0,0,1,29,18.21Zm-.14-8.6a3.61,3.61,0,0,0-1.43.28c-1.93.85-2.26,3.35-1.46,5.17a3.27,3.27,0,0,0,4.54,1.81c1.8-.79,3.2-2.87,2.33-4.84A4.45,4.45,0,0,0,28.9,9.61Z"/><path class="cls-3" d="M33.34,11.83c.94,2.14-.45,4.56-2.59,5.5a3.76,3.76,0,0,1-5.19-2.07c-.95-2.14-.43-4.88,1.71-5.83A4.92,4.92,0,0,1,33.34,11.83Z"/><path class="cls-2" d="M29,18.21a4.3,4.3,0,0,1-3.94-2.75c-1-2.26-.53-5.38,2-6.48a5.37,5.37,0,0,1,6.72,2.65h0c1.11,2.53-.61,5.17-2.85,6.16A4.78,4.78,0,0,1,29,18.21Zm-.14-8.6a3.61,3.61,0,0,0-1.43.28c-1.93.85-2.26,3.35-1.46,5.17a3.27,3.27,0,0,0,4.54,1.81c1.8-.79,3.2-2.87,2.33-4.84A4.45,4.45,0,0,0,28.9,9.61Z"/><path class="cls-3" d="M9.52,23.22a3.34,3.34,0,0,1,4.65.33,2.89,2.89,0,0,1,0,4.28c-1.27,1.27-3.37,1.66-4.64.39A3.76,3.76,0,0,1,9.52,23.22Z"/><path class="cls-2" d="M11.41,29.5a3.15,3.15,0,0,1-2.27-.92,4,4,0,0,1-1.09-2.86,4.09,4.09,0,0,1,1.12-2.85h0a3.32,3.32,0,0,1,2.72-.93,4.36,4.36,0,0,1,2.63,1.25,3.39,3.39,0,0,1,0,5A4.5,4.5,0,0,1,11.41,29.5Zm.12-6.58a2.3,2.3,0,0,0-1.66.66h0a3.26,3.26,0,0,0,0,4.29c1.1,1.09,2.9.65,3.93-.39a2.39,2.39,0,0,0,0-3.58,3.32,3.32,0,0,0-2-1Zm-2,.3h0Z"/><path class="cls-3" d="M9.52,23.22a3.34,3.34,0,0,1,4.65.33,2.89,2.89,0,0,1,0,4.28c-1.27,1.27-3.37,1.66-4.64.39A3.76,3.76,0,0,1,9.52,23.22Z"/><path class="cls-2" d="M11.41,29.5a3.15,3.15,0,0,1-2.27-.92,4,4,0,0,1-1.09-2.86,4.09,4.09,0,0,1,1.12-2.85h0a3.32,3.32,0,0,1,2.72-.93,4.36,4.36,0,0,1,2.63,1.25,3.39,3.39,0,0,1,0,5A4.5,4.5,0,0,1,11.41,29.5Zm.12-6.58a2.3,2.3,0,0,0-1.66.66h0a3.26,3.26,0,0,0,0,4.29c1.1,1.09,2.9.65,3.93-.39a2.39,2.39,0,0,0,0-3.58,3.32,3.32,0,0,0-2-1Zm-2,.3h0Z"/><path class="cls-3" d="M62.89,30a3.34,3.34,0,0,1,.29,4.65,2.89,2.89,0,0,1-4.26.53c-1.42-1.09-2.08-3.12-1-4.55A3.76,3.76,0,0,1,62.89,30Z"/><path class="cls-2" d="M60.86,36.33a3.66,3.66,0,0,1-2.24-.8A4.46,4.46,0,0,1,57,33.11a3.22,3.22,0,0,1,.53-2.82,4,4,0,0,1,2.69-1.45,4.06,4.06,0,0,1,3,.72,3.33,3.33,0,0,1,1.28,2.58,4.37,4.37,0,0,1-.9,2.78,3.43,3.43,0,0,1-2.33,1.39A2.42,2.42,0,0,1,60.86,36.33ZM60.8,29.8l-.46,0a3,3,0,0,0-2,1.07,2.25,2.25,0,0,0-.35,2,3.53,3.53,0,0,0,1.26,1.87,2.55,2.55,0,0,0,1.89.58,2.49,2.49,0,0,0,1.66-1,3.34,3.34,0,0,0,.69-2.13,2.3,2.3,0,0,0-.89-1.82A2.93,2.93,0,0,0,60.8,29.8Z"/><path class="cls-3" d="M62.89,30a3.34,3.34,0,0,1,.29,4.65,2.89,2.89,0,0,1-4.26.53c-1.42-1.09-2.08-3.12-1-4.55A3.76,3.76,0,0,1,62.89,30Z"/><path class="cls-2" d="M60.86,36.33a3.66,3.66,0,0,1-2.24-.8A4.46,4.46,0,0,1,57,33.11a3.22,3.22,0,0,1,.53-2.82,4,4,0,0,1,2.69-1.45,4.06,4.06,0,0,1,3,.72,3.33,3.33,0,0,1,1.28,2.58,4.37,4.37,0,0,1-.9,2.78,3.43,3.43,0,0,1-2.33,1.39A2.42,2.42,0,0,1,60.86,36.33ZM60.8,29.8l-.46,0a3,3,0,0,0-2,1.07,2.25,2.25,0,0,0-.35,2,3.53,3.53,0,0,0,1.26,1.87,2.55,2.55,0,0,0,1.89.58,2.49,2.49,0,0,0,1.66-1,3.34,3.34,0,0,0,.69-2.13,2.3,2.3,0,0,0-.89-1.82A2.93,2.93,0,0,0,60.8,29.8Z"/><path class="cls-3" d="M27.56,35.37a2.65,2.65,0,0,1-3.28-1.74,2.3,2.3,0,0,1,1.41-3.11,2.64,2.64,0,0,1,3.5,1.21A3,3,0,0,1,27.56,35.37Z"/><path class="cls-2" d="M26.78,36a2.93,2.93,0,0,1-1.41-.38,3.64,3.64,0,0,1-1.56-1.81,2.9,2.9,0,0,1,0-2.26,3,3,0,0,1,1.67-1.5A3.71,3.71,0,0,1,27.89,30a2.7,2.7,0,0,1,1.77,1.6,3.29,3.29,0,0,1-.13,2.51,3.38,3.38,0,0,1-1.78,1.77A2.73,2.73,0,0,1,26.78,36Zm.08-5.21a2.64,2.64,0,0,0-1,.19,2,2,0,0,0-1.13,1,1.87,1.87,0,0,0,0,1.47,2.62,2.62,0,0,0,1.12,1.31,1.75,1.75,0,0,0,1.52.14h0a2.49,2.49,0,0,0,1.35-3,1.72,1.72,0,0,0-1.13-1A2.55,2.55,0,0,0,26.86,30.8Z"/><path class="cls-3" d="M27.56,35.37a2.65,2.65,0,0,1-3.28-1.74,2.3,2.3,0,0,1,1.41-3.11,2.64,2.64,0,0,1,3.5,1.21A3,3,0,0,1,27.56,35.37Z"/><path class="cls-2" d="M26.78,36a2.93,2.93,0,0,1-1.41-.38,3.64,3.64,0,0,1-1.56-1.81,2.9,2.9,0,0,1,0-2.26,3,3,0,0,1,1.67-1.5A3.71,3.71,0,0,1,27.89,30a2.7,2.7,0,0,1,1.77,1.6,3.29,3.29,0,0,1-.13,2.51,3.38,3.38,0,0,1-1.78,1.77A2.73,2.73,0,0,1,26.78,36Zm.08-5.21a2.64,2.64,0,0,0-1,.19,2,2,0,0,0-1.13,1,1.87,1.87,0,0,0,0,1.47,2.62,2.62,0,0,0,1.12,1.31,1.75,1.75,0,0,0,1.52.14h0a2.49,2.49,0,0,0,1.35-3,1.72,1.72,0,0,0-1.13-1A2.55,2.55,0,0,0,26.86,30.8Z"/><path class="cls-3" d="M60.29,18.58a2.28,2.28,0,0,1-1,3,2,2,0,0,1-2.81-.78A2.27,2.27,0,0,1,57,17.68,2.56,2.56,0,0,1,60.29,18.58Z"/><path class="cls-2" d="M58.2,22.38A2.5,2.5,0,0,1,56,21.05,3.25,3.25,0,0,1,55.61,19a2.34,2.34,0,0,1,1.15-1.75,3,3,0,0,1,4,1.08h0a2.42,2.42,0,0,1,.15,2.09A3.19,3.19,0,0,1,59.51,22,2.61,2.61,0,0,1,58.2,22.38Zm-.1-4.48a1.66,1.66,0,0,0-.84.21,1.78,1.78,0,0,0-.38,2.44,1.47,1.47,0,0,0,2.13.59,2.09,2.09,0,0,0,.92-1.07,1.44,1.44,0,0,0-.07-1.24h0a2.22,2.22,0,0,0-1.76-.93Z"/><path class="cls-3" d="M60.29,18.58a2.28,2.28,0,0,1-1,3,2,2,0,0,1-2.81-.78A2.27,2.27,0,0,1,57,17.68,2.56,2.56,0,0,1,60.29,18.58Z"/><path class="cls-2" d="M58.2,22.38A2.5,2.5,0,0,1,56,21.05,3.25,3.25,0,0,1,55.61,19a2.34,2.34,0,0,1,1.15-1.75,3,3,0,0,1,4,1.08h0a2.42,2.42,0,0,1,.15,2.09A3.19,3.19,0,0,1,59.51,22,2.61,2.61,0,0,1,58.2,22.38Zm-.1-4.48a1.66,1.66,0,0,0-.84.21,1.78,1.78,0,0,0-.38,2.44,1.47,1.47,0,0,0,2.13.59,2.09,2.09,0,0,0,.92-1.07,1.44,1.44,0,0,0-.07-1.24h0a2.22,2.22,0,0,0-1.76-.93Z"/></g></g></svg>