<svg xmlns="http://www.w3.org/2000/svg" viewBox="0 0 73 73"><defs><style>.cls-1{fill:#edc16b;}.cls-2{fill:#1b3249;}.cls-3{fill:#fff;}.cls-4{fill:#f29e8c;}</style></defs><title>Asset 41</title><g id="Layer_2" data-name="Layer 2"><g id="_1" data-name="1"><path class="cls-1" d="M45.5,12.5c0,4.42-4.58,4-9,4s-9,.42-9-4,4.58-12,9-12S45.5,8.08,45.5,12.5Z"/><path class="cls-2" d="M38.62,17H35.44c-3,0-5.8.05-7.35-1.48a4.11,4.11,0,0,1-1.09-3C27,7.91,31.69,0,36.5,0S46,7.91,46,12.5a4.11,4.11,0,0,1-1.09,3C43.55,16.87,41.2,17,38.62,17ZM36.5,16h1.06c2.78,0,5.39.05,6.64-1.19A3.09,3.09,0,0,0,45,12.5C45,8.48,40.63,1,36.5,1S28,8.48,28,12.5a3.09,3.09,0,0,0,.8,2.31C30.05,16.05,32.66,16,35.44,16Z"/><path class="cls-3" d="M31.64,11.26h-.1a.49.49,0,0,1-.39-.59C31.71,7.94,33.93,4,36.5,4a.5.5,0,0,1,.5.5.5.5,0,0,1-.5.5c-1.76,0-3.83,3.21-4.37,5.86A.5.5,0,0,1,31.64,11.26Z"/><path class="cls-3" d="M64.5,72.5H8.5a8,8,0,0,1-8-8h72A8,8,0,0,1,64.5,72.5Z"/><path class="cls-2" d="M64.5,73H8.5A8.51,8.51,0,0,1,0,64.5.5.5,0,0,1,.5,64h72a.5.5,0,0,1,.5.5A8.51,8.51,0,0,1,64.5,73ZM1,65A7.5,7.5,0,0,0,8.5,72h56A7.5,7.5,0,0,0,72,65Z"/><path class="cls-4" d="M42.5,64.5h-12l1.85-48a4.1,4.1,0,0,1,4.1-3.95h.1a4.1,4.1,0,0,1,4.1,3.95Z"/><path class="cls-2" d="M42.5,65h-12a.51.51,0,0,1-.36-.15.55.55,0,0,1-.14-.37l1.85-48.05a4.66,4.66,0,0,1,9.3,0L43,64.48a.55.55,0,0,1-.14.37A.51.51,0,0,1,42.5,65ZM31,64H42L40.15,16.47a3.65,3.65,0,0,0-7.3,0Z"/><path class="cls-4" d="M54.5,64.5h-12L40.66,16.76a4.11,4.11,0,0,1,4.11-4.26h.07a4.1,4.1,0,0,1,4.08,3.64Z"/><path class="cls-2" d="M54.5,65h-12a.5.5,0,0,1-.5-.48L40.16,16.78a4.65,4.65,0,0,1,9.26-.7L55,64.44a.5.5,0,0,1-.13.39A.48.48,0,0,1,54.5,65ZM43,64h11L48.42,16.19a3.64,3.64,0,0,0-7.26.56Z"/><path class="cls-4" d="M66.5,64.5h-12L49,17.08a4.11,4.11,0,0,1,4.08-4.58h0a4.1,4.1,0,0,1,4,3.33Z"/><path class="cls-2" d="M66.5,65h-12a.51.51,0,0,1-.5-.44L48.53,17.13a4.61,4.61,0,0,1,9.1-1.39L67,64.41a.51.51,0,0,1-.1.41A.53.53,0,0,1,66.5,65ZM55,64H65.89L56.65,15.93a3.6,3.6,0,0,0-6.23-1.72A3.56,3.56,0,0,0,49.53,17Z"/><path class="cls-4" d="M18.5,64.5H6.5l9.36-48.67a4.1,4.1,0,0,1,4-3.33h0A4.11,4.11,0,0,1,24,17.08Z"/><path class="cls-2" d="M18.5,65H6.5a.53.53,0,0,1-.39-.18.51.51,0,0,1-.1-.41l9.36-48.67a4.61,4.61,0,0,1,9.1,1.39L19,64.56A.51.51,0,0,1,18.5,65ZM7.11,64H18.05l5.42-47a3.61,3.61,0,0,0-3.58-4,3.62,3.62,0,0,0-3.54,2.93Z"/><path class="cls-4" d="M30.5,64.5h-12l5.58-48.36a4.1,4.1,0,0,1,4.08-3.64h.07a4.11,4.11,0,0,1,4.11,4.26Z"/><path class="cls-2" d="M30.5,65h-12a.48.48,0,0,1-.37-.17.5.5,0,0,1-.13-.39l5.58-48.36a4.65,4.65,0,0,1,9.26.7L31,64.52A.5.5,0,0,1,30.5,65ZM19.06,64H30l1.82-47.25a3.59,3.59,0,0,0-1-2.64A3.55,3.55,0,0,0,28.23,13a3.62,3.62,0,0,0-3.65,3.19Z"/><path class="cls-3" d="M26.68,45h0a.5.5,0,0,1-.47-.53l1.5-25.22a.5.5,0,0,1,.53-.47.51.51,0,0,1,.47.53l-1.5,25.22A.49.49,0,0,1,26.68,45Z"/><path class="cls-3" d="M25.85,59h0a.49.49,0,0,1-.47-.53l.56-9.6a.5.5,0,0,1,.53-.47.5.5,0,0,1,.47.53l-.57,9.6A.49.49,0,0,1,25.85,59Z"/></g></g></svg>