<svg xmlns="http://www.w3.org/2000/svg" viewBox="0 0 73 73"><defs><style>.cls-1{fill:#f29e8c;}.cls-2{fill:#1b3249;}.cls-3{fill:#edc16b;}.cls-4{fill:#fff;}</style></defs><title>Asset 311</title><g id="Layer_2" data-name="Layer 2"><g id="_1" data-name="1"><path class="cls-1" d="M60.5,72.5h-48a12,12,0,0,1-12-12h0a1,1,0,0,1,1-1h70a1,1,0,0,1,1,1h0A12,12,0,0,1,60.5,72.5Z"/><path class="cls-2" d="M60.5,73h-48A12.52,12.52,0,0,1,0,60.5,1.5,1.5,0,0,1,1.5,59h70A1.5,1.5,0,0,1,73,60.5,12.52,12.52,0,0,1,60.5,73ZM1.5,60a.5.5,0,0,0-.5.5A11.51,11.51,0,0,0,12.5,72h48A11.51,11.51,0,0,0,72,60.5a.5.5,0,0,0-.5-.5Z"/><path class="cls-3" d="M67,54.5H8A2.5,2.5,0,0,0,5.5,57h0A2.5,2.5,0,0,0,8,59.5H67A2.5,2.5,0,0,0,69.5,57h0A2.5,2.5,0,0,0,67,54.5Z"/><path class="cls-2" d="M67,60H8a3,3,0,0,1,0-6H67a3,3,0,0,1,0,6ZM8,55a2,2,0,0,0,0,4H67a2,2,0,0,0,0-4Z"/><path class="cls-3" d="M66,49.5H7A2.5,2.5,0,0,0,4.5,52h0A2.5,2.5,0,0,0,7,54.5H66A2.5,2.5,0,0,0,68.5,52h0A2.5,2.5,0,0,0,66,49.5Z"/><path class="cls-2" d="M66,55H7a3,3,0,0,1,0-6H66a3,3,0,0,1,0,6ZM7,50a2,2,0,0,0,0,4H66a2,2,0,0,0,0-4Z"/><path class="cls-3" d="M65,44.5H6A2.5,2.5,0,0,0,3.5,47h0A2.5,2.5,0,0,0,6,49.5H65A2.5,2.5,0,0,0,67.5,47h0A2.5,2.5,0,0,0,65,44.5Z"/><path class="cls-2" d="M65,50H6a3,3,0,0,1,0-6H65a3,3,0,0,1,0,6ZM6,45a2,2,0,0,0,0,4H65a2,2,0,0,0,0-4Z"/><path class="cls-3" d="M66,39.5H7A2.5,2.5,0,0,0,4.5,42h0A2.5,2.5,0,0,0,7,44.5H66A2.5,2.5,0,0,0,68.5,42h0A2.5,2.5,0,0,0,66,39.5Z"/><path class="cls-2" d="M66,45H7a3,3,0,0,1,0-6H66a3,3,0,0,1,0,6ZM7,40a2,2,0,0,0,0,4H66a2,2,0,0,0,0-4Z"/><path class="cls-3" d="M67,34.5H8A2.5,2.5,0,0,0,5.5,37h0A2.5,2.5,0,0,0,8,39.5H67A2.5,2.5,0,0,0,69.5,37h0A2.5,2.5,0,0,0,67,34.5Z"/><path class="cls-2" d="M67,40H8a3,3,0,0,1,0-6H67a3,3,0,0,1,0,6ZM8,35a2,2,0,0,0,0,4H67a2,2,0,0,0,0-4Z"/><path class="cls-3" d="M65,29.5H6A2.5,2.5,0,0,0,3.5,32h0A2.5,2.5,0,0,0,6,34.5H65A2.5,2.5,0,0,0,67.5,32h0A2.5,2.5,0,0,0,65,29.5Z"/><path class="cls-2" d="M65,35H6a3,3,0,0,1,0-6H65a3,3,0,0,1,0,6ZM6,30a2,2,0,0,0,0,4H65a2,2,0,0,0,0-4Z"/><path class="cls-3" d="M66,24.5H7A2.5,2.5,0,0,0,4.5,27h0A2.5,2.5,0,0,0,7,29.5H66A2.5,2.5,0,0,0,68.5,27h0A2.5,2.5,0,0,0,66,24.5Z"/><path class="cls-2" d="M66,30H7a3,3,0,0,1,0-6H66a3,3,0,0,1,0,6ZM7,25a2,2,0,0,0,0,4H66a2,2,0,0,0,0-4Z"/><path class="cls-3" d="M67,19.5H8A2.5,2.5,0,0,0,5.5,22h0A2.5,2.5,0,0,0,8,24.5H67A2.5,2.5,0,0,0,69.5,22h0A2.5,2.5,0,0,0,67,19.5Z"/><path class="cls-2" d="M67,25H8a3,3,0,0,1,0-6H67a3,3,0,0,1,0,6ZM8,20a2,2,0,0,0,0,4H67a2,2,0,0,0,0-4Z"/><path class="cls-3" d="M66,14.5H7A2.5,2.5,0,0,0,4.5,17h0A2.5,2.5,0,0,0,7,19.5H66A2.5,2.5,0,0,0,68.5,17h0A2.5,2.5,0,0,0,66,14.5Z"/><path class="cls-2" d="M66,20H7a3,3,0,0,1,0-6H66a3,3,0,0,1,0,6ZM7,15a2,2,0,0,0,0,4H66a2,2,0,0,0,0-4Z"/><path class="cls-4" d="M11.5,14.5V36.33a4.08,4.08,0,0,0,3.58,4.12,4,4,0,0,0,4.35-4V22.67a3.12,3.12,0,0,1,2.84-3.17,3,3,0,0,1,3.16,3v6.83A4.12,4.12,0,0,0,29,33.48a4,4,0,0,0,4.39-4l.07-2A2.5,2.5,0,0,1,36.26,25a2.6,2.6,0,0,1,2.24,2.63v8.88c0,2.9,1.53,4.76,3.61,5a4,4,0,0,0,4.39-4V23.67a3.12,3.12,0,0,1,2.84-3.17,3,3,0,0,1,3.16,3v7.81A4.63,4.63,0,0,0,56.56,36,4.51,4.51,0,0,0,61.5,31.5v-17Z"/><path class="cls-2" d="M42.51,42l-.45,0C39.63,41.75,38,39.55,38,36.52V27.64a2.09,2.09,0,0,0-1.79-2.13,2,2,0,0,0-1.55.51A2,2,0,0,0,34,27.5l-.07,2A4.5,4.5,0,0,1,29,34a4.63,4.63,0,0,1-4.06-4.65V22.5a2.44,2.44,0,0,0-.78-1.81A2.49,2.49,0,0,0,22.3,20a2.63,2.63,0,0,0-2.37,2.67V36.5a4.46,4.46,0,0,1-1.46,3.3A4.38,4.38,0,0,1,15,40.94a4.59,4.59,0,0,1-4-4.61V14.5a.5.5,0,0,1,.5-.5h50a.5.5,0,0,1,.5.5v17a5,5,0,0,1-1.64,3.7,4.92,4.92,0,0,1-3.85,1.28A5.16,5.16,0,0,1,52,31.31V23.5a2.47,2.47,0,0,0-.78-1.81A2.44,2.44,0,0,0,49.37,21,2.63,2.63,0,0,0,47,23.67V37.5a4.54,4.54,0,0,1-1.47,3.33A4.47,4.47,0,0,1,42.51,42ZM36,24.5h.3A3.11,3.11,0,0,1,39,27.64v8.88c0,2.53,1.24,4.28,3.16,4.46a3.45,3.45,0,0,0,2.69-.89A3.51,3.51,0,0,0,46,37.5V23.67A3.64,3.64,0,0,1,49.31,20,3.51,3.51,0,0,1,53,23.5v7.81a4.13,4.13,0,0,0,3.61,4.17,4,4,0,0,0,3.08-1,4,4,0,0,0,1.31-3V15H12V36.33A3.59,3.59,0,0,0,15.12,40a3.47,3.47,0,0,0,3.81-3.45V22.67A3.64,3.64,0,0,1,22.24,19a3.51,3.51,0,0,1,3.69,3.5v6.83A3.62,3.62,0,0,0,29.09,33a3.47,3.47,0,0,0,2.7-.89,3.54,3.54,0,0,0,1.14-2.59l.07-2a3,3,0,0,1,3-3Z"/><path class="cls-1" d="M55.79,8c.45-3.73-2.54-6.7-6.37-5C46.28.2,42.75,2.64,42.29,6.37s2.14,7.63,5.87,8.09S55.34,11.74,55.79,8Z"/><path class="cls-2" d="M48.88,15A6.81,6.81,0,0,1,48.1,15c-3.86-.47-6.8-4.51-6.3-8.64a5.69,5.69,0,0,1,3.35-4.76,4.3,4.3,0,0,1,4.36.9,4.83,4.83,0,0,1,4.78.45,5.52,5.52,0,0,1,2,5.17h0a8.2,8.2,0,0,1-2.76,5.11A7.07,7.07,0,0,1,48.88,15ZM46.55,2.3a2.91,2.91,0,0,0-1,.19,4.7,4.7,0,0,0-2.71,3.94c-.44,3.61,2.1,7.12,5.43,7.53a6,6,0,0,0,4.66-1.54A7.11,7.11,0,0,0,55.29,8h0a4.51,4.51,0,0,0-1.6-4.25,3.9,3.9,0,0,0-4.06-.22.51.51,0,0,1-.54-.08A3.84,3.84,0,0,0,46.55,2.3Z"/><path class="cls-1" d="M29.39,8.64c.41-3.36-2.29-6.05-5.75-4.5-2.84-2.55-6-.34-6.43,3s1.93,6.89,5.29,7.3S29,12,29.39,8.64Z"/><path class="cls-2" d="M23.13,15c-.23,0-.46,0-.69,0-3.51-.43-6.18-4.1-5.73-7.86a5.19,5.19,0,0,1,3.06-4.33,3.93,3.93,0,0,1,4,.79A4.41,4.41,0,0,1,28.06,4,5,5,0,0,1,29.89,8.7h0A7.16,7.16,0,0,1,23.13,15ZM21.05,3.53a2.69,2.69,0,0,0-.93.17,4.21,4.21,0,0,0-2.41,3.52c-.4,3.23,1.87,6.38,4.85,6.74s5.94-2.15,6.34-5.38h0a4.07,4.07,0,0,0-1.43-3.79,3.47,3.47,0,0,0-3.62-.19.51.51,0,0,1-.54-.08A3.42,3.42,0,0,0,21.05,3.53Zm8.34,5.11h0Z"/><path class="cls-1" d="M42.75,4.74c-1-4-5.22-5.83-8.45-2.57C30,.52,27.35,4.4,28.36,8.37s5.17,6.93,9.14,5.93S43.75,8.72,42.75,4.74Z"/><path class="cls-2" d="M36,15a8.65,8.65,0,0,1-8.08-6.5A6.18,6.18,0,0,1,29.4,2.38a4.7,4.7,0,0,1,4.78-.79,5.26,5.26,0,0,1,5-1.42,6,6,0,0,1,4,4.45h0a8.81,8.81,0,0,1-.8,6.25,7.53,7.53,0,0,1-4.8,3.92A6.89,6.89,0,0,1,36,15ZM32.35,2.28a3.36,3.36,0,0,0-2.28.85,5.18,5.18,0,0,0-1.23,5.12c1,3.87,5,6.47,8.54,5.57a6.6,6.6,0,0,0,4.17-3.42,7.84,7.84,0,0,0,.71-5.54,5,5,0,0,0-3.33-3.73,4.31,4.31,0,0,0-4.27,1.39.51.51,0,0,1-.54.12A4.9,4.9,0,0,0,32.35,2.28Z"/><path class="cls-4" d="M62.5,64H33.43a.5.5,0,0,1,0-1H62.5a.5.5,0,0,1,0,1Z"/><path class="cls-4" d="M29.43,64H18.5a.5.5,0,0,1,0-1H29.43a.5.5,0,1,1,0,1Z"/></g></g></svg>