<svg xmlns="http://www.w3.org/2000/svg" viewBox="0 0 73 73"><defs><style>.cls-1{fill:#edc16b;}.cls-2{fill:#1b3249;}.cls-3{fill:#fff;}.cls-4{fill:#f29e8c;}</style></defs><title>Asset 51</title><g id="Layer_2" data-name="Layer 2"><g id="_1" data-name="1"><rect class="cls-1" x="4.5" y="34.5" width="64" height="32"/><path class="cls-2" d="M68.5,67H4.5a.5.5,0,0,1-.5-.5v-32a.5.5,0,0,1,.5-.5h64a.5.5,0,0,1,.5.5v32A.5.5,0,0,1,68.5,67ZM5,66H68V35H5Z"/><path class="cls-3" d="M66.5,72.5H6.5a6,6,0,0,1-6-6h72A6,6,0,0,1,66.5,72.5Z"/><path class="cls-2" d="M66.5,73H6.5A6.51,6.51,0,0,1,0,66.5.5.5,0,0,1,.5,66h72a.5.5,0,0,1,.5.5A6.51,6.51,0,0,1,66.5,73ZM1,67A5.52,5.52,0,0,0,6.5,72h60A5.52,5.52,0,0,0,72,67Z"/><path class="cls-4" d="M3.5,56.45v-15a1,1,0,0,1,1-1H68.53a1,1,0,0,1,1,1v15a1,1,0,0,1-1.07,1c-4.45-.48-4.81-4-9.92-4-5.5,0-5.5,4-11,4s-5.5-4-11-4-5.5,4-11,4-5.5-4-11-4c-5.12,0-5.47,3.47-9.93,4A1,1,0,0,1,3.5,56.45Z"/><path class="cls-2" d="M47.51,58a8.74,8.74,0,0,1-5.8-2.1,8.08,8.08,0,0,0-10.41,0,9,9,0,0,1-11.59,0A7.81,7.81,0,0,0,14.5,54a7.8,7.8,0,0,0-5.2,1.9,8.83,8.83,0,0,1-4.68,2,1.49,1.49,0,0,1-1.12-.36A1.52,1.52,0,0,1,3,56.45v-15A1.49,1.49,0,0,1,4.47,40H68.53A1.49,1.49,0,0,1,70,41.5v15a1.52,1.52,0,0,1-.5,1.13,1.44,1.44,0,0,1-1.12.36,8.8,8.8,0,0,1-4.67-2,8.08,8.08,0,0,0-10.41,0A8.71,8.71,0,0,1,47.51,58Zm-11-5a8.71,8.71,0,0,1,5.79,2.1,8.08,8.08,0,0,0,10.41,0,9,9,0,0,1,11.59,0A8,8,0,0,0,68.49,57a.43.43,0,0,0,.34-.12.5.5,0,0,0,.17-.38v-15a.48.48,0,0,0-.47-.5H4.47a.48.48,0,0,0-.47.5v15a.52.52,0,0,0,.17.38.47.47,0,0,0,.34.12,8,8,0,0,0,4.2-1.85A8.71,8.71,0,0,1,14.5,53a8.72,8.72,0,0,1,5.8,2.1,8.08,8.08,0,0,0,10.41,0A8.74,8.74,0,0,1,36.51,53Z"/><path class="cls-1" d="M2.5,46.45v-11a1,1,0,0,1,1-1H69.53a1,1,0,0,1,1,1v11a1,1,0,0,1-1.07,1c-4.62-.47-5-4-10.26-4-5.66,0-5.66,4-11.33,4s-5.67-4-11.33-4-5.67,4-11.33,4-5.67-4-11.34-4c-5.29,0-5.65,3.48-10.27,4A1,1,0,0,1,2.5,46.45Z"/><path class="cls-2" d="M47.84,48a9.08,9.08,0,0,1-6-2.09,8.53,8.53,0,0,0-10.76,0A9.1,9.1,0,0,1,25.18,48a9.11,9.11,0,0,1-6-2.09A8.19,8.19,0,0,0,13.84,44a8.17,8.17,0,0,0-5.38,1.91,9.26,9.26,0,0,1-4.84,2,1.48,1.48,0,0,1-1.12-.37A1.52,1.52,0,0,1,2,46.45v-11A1.49,1.49,0,0,1,3.47,34H69.53A1.49,1.49,0,0,1,71,35.5v11A1.49,1.49,0,0,1,69.38,48a9.26,9.26,0,0,1-4.83-2,8.52,8.52,0,0,0-10.75,0A9.13,9.13,0,0,1,47.84,48ZM36.51,43a9.08,9.08,0,0,1,6,2.09,8.53,8.53,0,0,0,10.76,0,9.51,9.51,0,0,1,11.9,0A8.34,8.34,0,0,0,69.48,47a.46.46,0,0,0,.35-.12.49.49,0,0,0,.17-.38v-11a.48.48,0,0,0-.47-.5H3.47a.48.48,0,0,0-.47.5v11a.49.49,0,0,0,.17.38.46.46,0,0,0,.35.12,8.34,8.34,0,0,0,4.36-1.86,9.13,9.13,0,0,1,6-2.09,9.13,9.13,0,0,1,6,2.09,8.52,8.52,0,0,0,10.75,0A9.13,9.13,0,0,1,36.51,43Z"/><path class="cls-3" d="M41.29,10c-.35,3.11-2.39,4.54-4.81,4.54S31.42,13.08,31.67,10C32,5.59,35.55,7.06,34.73.5,38.89,1.84,41.77,5.84,41.29,10Z"/><path class="cls-2" d="M36.48,15a5.75,5.75,0,0,1-4.21-1.67,4.33,4.33,0,0,1-1.1-3.41,5.7,5.7,0,0,1,1.7-3.74c.93-1,1.81-2,1.37-5.62a.48.48,0,0,1,.17-.44.52.52,0,0,1,.48-.1c4.43,1.43,7.4,5.73,6.9,10C41.44,13.09,39.4,15,36.48,15ZM35.31,1.25c.27,3.38-.72,4.5-1.69,5.59A4.66,4.66,0,0,0,32.17,10,3.32,3.32,0,0,0,33,12.65,4.75,4.75,0,0,0,36.48,14c2.45,0,4-1.49,4.32-4.1h0A8.64,8.64,0,0,0,35.31,1.25Z"/><path class="cls-4" d="M32.5,17.5h8a1,1,0,0,1,1,1v16a0,0,0,0,1,0,0h-10a0,0,0,0,1,0,0v-16A1,1,0,0,1,32.5,17.5Z"/><path class="cls-4" d="M52.5,17.5h8a1,1,0,0,1,1,1v16a0,0,0,0,1,0,0h-10a0,0,0,0,1,0,0v-16A1,1,0,0,1,52.5,17.5Z"/><path class="cls-4" d="M12.5,17.5h8a1,1,0,0,1,1,1v16a0,0,0,0,1,0,0h-10a0,0,0,0,1,0,0v-16A1,1,0,0,1,12.5,17.5Z"/><rect class="cls-3" x="31.5" y="22.5" width="10" height="2"/><rect class="cls-3" x="31.5" y="28.5" width="10" height="2"/><rect class="cls-3" x="11.5" y="22.5" width="10" height="2"/><rect class="cls-3" x="11.5" y="28.5" width="10" height="2"/><rect class="cls-3" x="51.5" y="22.5" width="10" height="2"/><rect class="cls-3" x="51.5" y="28.5" width="10" height="2"/><path class="cls-2" d="M41.5,35h-10a.5.5,0,0,1-.5-.5v-16A1.5,1.5,0,0,1,32.5,17h8A1.5,1.5,0,0,1,42,18.5v16A.5.5,0,0,1,41.5,35ZM32,34h9V18.5a.5.5,0,0,0-.5-.5h-8a.5.5,0,0,0-.5.5Z"/><path class="cls-2" d="M36.43,18a.5.5,0,0,1-.5-.5v-6a.5.5,0,0,1,.5-.5.5.5,0,0,1,.5.5v6A.5.5,0,0,1,36.43,18Z"/><path class="cls-3" d="M61.29,10c-.35,3.11-2.39,4.54-4.81,4.54S51.42,13.08,51.67,10C52,5.59,55.55,7.06,54.73.5,58.89,1.84,61.77,5.84,61.29,10Z"/><path class="cls-2" d="M56.48,15a5.75,5.75,0,0,1-4.21-1.67,4.33,4.33,0,0,1-1.1-3.41,5.65,5.65,0,0,1,1.7-3.74c.93-1,1.81-2,1.37-5.62a.46.46,0,0,1,.17-.44.52.52,0,0,1,.48-.1c4.43,1.43,7.4,5.73,6.9,10C61.44,13.09,59.4,15,56.48,15ZM55.31,1.25c.27,3.38-.72,4.5-1.69,5.59A4.66,4.66,0,0,0,52.17,10,3.32,3.32,0,0,0,53,12.65,4.75,4.75,0,0,0,56.48,14c2.45,0,4-1.49,4.32-4.1h0A8.64,8.64,0,0,0,55.31,1.25Z"/><path class="cls-2" d="M61.5,35h-10a.5.5,0,0,1-.5-.5v-16A1.5,1.5,0,0,1,52.5,17h8A1.5,1.5,0,0,1,62,18.5v16A.5.5,0,0,1,61.5,35ZM52,34h9V18.5a.5.5,0,0,0-.5-.5h-8a.5.5,0,0,0-.5.5Z"/><path class="cls-2" d="M56.43,18a.5.5,0,0,1-.5-.5v-6a.5.5,0,0,1,.5-.5.5.5,0,0,1,.5.5v6A.5.5,0,0,1,56.43,18Z"/><path class="cls-3" d="M21.3,10c-.36,3.11-2.4,4.54-4.82,4.54S11.42,13.08,11.67,10C12,5.59,15.55,7.06,14.73.5,18.89,1.84,21.77,5.84,21.3,10Z"/><path class="cls-2" d="M16.48,15a5.75,5.75,0,0,1-4.21-1.67,4.33,4.33,0,0,1-1.1-3.41,5.7,5.7,0,0,1,1.7-3.74c.93-1,1.81-2,1.37-5.62a.48.48,0,0,1,.17-.44.52.52,0,0,1,.48-.1c4.43,1.43,7.39,5.73,6.9,10h0C21.44,13.09,19.4,15,16.48,15ZM15.31,1.25c.27,3.38-.72,4.5-1.69,5.59A4.66,4.66,0,0,0,12.17,10,3.32,3.32,0,0,0,13,12.65,4.75,4.75,0,0,0,16.48,14c2.45,0,4-1.49,4.32-4.1A8.64,8.64,0,0,0,15.31,1.25Zm6,8.71h0Z"/><path class="cls-2" d="M21.5,35h-10a.5.5,0,0,1-.5-.5v-16A1.5,1.5,0,0,1,12.5,17h8A1.5,1.5,0,0,1,22,18.5v16A.5.5,0,0,1,21.5,35ZM12,34h9V18.5a.5.5,0,0,0-.5-.5h-8a.5.5,0,0,0-.5.5Z"/><path class="cls-2" d="M16.43,18a.5.5,0,0,1-.5-.5v-6a.5.5,0,0,1,.5-.5.5.5,0,0,1,.5.5v6A.5.5,0,0,1,16.43,18Z"/><circle class="cls-3" cx="7.07" cy="40.25" r="1"/><circle class="cls-3" cx="16.91" cy="37.97" r="1"/><circle class="cls-3" cx="26.51" cy="43.49" r="1"/><circle class="cls-3" cx="34.97" cy="39.25" r="1"/><circle class="cls-3" cx="47.75" cy="44.11" r="1"/><circle class="cls-3" cx="54.53" cy="38.25" r="1"/><circle class="cls-3" cx="65.03" cy="41" r="1"/><circle class="cls-3" cx="64.03" cy="62.6" r="1"/><circle class="cls-3" cx="56.53" cy="58.76" r="1"/><circle class="cls-3" cx="44.95" cy="62" r="1"/><circle class="cls-2" cx="54.53" cy="49.15" r="1"/><circle class="cls-2" cx="49.45" cy="53.29" r="1"/><circle class="cls-2" cx="40.5" cy="49.15" r="1"/><circle class="cls-2" cx="31.27" cy="51.15" r="1"/><circle class="cls-2" cx="22.05" cy="52.46" r="1"/><circle class="cls-2" cx="15.12" cy="47.15" r="1"/><circle class="cls-2" cx="8.49" cy="51.88" r="1"/><circle class="cls-2" cx="62.23" cy="50.15" r="1"/><circle class="cls-3" cx="34.57" cy="58.76" r="1"/><circle class="cls-3" cx="27.55" cy="63" r="1"/><circle class="cls-3" cx="18.67" cy="59.76" r="1"/><circle class="cls-3" cx="9.49" cy="63" r="1"/></g></g></svg>