<svg xmlns="http://www.w3.org/2000/svg" viewBox="0 0 73 59"><defs><style>.cls-1{fill:#f29e8c;}.cls-2{fill:#1b3249;}.cls-3{fill:#edc16b;}.cls-4{fill:#fff;}</style></defs><title>Asset 171</title><g id="Layer_2" data-name="Layer 2"><g id="_1" data-name="1"><path class="cls-1" d="M45.5.5h-18v58H62a4.76,4.76,0,0,0,4.76-4.76V24.17a4.88,4.88,0,0,1,1.89-3.79c2.45-2,3.87-4.28,3.87-6.75C72.5,6.38,60,.5,45.5.5Z"/><path class="cls-2" d="M62,59H27.5a.5.5,0,0,1-.5-.5V.5a.5.5,0,0,1,.5-.5h18C60.66,0,73,6.11,73,13.63c0,2.53-1.4,5-4.06,7.14a4.39,4.39,0,0,0-1.7,3.4V53.74A5.27,5.27,0,0,1,62,59ZM28,58H62a4.26,4.26,0,0,0,4.26-4.26V24.17A5.37,5.37,0,0,1,68.32,20C70.73,18.05,72,15.85,72,13.63,72,6.78,59.86,1,45.5,1H28Z"/><path class="cls-3" d="M54.5,13.63C54.5,6.38,42.41.5,27.5.5S.5,6.38.5,13.63c0,2.47,1.42,4.78,3.87,6.75a4.88,4.88,0,0,1,1.89,3.79V53.74A4.76,4.76,0,0,0,11,58.5H44a4.76,4.76,0,0,0,4.76-4.76V24.17a4.88,4.88,0,0,1,1.89-3.79C53.08,18.41,54.5,16.1,54.5,13.63Z"/><path class="cls-2" d="M44,59H11a5.27,5.27,0,0,1-5.26-5.26V24.17a4.39,4.39,0,0,0-1.7-3.4C1.4,18.63,0,16.16,0,13.63,0,6.11,12.34,0,27.5,0S55,6.11,55,13.63c0,2.53-1.4,5-4.06,7.14a4.39,4.39,0,0,0-1.7,3.4V53.74A5.27,5.27,0,0,1,44,59ZM27.5,1C12.89,1,1,6.66,1,13.63,1,15.85,2.27,18.05,4.68,20a5.37,5.37,0,0,1,2.08,4.18V53.74A4.26,4.26,0,0,0,11,58H44a4.26,4.26,0,0,0,4.26-4.26V24.17A5.37,5.37,0,0,1,50.32,20C52.73,18.05,54,15.85,54,13.63,54,6.66,42.11,1,27.5,1Z"/><path class="cls-1" d="M27.5.5C12.59.5.5,6.38.5,13.63c0,2.47,1.42,4.78,3.87,6.75a4.88,4.88,0,0,1,1.89,3.79V53.74A4.76,4.76,0,0,0,11,58.5H44a4.76,4.76,0,0,0,4.76-4.76V24.17a4.88,4.88,0,0,1,1.89-3.79c2.45-2,3.87-4.28,3.87-6.75C54.5,6.38,42.41.5,27.5.5ZM46.87,16.11a10.09,10.09,0,0,0-4.13,8.06V51.5a1,1,0,0,1-1,1H13.26a1,1,0,0,1-1-1V24.17A10.49,10.49,0,0,0,8.13,15.9c-1.29-1-1.63-1.5-1.63-2.27,0-2.53,7.22-7.13,21-7.13s21,4.77,21,7.13C48.5,14.37,48.16,15.07,46.87,16.11Z"/><path class="cls-2" d="M44,59H11a5.27,5.27,0,0,1-5.26-5.26V24.17a4.39,4.39,0,0,0-1.7-3.4C1.4,18.63,0,16.16,0,13.63,0,6.11,12.34,0,27.5,0S55,6.11,55,13.63c0,2.53-1.4,5-4.06,7.14a4.39,4.39,0,0,0-1.7,3.4V53.74A5.27,5.27,0,0,1,44,59ZM27.5,1C12.89,1,1,6.66,1,13.63,1,15.85,2.27,18.05,4.68,20a5.37,5.37,0,0,1,2.08,4.18V53.74A4.26,4.26,0,0,0,11,58H44a4.26,4.26,0,0,0,4.26-4.26V24.17A5.37,5.37,0,0,1,50.32,20C52.73,18.05,54,15.85,54,13.63,54,6.66,42.11,1,27.5,1ZM41.74,53H13.26a1.5,1.5,0,0,1-1.5-1.5V24.17a10,10,0,0,0-3.94-7.88C6.54,15.26,6,14.66,6,13.63,6,10.44,14.18,6,27.5,6,41.62,6,49,11,49,13.63c0,1-.53,1.83-1.82,2.87a9.59,9.59,0,0,0-3.94,7.67V51.5A1.5,1.5,0,0,1,41.74,53ZM27.5,7C13.3,7,7,11.8,7,13.63c0,.51.13.82,1.45,1.88a11,11,0,0,1,4.31,8.66V51.5a.5.5,0,0,0,.5.5H41.74a.5.5,0,0,0,.5-.5V24.17a10.54,10.54,0,0,1,4.31-8.45c1.2-1,1.45-1.53,1.45-2.09C48,11.64,41,7,27.5,7Z"/><path class="cls-4" d="M63.74,24.67h-12a.5.5,0,1,1,0-1h12a.5.5,0,0,1,0,1Z"/><path class="cls-4" d="M67.85,9.67H55.9a.5.5,0,1,1,0-1H67.85a.5.5,0,0,1,0,1Z"/><circle class="cls-2" cx="18.3" cy="20.19" r="1"/><circle class="cls-2" cx="14.43" cy="13.56" r="1"/><circle class="cls-2" cx="27.27" cy="16.21" r="1"/><circle class="cls-2" cx="36.71" cy="13.02" r="1"/><path class="cls-2" d="M30.77,22.19a1,1,0,1,1-1-1A1,1,0,0,1,30.77,22.19Z"/><circle class="cls-2" cx="38.02" cy="19.6" r="1"/><circle class="cls-2" cx="33.82" cy="27.72" r="1"/><circle class="cls-2" cx="27.77" cy="31.84" r="1"/><circle class="cls-2" cx="37.43" cy="38.27" r="1"/><circle class="cls-2" cx="31.82" cy="47.75" r="1"/><circle class="cls-2" cx="27.27" cy="41.27" r="1"/><circle class="cls-2" cx="20.3" cy="45.38" r="1"/><circle class="cls-2" cx="18.9" cy="35.8" r="1"/><circle class="cls-2" cx="22.9" cy="28.01" r="1"/></g></g></svg>