<svg xmlns="http://www.w3.org/2000/svg" viewBox="0 0 73 73"><defs><style>.cls-1{fill:#f29e8c;}.cls-2{fill:#1b3249;}.cls-3{fill:#fff;}</style></defs><title>Asset 121</title><g id="Layer_2" data-name="Layer 2"><g id="_1" data-name="1"><path class="cls-1" d="M23.3,53.42,4.71,51S1.32,65.18,17.87,72.24a3.26,3.26,0,0,0,4.45-3.59C21.17,61.63,23.3,53.42,23.3,53.42Z"/><path class="cls-2" d="M19.14,73a3.83,3.83,0,0,1-1.47-.3C.93,65.56,4.19,51,4.23,50.89a.49.49,0,0,1,.55-.38l18.59,2.42a.5.5,0,0,1,.35.21.54.54,0,0,1,.07.41c0,.08-2.09,8.18-1,15a3.85,3.85,0,0,1-1.41,3.65A3.68,3.68,0,0,1,19.14,73Zm-14-21.44c-.42,2.44-1.57,14,13,20.22a2.66,2.66,0,0,0,2.71-.36,2.8,2.8,0,0,0,1-2.69c-1-6.08.41-12.91.87-14.88Z"/><path class="cls-1" d="M72.24,17.87C65.18,1.32,51,4.72,51,4.72l2.42,18.59s8.21-2.14,15.22-1A3.26,3.26,0,0,0,72.24,17.87Z"/><path class="cls-2" d="M53.42,23.81a.49.49,0,0,1-.28-.09.5.5,0,0,1-.21-.35L50.51,4.78a.49.49,0,0,1,.38-.55C51,4.19,65.56.93,72.7,17.68h0a3.66,3.66,0,0,1-.49,3.72,3.85,3.85,0,0,1-3.65,1.41c-6.82-1.11-14.93,1-15,1ZM51.56,5.11l2.29,17.58c2-.46,8.8-1.86,14.87-.87a2.81,2.81,0,0,0,2.7-1,2.66,2.66,0,0,0,.36-2.71C65.58,3.54,54,4.69,51.56,5.11Z"/><path class="cls-1" d="M45.44,31.54,31.16,4.82a4.56,4.56,0,0,0-5.48-2.16,38.34,38.34,0,0,0-23,23,4.56,4.56,0,0,0,2.16,5.48L31.54,45.44A4.66,4.66,0,0,0,37.63,44,22.23,22.23,0,0,1,44,37.63,4.65,4.65,0,0,0,45.44,31.54Z"/><path class="cls-2" d="M33.78,46.5a5.2,5.2,0,0,1-2.47-.62L4.59,31.6a5.07,5.07,0,0,1-2.41-6.08A38.7,38.7,0,0,1,25.52,2.19a5.05,5.05,0,0,1,6.08,2.4L45.88,31.31h0a5.17,5.17,0,0,1-1.64,6.74,21.73,21.73,0,0,0-6.19,6.19A5.1,5.1,0,0,1,33.78,46.5ZM27.14,2.92a4.21,4.21,0,0,0-1.3.21A37.66,37.66,0,0,0,3.13,25.84a4.06,4.06,0,0,0,1.93,4.88L31.78,45a4.15,4.15,0,0,0,5.43-1.31,22.73,22.73,0,0,1,6.48-6.48A4.16,4.16,0,0,0,45,31.78L30.71,5.06A4,4,0,0,0,27.14,2.92Z"/><path class="cls-1" d="M5.33,31.43A35.24,35.24,0,0,0,.53,45.36a5.16,5.16,0,0,0,3.91,5.58l16.65,4a6.06,6.06,0,0,0,7.07-3.62,21.48,21.48,0,0,1,3.42-5.82Z"/><path class="cls-2" d="M22.53,55.57A6.4,6.4,0,0,1,21,55.38l-16.65-4A5.68,5.68,0,0,1,0,45.31,35.6,35.6,0,0,1,4.91,31.16.51.51,0,0,1,5.57,31L31.82,45a.51.51,0,0,1,.25.35.5.5,0,0,1-.11.42,21.1,21.1,0,0,0-3.34,5.67A6.5,6.5,0,0,1,22.53,55.57Zm-17-23.48A35.3,35.3,0,0,0,1,45.41a4.68,4.68,0,0,0,3.53,5l16.65,4a5.54,5.54,0,0,0,6.49-3.31,22.1,22.1,0,0,1,3.12-5.48Z"/><path class="cls-1" d="M54.9,21.09l-4-16.65A5.16,5.16,0,0,0,45.36.53a35.24,35.24,0,0,0-13.93,4.8l14,26.25a21.48,21.48,0,0,1,5.82-3.42A6.06,6.06,0,0,0,54.9,21.09Z"/><path class="cls-2" d="M45.46,32.08h-.09a.49.49,0,0,1-.35-.26L31,5.57a.51.51,0,0,1,.17-.66A35.6,35.6,0,0,1,45.31,0a5.67,5.67,0,0,1,6.11,4.29l4,16.65h0a6.53,6.53,0,0,1-3.92,7.65A21.1,21.1,0,0,0,45.79,32,.5.5,0,0,1,45.46,32.08ZM32.09,5.52,45.62,30.81a22.1,22.1,0,0,1,5.48-3.12,5.54,5.54,0,0,0,3.31-6.49l-4-16.65a4.67,4.67,0,0,0-5-3.53A35.19,35.19,0,0,0,32.09,5.52Z"/><circle class="cls-3" cx="65.39" cy="16.04" r="1.5"/><circle class="cls-3" cx="57.95" cy="10.52" r="1.5"/><circle class="cls-3" cx="38.93" cy="7.52" r="1.5"/><circle class="cls-3" cx="47.93" cy="14.54" r="1.5"/><circle class="cls-3" cx="46" cy="23.72" r="1.5"/><circle class="cls-3" cx="31.43" cy="17.33" r="1.5"/><circle class="cls-3" cx="19.45" cy="13.87" r="1.5"/><circle class="cls-3" cx="12.88" cy="27.68" r="1.5"/><circle class="cls-3" cx="24.21" cy="26.72" r="1.5"/><circle class="cls-3" cx="35.17" cy="37.94" r="1.5"/><circle class="cls-3" cx="23.3" cy="47.21" r="1.5"/><circle class="cls-3" cx="14.38" cy="48.21" r="1.5"/><circle class="cls-3" cx="8.18" cy="40.38" r="1.5"/><circle class="cls-3" cx="9.68" cy="57.75" r="1.5"/><circle class="cls-3" cx="16.88" cy="65.58" r="1.5"/><circle class="cls-3" cx="35.93" cy="28.73" r="1.5"/></g></g></svg>