<svg xmlns="http://www.w3.org/2000/svg" viewBox="0 0 73 73"><defs><style>.cls-1{fill:#f29e8c;}.cls-2{fill:#1b3249;}.cls-3{fill:#fff;}</style></defs><title>Asset 221</title><g id="Layer_2" data-name="Layer 2"><g id="_1" data-name="1"><path class="cls-1" d="M.63,16.23C-.65,28.69,8,31.11,8,31.11L19.16,2.16C10.88.51,1.71,5.64.63,16.23Z"/><path class="cls-2" d="M8,31.61l-.14,0c-.09,0-9.06-2.68-7.76-15.41h0A16.34,16.34,0,0,1,6.53,4.46,16.18,16.18,0,0,1,19.26,1.67a.47.47,0,0,1,.34.24.54.54,0,0,1,0,.43l-11.14,29A.5.5,0,0,1,8,31.61ZM1.12,16.28C.06,26.7,6,29.81,7.73,30.48L18.48,2.54A14.92,14.92,0,0,0,1.12,16.28Z"/><path class="cls-1" d="M44,14.89C35.29-6.24,19.16,2.16,19.16,2.16S9.83,6,13.37,18.4C13.88,20.18,44,14.89,44,14.89Z"/><path class="cls-2" d="M15.3,19.26c-2.2,0-2.32-.39-2.41-.73C9.27,5.88,18.87,1.73,19,1.69A17.58,17.58,0,0,1,32.13,1c5.22,1.9,9.38,6.52,12.36,13.73a.5.5,0,0,1,0,.43.45.45,0,0,1-.35.25c-.08,0-7.63,1.34-15.16,2.43A111.45,111.45,0,0,1,15.3,19.26Zm-1.48-1.11c1.63.7,16.19-1.32,29.51-3.64C40.48,7.9,36.6,3.66,31.79,1.91a16.83,16.83,0,0,0-12.4.69C19,2.77,10.54,6.46,13.82,18.15Z"/><path class="cls-1" d="M55.67,27.67C46.32,3.84,26.8,17.29,25,19.31a8.94,8.94,0,0,0,0,11.87C26.21,32.57,55.67,27.67,55.67,27.67Z"/><path class="cls-2" d="M26.88,31.86c-1.23,0-2-.1-2.25-.35A9.43,9.43,0,0,1,24.6,19c1.43-1.58,9.45-7,17.47-5.52,6.12,1.12,10.85,5.84,14.07,14a.52.52,0,0,1-.39.68C48.36,29.4,32.76,31.86,26.88,31.86Zm12.4-17.64a23,23,0,0,0-13.94,5.43,8.42,8.42,0,0,0,0,11.2C26.75,31.57,44,29.09,55,27.28c-3.06-7.49-7.46-11.81-13.08-12.83A14.39,14.39,0,0,0,39.28,14.22Z"/><path class="cls-1" d="M67.31,40.46C58,16.62,38.43,30.08,36.61,32.1a8.92,8.92,0,0,0,0,11.86C37.85,45.35,67.31,40.46,67.31,40.46Z"/><path class="cls-2" d="M38.52,44.65c-1.23,0-2-.11-2.25-.36a9.4,9.4,0,0,1,0-12.53c1.43-1.58,9.44-7,17.47-5.52,6.12,1.12,10.85,5.84,14.06,14a.47.47,0,0,1,0,.43.51.51,0,0,1-.35.25C60,42.18,44.4,44.65,38.52,44.65ZM50.92,27A23,23,0,0,0,37,32.43a8.42,8.42,0,0,0,0,11.2c1.37.73,18.62-1.76,29.59-3.57-3.07-7.49-7.46-11.8-13.08-12.83A14.39,14.39,0,0,0,50.92,27Z"/><path class="cls-1" d="M49.57,69.08s5.79,6.38,14.49,1.74c9.59-5.12,6.35-14.09,6.35-14.09L52,54.47Z"/><path class="cls-2" d="M57.81,73a12.47,12.47,0,0,1-8.61-3.59.49.49,0,0,1-.13-.42l2.43-14.6a.49.49,0,0,1,.55-.41l18.42,2.26a.48.48,0,0,1,.41.32c0,.1,3.27,9.44-6.59,14.7A13.66,13.66,0,0,1,57.81,73ZM50.1,68.91c1,1,6.17,5.49,13.72,1.47C72.07,66,70.48,58.74,70,57.19L52.41,55Z"/><path class="cls-1" d="M70.41,56.73c4.49-8.63.93-14.6-3.1-16.27-9-3.72-17.8,3-19.06,4.42-1.59,1.75-5.36,8.21,0,11.86C56.07,62,70.41,56.73,70.41,56.73Z"/><path class="cls-2" d="M57.5,59.6A16.94,16.94,0,0,1,48,57.16a6.4,6.4,0,0,1-3-4.64c-.42-3.5,1.91-6.94,2.84-8C49.17,43.11,58.3,36.18,67.5,40a9,9,0,0,1,4.85,5.29c.86,2.37,1.3,6.32-1.5,11.68a.46.46,0,0,1-.27.24A42.39,42.39,0,0,1,57.5,59.6Zm4.21-19.75c-6.57,0-12.13,4.3-13.09,5.36-1.18,1.31-2.93,4.41-2.6,7.19a5.46,5.46,0,0,0,2.54,3.93c7,4.76,19.83.57,21.5,0,2.52-5,2.13-8.56,1.35-10.71a7.94,7.94,0,0,0-4.29-4.7A14,14,0,0,0,61.71,39.85Zm8.7,16.88h0Z"/><path class="cls-1" d="M21.14,47.56c-22.83-11.5-9.68-30-6.37-32.35,1.91-1.38,8.19-2.61,12.64,2.05C28.68,18.6,21.14,47.56,21.14,47.56Z"/><path class="cls-2" d="M21.14,48.06a.46.46,0,0,1-.23-.06C12.57,43.8,8.07,38.26,7.55,31.54c-.62-7.93,4.63-15.09,6.93-16.74,2-1.41,8.59-2.81,13.29,2.12,1.32,1.38-3.86,22-6.15,30.76a.49.49,0,0,1-.28.33A.46.46,0,0,1,21.14,48.06ZM19.68,14.44a8.6,8.6,0,0,0-4.62,1.17c-1.55,1.12-7.13,7.92-6.51,15.85.48,6.2,4.61,11.37,12.26,15.37C23.61,36,27.64,19,27,17.55A10,10,0,0,0,19.68,14.44Z"/><path class="cls-1" d="M33.82,59.38C11,47.88,23.77,29.12,26,27.48c1.88-1.42,8.65-2.1,13.1,2.57C40.32,31.38,33.82,59.38,33.82,59.38Z"/><path class="cls-2" d="M33.82,59.88a.59.59,0,0,1-.22-.05C25.19,55.59,20.62,50,20,43.06c-.7-7.66,4-14.77,5.64-16,2-1.48,9-2.37,13.77,2.62,1.31,1.38-3.13,21.3-5.1,29.79a.51.51,0,0,1-.28.34A.38.38,0,0,1,33.82,59.88Zm-3.46-33a7.54,7.54,0,0,0-4.11,1C25.15,28.71,20.3,35.27,21,43c.58,6.37,4.78,11.64,12.49,15.67,3-12.88,5.76-27,5.17-28.3A11.39,11.39,0,0,0,30.36,26.91Z"/><path class="cls-1" d="M49.57,69.08C23,66.37,35.43,41.93,37.61,40.29c1.88-1.42,9-2.43,13.08,2.54C56.08,49.36,49.57,69.08,49.57,69.08Z"/><path class="cls-2" d="M49.57,69.58h0C40.21,68.63,34.61,65,32.87,58.74,30.68,50.9,35.7,41.1,37.31,39.89c2.07-1.57,9.46-2.58,13.76,2.62,5.51,6.66-.76,25.91-1,26.72A.5.5,0,0,1,49.57,69.58ZM42.38,39.63a8.34,8.34,0,0,0-4.47,1.06c-1.13.85-6.21,10.17-4.08,17.78,1.6,5.72,6.77,9.1,15.38,10.07.86-2.77,5.85-19.64,1.09-25.39A10.07,10.07,0,0,0,42.38,39.63Z"/><circle class="cls-3" cx="57.49" cy="35.07" r="1"/><circle class="cls-3" cx="45.03" cy="31.76" r="1"/><circle class="cls-3" cx="47.31" cy="21.86" r="1"/><circle class="cls-3" cx="39.21" cy="18.77" r="1"/><circle class="cls-3" cx="33.62" cy="10.64" r="1"/><circle class="cls-3" cx="27.8" cy="4.34" r="1"/><circle class="cls-3" cx="25.02" cy="11.09" r="1"/><circle class="cls-3" cx="19.16" cy="7.49" r="1"/><circle class="cls-3" cx="8.83" cy="9.09" r="1"/><circle class="cls-3" cx="4.38" cy="15.48" r="1"/><circle class="cls-3" cx="5.38" cy="23.57" r="1"/><circle class="cls-3" cx="23.32" cy="20.21" r="1"/><circle class="cls-3" cx="15.76" cy="21.57" r="1"/><circle class="cls-3" cx="19.42" cy="28.95" r="1"/><circle class="cls-3" cx="12.57" cy="32.73" r="1"/><circle class="cls-3" cx="17.1" cy="38.57" r="1"/><circle class="cls-3" cx="29.16" cy="31.11" r="1"/><circle class="cls-3" cx="33.35" cy="36.57" r="1"/><circle class="cls-3" cx="24.59" cy="40.13" r="1"/><circle class="cls-3" cx="30.62" cy="43.9" r="1"/><circle class="cls-3" cx="27.55" cy="49.22" r="1"/><circle class="cls-3" cx="41.29" cy="44.21" r="1"/><circle class="cls-3" cx="47.83" cy="49.22" r="1"/><circle class="cls-3" cx="37.43" cy="52.61" r="1"/><circle class="cls-3" cx="46.48" cy="56.63" r="1"/><circle class="cls-3" cx="40.29" cy="60.71" r="1"/><circle class="cls-3" cx="54.57" cy="67.19" r="1"/><circle class="cls-3" cx="59.49" cy="62.21" r="1"/><circle class="cls-3" cx="64.59" cy="65.19" r="1"/><circle class="cls-3" cx="67.05" cy="52.61" r="1"/><circle class="cls-3" cx="65.59" cy="44.51" r="1"/><circle class="cls-3" cx="57.13" cy="46.85" r="1"/><circle class="cls-3" cx="60.25" cy="54.1" r="1"/><circle class="cls-3" cx="31.62" cy="22.86" r="1"/><circle class="cls-3" cx="49.83" cy="37.07" r="1"/></g></g></svg>