<svg xmlns="http://www.w3.org/2000/svg" viewBox="0 0 73 73"><defs><style>.cls-1{fill:#fff;}.cls-2{fill:#1b3249;}.cls-3{fill:#f29e8c;}.cls-4{fill:#edc16b;}</style></defs><title>Asset 91</title><g id="Layer_2" data-name="Layer 2"><g id="_1" data-name="1"><path class="cls-1" d="M64.5,72.5H8.5a8,8,0,0,1-8-8h72A8,8,0,0,1,64.5,72.5Z"/><path class="cls-2" d="M64.5,73H8.5A8.51,8.51,0,0,1,0,64.5.5.5,0,0,1,.5,64h72a.5.5,0,0,1,.5.5A8.51,8.51,0,0,1,64.5,73ZM1,65A7.5,7.5,0,0,0,8.5,72h56A7.5,7.5,0,0,0,72,65Z"/><path class="cls-3" d="M71.34,57.11a6,6,0,0,0-4.27-4.38A2.94,2.94,0,0,1,64.9,50.5L59.79,24.93a8,8,0,0,0-7.85-6.43H21.06a8,8,0,0,0-7.85,6.43L8.1,50.51a3,3,0,0,1-2.16,2.24A6,6,0,0,0,7.5,64.5h58A6,6,0,0,0,71.34,57.11Z"/><path class="cls-2" d="M65.5,65H7.5a6.47,6.47,0,0,1-5.08-2.44A6.54,6.54,0,0,1,1.17,57,6.47,6.47,0,0,1,5.8,52.27a2.49,2.49,0,0,0,1.81-1.86l5.11-25.58A8.53,8.53,0,0,1,21.06,18H51.94a8.53,8.53,0,0,1,8.34,6.83L65.39,50.4a2.47,2.47,0,0,0,1.82,1.85A6.44,6.44,0,0,1,71.83,57h0a6.54,6.54,0,0,1-1.25,5.56A6.47,6.47,0,0,1,65.5,65ZM21.06,19a7.52,7.52,0,0,0-7.36,6L8.59,50.61a3.48,3.48,0,0,1-2.51,2.62,5.51,5.51,0,0,0-3.94,4A5.57,5.57,0,0,0,3.2,61.93,5.46,5.46,0,0,0,7.5,64h58a5.46,5.46,0,0,0,4.3-2.07,5.57,5.57,0,0,0,1.06-4.71,5.48,5.48,0,0,0-3.92-4,3.45,3.45,0,0,1-2.53-2.61L59.3,25a7.52,7.52,0,0,0-7.36-6Z"/><path class="cls-2" d="M61.39,57.61a.51.51,0,0,1-.5-.42,5,5,0,0,0-2.73-4,3.19,3.19,0,0,1-1.87-2.62L52.64,25a.49.49,0,0,1,.42-.56.51.51,0,0,1,.57.42l3.65,25.57a2.22,2.22,0,0,0,1.24,1.83A6,6,0,0,1,61.88,57a.49.49,0,0,1-.41.57Z"/><path class="cls-2" d="M11.61,57.61h-.08a.49.49,0,0,1-.41-.57,6,6,0,0,1,3.37-4.75,2.26,2.26,0,0,0,1.23-1.84l3.65-25.58a.5.5,0,0,1,.57-.42.49.49,0,0,1,.42.56L16.71,50.58a3.26,3.26,0,0,1-1.85,2.63,5,5,0,0,0-2.75,4A.51.51,0,0,1,11.61,57.61Z"/><path class="cls-2" d="M47,30.92a.49.49,0,0,1-.5-.45L46,25a.5.5,0,1,1,1-.08l.48,5.49a.5.5,0,0,1-.46.54Z"/><path class="cls-2" d="M51.5,57.61a.52.52,0,0,1-.5-.46c-.18-1.92-.82-3.49-1.61-4a3.44,3.44,0,0,1-1.16-2.61L46.87,34.75a.5.5,0,0,1,1-.09l1.36,15.79a2.62,2.62,0,0,0,.71,1.86C51,53,51.78,54.78,52,57.06a.52.52,0,0,1-.45.55Z"/><path class="cls-2" d="M21.5,57.61h-.05a.52.52,0,0,1-.45-.55c.22-2.24,1-4,2.07-4.73a2.61,2.61,0,0,0,.7-1.86l.57-6.62a.5.5,0,1,1,1,.08l-.57,6.63a3.43,3.43,0,0,1-1.15,2.6c-.61.41-1.4,1.7-1.62,4A.52.52,0,0,1,21.5,57.61Z"/><path class="cls-2" d="M25.21,40.19h-.05a.5.5,0,0,1-.45-.54L26,24.89a.49.49,0,0,1,.54-.46A.5.5,0,0,1,27,25L25.7,39.73A.5.5,0,0,1,25.21,40.19Z"/><path class="cls-2" d="M41.5,57.61a.51.51,0,0,1-.5-.49A13.12,13.12,0,0,0,40.44,53a7.59,7.59,0,0,1-.36-2.45l-.74-25.57a.5.5,0,0,1,.49-.51.52.52,0,0,1,.51.49l.74,25.56a6.85,6.85,0,0,0,.25,2A13.69,13.69,0,0,1,42,57.09a.5.5,0,0,1-.48.52Z"/><path class="cls-2" d="M31.5,57.61h0a.5.5,0,0,1-.48-.52,13.89,13.89,0,0,1,.67-4.57,6.47,6.47,0,0,0,.25-2l.74-25.58a.52.52,0,0,1,.51-.49.5.5,0,0,1,.49.51l-.74,25.59A7.62,7.62,0,0,1,32.56,53,13.45,13.45,0,0,0,32,57.12.51.51,0,0,1,31.5,57.61Z"/><path class="cls-3" d="M28.3,11.15s-3.14,1.5-4.8-1.36a3.91,3.91,0,0,1,3.86-2.44S24.18,4.74,27.3.81c.57,2.91,2.48,3.31,2.48,3.31a3.86,3.86,0,0,1,3-3.62,4,4,0,0,1,1.36,4.8C32.93,5.78,28.78,9.93,28.3,11.15Z"/><path class="cls-2" d="M26.49,12.05a3.79,3.79,0,0,1-3.42-2A.54.54,0,0,1,23,9.63,4.33,4.33,0,0,1,26.35,7c-.82-1.15-1.8-3.48.56-6.45a.52.52,0,0,1,.51-.18.49.49,0,0,1,.37.39A3.86,3.86,0,0,0,29.38,3.4,4.31,4.31,0,0,1,32.7,0a.5.5,0,0,1,.39.09,4.43,4.43,0,0,1,1.52,5.41.55.55,0,0,1-.27.25c-1.09.43-5.15,4.49-5.58,5.57a.47.47,0,0,1-.25.27A4.79,4.79,0,0,1,26.49,12.05Zm1.8-.9h0ZM24.06,9.74a3.13,3.13,0,0,0,3.87,1,23.61,23.61,0,0,1,5.83-5.84A3.41,3.41,0,0,0,32.67,1a3.37,3.37,0,0,0-2.39,3.12.5.5,0,0,1-.6.45A3.89,3.89,0,0,1,27.11,2a3.79,3.79,0,0,0,.57,5,.52.52,0,0,1,.15.56.5.5,0,0,1-.46.33A3.48,3.48,0,0,0,24.06,9.74Z"/><path class="cls-4" d="M43.46,17.79c-.73-4.08-.24-8.87-2.45-11.07-3.12-3.12-7.23-2.17-10.35.94S26.6,14.89,29.72,18c2.2,2.21,7,1.72,11.07,2.45A2.29,2.29,0,0,0,43.46,17.79Z"/><path class="cls-2" d="M41.22,21A2.35,2.35,0,0,1,40.7,21c-1.22-.21-2.53-.32-3.79-.43-3-.25-5.88-.49-7.54-2.16a6.49,6.49,0,0,1-2-5.59,9.68,9.68,0,0,1,2.95-5.46c3.65-3.64,8-4,11.06-.95C43,8,43.27,10.89,43.52,13.91c.11,1.26.22,2.57.43,3.79A2.79,2.79,0,0,1,41.22,21ZM36.65,5.28A8.38,8.38,0,0,0,31,8a8.73,8.73,0,0,0-2.67,4.88,5.57,5.57,0,0,0,1.72,4.76c1.41,1.4,4.09,1.63,6.93,1.86,1.28.11,2.61.22,3.88.45A1.78,1.78,0,0,0,43,17.88h0c-.23-1.27-.34-2.6-.45-3.88-.23-2.84-.46-5.52-1.86-6.93A5.57,5.57,0,0,0,36.65,5.28Z"/><circle class="cls-2" cx="36.07" cy="12.86" r="0.75"/><circle class="cls-2" cx="32.73" cy="9.76" r="0.75"/><circle class="cls-2" cx="35.17" cy="16.97" r="0.75"/><circle class="cls-2" cx="37.32" cy="8.22" r="0.75"/><circle class="cls-2" cx="31.5" cy="14.61" r="0.75"/><circle class="cls-2" cx="39.66" cy="16.43" r="0.75"/><circle class="cls-2" cx="40.14" cy="12.11" r="0.75"/></g></g></svg>