<svg xmlns="http://www.w3.org/2000/svg" viewBox="0 0 72.95 72.95"><defs><style>.cls-1{fill:#edc16b;}.cls-2{fill:#1b3249;}.cls-3{fill:#f29e8c;}</style></defs><title>Asset 291</title><g id="Layer_2" data-name="Layer 2"><g id="_1" data-name="1"><ellipse class="cls-1" cx="36.48" cy="36.48" rx="41.81" ry="29.04" transform="translate(-15.11 36.48) rotate(-45)"/><path class="cls-2" d="M23.85,73C17.09,73,11,70.83,6.56,66.4-5,54.88-.91,32.09,15.59,15.59S54.88-5,66.4,6.56h0c11.51,11.51,7.46,34.3-9,50.8C47.21,67.51,34.68,73,23.85,73ZM49.09,1C38.54,1,26.26,6.33,16.3,16.3.19,32.41-3.86,54.56,7.26,65.69s33.29,7.07,49.4-9,20.16-38.27,9-49.4h0C61.45,3,55.59,1,49.09,1Z"/><path class="cls-3" d="M27.72,45.24C37.51,55.07,47.6,60.41,48.5,59.06S41.31,50.4,32,41,15.28,23.49,13.9,24.45,17.88,35.44,27.72,45.24Z"/><path class="cls-2" d="M48,59.76c-2.71,0-11.82-5.36-20.6-14.17-9-9-14.4-18.29-14.16-20.76a1,1,0,0,1,.42-.79c1.29-.9,4.08,1.76,12.39,10.24,1.95,2,4.07,4.14,6.3,6.36s4.39,4.36,6.37,6.3c8.47,8.31,11.13,11.11,10.23,12.4a1,1,0,0,1-.78.41ZM14.22,24.87h-.06c-.49,1,4.21,10.35,13.91,20h0c9.66,9.71,19,14.4,20,13.86.17-1-5.07-6.11-10.14-11.08-2-1.95-4.15-4.07-6.38-6.31S27.25,37,25.3,35C20.42,30,15.38,24.87,14.22,24.87Z"/><path class="cls-3" d="M27.72,45.24C37.51,55.07,47.6,60.41,48.5,59.06S41.31,50.4,32,41,15.28,23.49,13.9,24.45,17.88,35.44,27.72,45.24Z"/><path class="cls-2" d="M48,59.76c-2.71,0-11.82-5.36-20.6-14.17-9-9-14.4-18.29-14.16-20.76a1,1,0,0,1,.42-.79c1.29-.9,4.08,1.76,12.39,10.24,1.95,2,4.07,4.14,6.3,6.36s4.39,4.36,6.37,6.3c8.47,8.31,11.13,11.11,10.23,12.4a1,1,0,0,1-.78.41ZM14.22,24.87h-.06c-.49,1,4.21,10.35,13.91,20h0c9.66,9.71,19,14.4,20,13.86.17-1-5.07-6.11-10.14-11.08-2-1.95-4.15-4.07-6.38-6.31S27.25,37,25.3,35C20.42,30,15.38,24.87,14.22,24.87Z"/><path class="cls-3" d="M19.27,53.69c-6.66-6.62-11.95-12.3-13.1-11.5s2.54,8,9.56,15,14.28,10.69,15,9.56S25.89,60.34,19.27,53.69Z"/><path class="cls-2" d="M30.25,67.48c-2.14,0-8.64-3.65-14.87-9.91-6.42-6.39-10.09-13-9.9-15a1,1,0,0,1,.41-.78c1.21-.83,3.6,1.4,10.7,8.53l3,3h0c1,1.05,2.06,2.06,3,3,7.13,7.1,9.37,9.49,8.53,10.71a1,1,0,0,1-.78.41ZM6.48,42.61H6.42c-.38.87,2.95,7.57,9.66,14.26s13.37,10,14.31,9.59c.12-.86-4.43-5.39-8.44-9.39-1-1-2-2-3-3l-3-3C12,47.07,7.52,42.61,6.48,42.61Z"/><path class="cls-3" d="M19.27,53.69c-6.66-6.62-11.95-12.3-13.1-11.5s2.54,8,9.56,15,14.28,10.69,15,9.56S25.89,60.34,19.27,53.69Z"/><path class="cls-2" d="M30.25,67.48c-2.14,0-8.64-3.65-14.87-9.91-6.42-6.39-10.09-13-9.9-15a1,1,0,0,1,.41-.78c1.21-.83,3.6,1.4,10.7,8.53l3,3h0c1,1.05,2.06,2.06,3,3,7.13,7.1,9.37,9.49,8.53,10.71a1,1,0,0,1-.78.41ZM6.48,42.61H6.42c-.38.87,2.95,7.57,9.66,14.26s13.37,10,14.31,9.59c.12-.86-4.43-5.39-8.44-9.39-1-1-2-2-3-3l-3-3C12,47.07,7.52,42.61,6.48,42.61Z"/><path class="cls-3" d="M41,32c9.41,9.35,16.68,17.5,18.07,16.54s-4-11-13.82-20.78S25.36,12.55,24.45,13.9,31.64,22.55,41,32Z"/><path class="cls-2" d="M58.79,49.08c-1.5,0-4.54-2.95-11.84-10.4-2-2-4.07-4.14-6.31-6.37h0C38.41,30.07,36.26,28,34.27,26,25.8,17.7,23.14,14.91,24,13.61a1,1,0,0,1,.79-.41c2.48-.23,11.79,5.16,20.76,14.16S60,45.65,59.75,48.13a1,1,0,0,1-.42.79A.89.89,0,0,1,58.79,49.08ZM41.35,31.61C43.59,33.84,45.71,36,47.66,38c5,5.07,10.11,10.32,11.14,10.1.48-1-4.22-10.35-13.92-20s-19-14.39-20.05-13.86c-.17,1,5.08,6.11,10.15,11.09C37,27.25,39.12,29.37,41.35,31.61Z"/><path class="cls-3" d="M41,32c9.41,9.35,16.68,17.5,18.07,16.54s-4-11-13.82-20.78S25.36,12.55,24.45,13.9,31.64,22.55,41,32Z"/><path class="cls-2" d="M58.79,49.08c-1.5,0-4.54-2.95-11.84-10.4-2-2-4.07-4.14-6.31-6.37h0C38.41,30.07,36.26,28,34.27,26,25.8,17.7,23.14,14.91,24,13.61a1,1,0,0,1,.79-.41c2.48-.23,11.79,5.16,20.76,14.16S60,45.65,59.75,48.13a1,1,0,0,1-.42.79A.89.89,0,0,1,58.79,49.08ZM41.35,31.61C43.59,33.84,45.71,36,47.66,38c5,5.07,10.11,10.32,11.14,10.1.48-1-4.22-10.35-13.92-20s-19-14.39-20.05-13.86c-.17,1,5.08,6.11,10.15,11.09C37,27.25,39.12,29.37,41.35,31.61Z"/><path class="cls-3" d="M53.69,19.27c6.65,6.62,11.94,12.29,13.09,11.49s-2.54-8-9.56-15S43,5,42.19,6.17,47.07,12.61,53.69,19.27Z"/><path class="cls-2" d="M66.52,31.35c-1.37,0-4-2.5-10.16-8.7-1-1-2-2-3-3h0c-1-1.05-2.06-2.06-3-3-7.13-7.1-9.36-9.49-8.52-10.7a1,1,0,0,1,.77-.41c2-.18,8.63,3.48,15,9.9s10.09,13.06,9.9,15a1,1,0,0,1-.42.78A.94.94,0,0,1,66.52,31.35ZM54,18.91l3,3c4,4,8.55,8.56,9.46,8.39.38-.87-3-7.57-9.66-14.25S43.5,6,42.56,6.49c-.12.87,4.43,5.4,8.45,9.39Z"/><path class="cls-3" d="M53.69,19.27c6.65,6.62,11.94,12.29,13.09,11.49s-2.54-8-9.56-15S43,5,42.19,6.17,47.07,12.61,53.69,19.27Z"/><path class="cls-2" d="M66.52,31.35c-1.37,0-4-2.5-10.16-8.7-1-1-2-2-3-3h0c-1-1.05-2.06-2.06-3-3-7.13-7.1-9.36-9.49-8.52-10.7a1,1,0,0,1,.77-.41c2-.18,8.63,3.48,15,9.9s10.09,13.06,9.9,15a1,1,0,0,1-.42.78A.94.94,0,0,1,66.52,31.35ZM54,18.91l3,3c4,4,8.55,8.56,9.46,8.39.38-.87-3-7.57-9.66-14.25S43.5,6,42.56,6.49c-.12.87,4.43,5.4,8.45,9.39Z"/></g></g></svg>