<svg xmlns="http://www.w3.org/2000/svg" viewBox="0 0 73 73"><defs><style>.cls-1{fill:#edc16b;}.cls-2{fill:#1b3249;}.cls-3{fill:#f29e8c;}</style></defs><title>Asset 181</title><g id="Layer_2" data-name="Layer 2"><g id="_1" data-name="1"><path class="cls-1" d="M41.13,20.55c0,1.19-.91,2.25-1.11,3.37a18.66,18.66,0,0,1-.59,3.38,19.33,19.33,0,0,1-1.37,3.16,19.93,19.93,0,0,1-2,2.83c-.75.89-1.08,2.26-2,3s-2.49.49-3.5,1.08a18.94,18.94,0,0,1-3,1.69,19.18,19.18,0,0,1-3.26,1.24c-1.13.2-2.3-.23-3.48-.23a20.08,20.08,0,0,1-3.46.05,20.2,20.2,0,0,1-3.4-.76,19.6,19.6,0,0,1-2.92-1.88C10.1,36.91,8.86,36.7,8,36a21.12,21.12,0,0,1-2.65-2.34c-.75-.89-.73-2.31-1.32-3.32a18.85,18.85,0,0,1-1.54-3A19.11,19.11,0,0,1,1.62,24C1.42,22.82.5,21.74.5,20.55s1-2.26,1.19-3.39a21.41,21.41,0,0,1,.42-3.45,20.66,20.66,0,0,1,1.25-3.29,20.32,20.32,0,0,1,1.84-3c.75-.89,2.09-1.24,3-2a19,19,0,0,1,3-1.7c1-.58,1.63-2,2.73-2.38A21.12,21.12,0,0,1,17.37.55c1.13-.2,2.34.24,3.53.24a19.84,19.84,0,0,1,3.46.1A19.89,19.89,0,0,1,27.64,2c1.1.41,2.38.4,3.38,1s1.51,1.87,2.4,2.62a18.74,18.74,0,0,1,2.7,2.15,20.07,20.07,0,0,1,1.69,3c.58,1,1.9,1.67,2.3,2.77a20.79,20.79,0,0,1,1,3.43A21.12,21.12,0,0,1,41.13,20.55Z"/><path class="cls-2" d="M23.75,40.86a10.31,10.31,0,0,1-1.48-.14,11.54,11.54,0,0,0-2.61-.08,8.94,8.94,0,0,1-2.31,0l-.44-.08a17.17,17.17,0,0,1-3-.71,7.71,7.71,0,0,1-1.94-1.17,9,9,0,0,0-1.07-.75,8.41,8.41,0,0,0-1.25-.55,7,7,0,0,1-2-1l-.72-.58a13.14,13.14,0,0,1-2-1.82,5,5,0,0,1-.88-2,5.81,5.81,0,0,0-.49-1.37l-.12-.22A17.88,17.88,0,0,1,2,27.43,19.38,19.38,0,0,1,1.13,24a5.83,5.83,0,0,0-.5-1.34A5.16,5.16,0,0,1,0,20.55a4.88,4.88,0,0,1,.67-2.14,4.91,4.91,0,0,0,.53-1.33,9.67,9.67,0,0,0,.12-1.34,7.24,7.24,0,0,1,.32-2.2c.12-.33.23-.66.34-1a12,12,0,0,1,1-2.37c.16-.28.32-.57.47-.86A13.53,13.53,0,0,1,4.82,7.06a5.72,5.72,0,0,1,1.82-1.3A7.46,7.46,0,0,0,7.86,5a9.37,9.37,0,0,1,2-1.22c.34-.17.69-.34,1-.54a4.5,4.5,0,0,0,1.07-1A4.59,4.59,0,0,1,13.72.84a17.42,17.42,0,0,1,3-.68l.6-.1a7,7,0,0,1,2.23.09,12.56,12.56,0,0,0,2.26.12,14.27,14.27,0,0,1,2.68.12,11.36,11.36,0,0,1,2.39.79c.32.13.64.27,1,.38a8.46,8.46,0,0,0,1.34.34,6.62,6.62,0,0,1,2.13.68,5.32,5.32,0,0,1,1.53,1.57,6,6,0,0,0,.93,1.09,11.86,11.86,0,0,0,1,.74A8.39,8.39,0,0,1,36.5,7.46a9.1,9.1,0,0,1,1.19,2c.18.36.35.73.55,1.08a5.32,5.32,0,0,0,1,1.08,4.76,4.76,0,0,1,1.37,1.77,21,21,0,0,1,1,3.51,11.42,11.42,0,0,1,.07,2.55c0,.37,0,.74,0,1.1A5.25,5.25,0,0,1,41,22.69,5.09,5.09,0,0,0,40.52,24c-.07.38-.11.76-.16,1.13a9.62,9.62,0,0,1-.46,2.33,19.91,19.91,0,0,1-1.41,3.24,20,20,0,0,1-2,2.9,7.27,7.27,0,0,0-.75,1.24,5.56,5.56,0,0,1-1.28,1.83,4.16,4.16,0,0,1-2.12.74,4.44,4.44,0,0,0-1.45.39c-.31.18-.61.38-.91.57a10.44,10.44,0,0,1-2.14,1.16c-.38.14-.74.3-1.11.47a9.08,9.08,0,0,1-2.23.79A3.5,3.5,0,0,1,23.75,40.86ZM20.9,39.58a9.43,9.43,0,0,1,1.52.15,6,6,0,0,0,1.87.09,8.3,8.3,0,0,0,2-.72c.39-.18.78-.35,1.18-.5a9.44,9.44,0,0,0,1.94-1.06c.31-.2.62-.4.95-.59a5.05,5.05,0,0,1,1.8-.52,3.53,3.53,0,0,0,1.63-.51,5,5,0,0,0,1-1.53A8,8,0,0,1,35.7,33a19.43,19.43,0,0,0,1.93-2.76A19,19,0,0,0,39,27.13a9.09,9.09,0,0,0,.41-2.1c.05-.4.09-.79.16-1.19a6.54,6.54,0,0,1,.57-1.57,4.42,4.42,0,0,0,.53-1.72c0-.38,0-.76,0-1.15a11.2,11.2,0,0,0,0-2.33,21,21,0,0,0-1-3.34,4,4,0,0,0-1.11-1.38A6,6,0,0,1,37.38,11c-.22-.37-.4-.76-.59-1.14a8,8,0,0,0-1-1.8,7.6,7.6,0,0,0-1.56-1.29c-.37-.26-.74-.51-1.08-.8A6.85,6.85,0,0,1,32,4.75a4.47,4.47,0,0,0-1.24-1.31A5.88,5.88,0,0,0,29,2.88a10.18,10.18,0,0,1-1.49-.38c-.34-.12-.67-.26-1-.4a10.42,10.42,0,0,0-2.17-.72,13.56,13.56,0,0,0-2.49-.11,15,15,0,0,1-2.43-.13,6.23,6.23,0,0,0-1.9-.1l-.61.11a16.44,16.44,0,0,0-2.79.63,3.9,3.9,0,0,0-1.33,1.13,5.42,5.42,0,0,1-1.32,1.21c-.36.21-.73.39-1.09.57A8.83,8.83,0,0,0,8.5,5.77a7.19,7.19,0,0,1-1.39.87A5.06,5.06,0,0,0,5.58,7.7a13.07,13.07,0,0,0-1.3,2.08c-.16.3-.32.61-.49.89a11.78,11.78,0,0,0-.86,2.18c-.11.35-.22.69-.35,1a6.42,6.42,0,0,0-.27,1.9,12.47,12.47,0,0,1-.12,1.47,6.31,6.31,0,0,1-.62,1.61A4.08,4.08,0,0,0,1,20.55a4.32,4.32,0,0,0,.54,1.73,6.5,6.5,0,0,1,.57,1.58,19.11,19.11,0,0,0,.82,3.23,16.74,16.74,0,0,0,1.38,2.74l.13.22A6.78,6.78,0,0,1,5,31.66,4.45,4.45,0,0,0,5.7,33.3,12.49,12.49,0,0,0,7.56,35l.73.59a5.66,5.66,0,0,0,1.68.86,9.69,9.69,0,0,1,1.4.63,12.14,12.14,0,0,1,1.17.81,6.62,6.62,0,0,0,1.68,1,16.83,16.83,0,0,0,2.86.67l.45.07a8.25,8.25,0,0,0,2,0C20,39.61,20.45,39.58,20.9,39.58Z"/><path class="cls-1" d="M72.44,30.55c0,1.19-.91,2.25-1.11,3.37a19.57,19.57,0,0,1-.59,3.38,19.37,19.37,0,0,1-1.38,3.16,19.15,19.15,0,0,1-2,2.83c-.75.89-1.07,2.26-2,3s-2.49.49-3.5,1.08a22.46,22.46,0,0,1-6.23,2.93c-1.12.2-2.3-.23-3.48-.23a20.08,20.08,0,0,1-3.46.05,19.87,19.87,0,0,1-3.39-.76,19.7,19.7,0,0,1-2.93-1.88c-1-.58-2.26-.79-3.15-1.53a21.12,21.12,0,0,1-2.65-2.34c-.74-.89-.73-2.31-1.31-3.32a18.9,18.9,0,0,1-1.55-3A20.06,20.06,0,0,1,32.92,34c-.19-1.13-1.12-2.21-1.12-3.4s1-2.26,1.2-3.39a19.37,19.37,0,0,1,.42-3.45,20.62,20.62,0,0,1,1.24-3.29,22.13,22.13,0,0,1,1.84-3c.75-.89,2.09-1.24,3-2a19,19,0,0,1,3-1.7c1-.58,1.64-2,2.74-2.38a20.79,20.79,0,0,1,3.47-.76c1.13-.2,2.34.24,3.53.24a20,20,0,0,1,3.47.1A19.47,19.47,0,0,1,58.94,12c1.1.41,2.39.4,3.39,1s1.5,1.87,2.39,2.62a18.74,18.74,0,0,1,2.7,2.15,19.23,19.23,0,0,1,1.69,3c.58,1,1.9,1.67,2.3,2.77a19.86,19.86,0,0,1,1,3.43A21.1,21.1,0,0,1,72.44,30.55Z"/><path class="cls-2" d="M55.05,50.86a10.17,10.17,0,0,1-1.47-.14A11.61,11.61,0,0,0,51,50.64a9.32,9.32,0,0,1-2.3,0l-.44-.08a17,17,0,0,1-3-.71,7.71,7.71,0,0,1-1.94-1.17,9.93,9.93,0,0,0-1.07-.75,8.41,8.41,0,0,0-1.25-.55,7,7,0,0,1-2-1l-.71-.58a12.75,12.75,0,0,1-2-1.82,5,5,0,0,1-.88-2,5.8,5.8,0,0,0-.48-1.37l-.13-.22a18.3,18.3,0,0,1-1.46-2.9A20.31,20.31,0,0,1,32.43,34a5.77,5.77,0,0,0-.49-1.34,5.17,5.17,0,0,1-.64-2.15A4.9,4.9,0,0,1,32,28.41a5.21,5.21,0,0,0,.52-1.33,9.54,9.54,0,0,0,.12-1.34,7,7,0,0,1,.33-2.2c.12-.33.22-.66.33-1a12.62,12.62,0,0,1,.95-2.37l.48-.86a12.85,12.85,0,0,1,1.41-2.25,5.84,5.84,0,0,1,1.82-1.3A7.46,7.46,0,0,0,39.16,15a9.62,9.62,0,0,1,2-1.22c.35-.17.69-.34,1-.54a4.73,4.73,0,0,0,1.08-1A4.56,4.56,0,0,1,45,10.84a17.31,17.31,0,0,1,3-.68l.6-.1a6.9,6.9,0,0,1,2.22.09,12.56,12.56,0,0,0,2.26.12,15.08,15.08,0,0,1,2.68.12,11.36,11.36,0,0,1,2.39.79c.32.13.64.27,1,.38a8.75,8.75,0,0,0,1.34.34,6.55,6.55,0,0,1,2.13.68,5.36,5.36,0,0,1,1.54,1.57A6,6,0,0,0,65,15.24c.33.27.67.51,1,.75a8.34,8.34,0,0,1,1.76,1.47,8.69,8.69,0,0,1,1.18,2c.18.36.35.73.55,1.08a5.1,5.1,0,0,0,1,1.08,4.73,4.73,0,0,1,1.36,1.77,21.63,21.63,0,0,1,1,3.51A12.76,12.76,0,0,1,73,29.45c0,.37,0,.74,0,1.1a5.11,5.11,0,0,1-.63,2.14A5.94,5.94,0,0,0,71.82,34c-.07.38-.11.76-.15,1.13a10.12,10.12,0,0,1-.46,2.33,19.91,19.91,0,0,1-1.41,3.24,20,20,0,0,1-2,2.9A6.18,6.18,0,0,0,67,44.85a5.87,5.87,0,0,1-1.28,1.83,4.16,4.16,0,0,1-2.12.74,4.51,4.51,0,0,0-1.46.39c-.31.18-.61.38-.91.57a10.44,10.44,0,0,1-2.14,1.16c-.37.14-.74.3-1.1.47a9.15,9.15,0,0,1-2.24.79A3.5,3.5,0,0,1,55.05,50.86ZM52.2,49.58a9.43,9.43,0,0,1,1.52.15,6.06,6.06,0,0,0,1.88.09,8.23,8.23,0,0,0,2-.72c.39-.18.78-.35,1.18-.5a9.44,9.44,0,0,0,1.94-1.06l.95-.59a5.05,5.05,0,0,1,1.8-.52,3.53,3.53,0,0,0,1.63-.51,5,5,0,0,0,1-1.53A7.41,7.41,0,0,1,67,43a19.43,19.43,0,0,0,1.93-2.76,19.43,19.43,0,0,0,1.34-3.08,9.08,9.08,0,0,0,.4-2.1c0-.4.1-.79.17-1.19a6.12,6.12,0,0,1,.56-1.57,4.28,4.28,0,0,0,.54-1.72c0-.38,0-.76,0-1.15a11.18,11.18,0,0,0-.06-2.33,20,20,0,0,0-1-3.34,4,4,0,0,0-1.11-1.38A6.22,6.22,0,0,1,68.68,21c-.22-.37-.4-.76-.59-1.14a8,8,0,0,0-1-1.8,7.6,7.6,0,0,0-1.56-1.29c-.36-.26-.73-.51-1.08-.8a6.85,6.85,0,0,1-1.09-1.26,4.58,4.58,0,0,0-1.23-1.31,5.94,5.94,0,0,0-1.83-.56,9.75,9.75,0,0,1-1.48-.38c-.34-.12-.68-.26-1-.4a10.71,10.71,0,0,0-2.18-.72,13.56,13.56,0,0,0-2.49-.11,15.11,15.11,0,0,1-2.43-.13,6.2,6.2,0,0,0-1.9-.1l-.61.11a16.11,16.11,0,0,0-2.78.63A3.73,3.73,0,0,0,44,12.91a5.81,5.81,0,0,1-1.32,1.21c-.36.21-.73.39-1.1.57a9.11,9.11,0,0,0-1.82,1.08,7.19,7.19,0,0,1-1.39.87,5,5,0,0,0-1.52,1.06,11.78,11.78,0,0,0-1.3,2.08c-.16.3-.33.61-.49.89a11.14,11.14,0,0,0-.87,2.18c-.11.35-.22.69-.34,1a6.44,6.44,0,0,0-.27,1.91,10.69,10.69,0,0,1-.13,1.46,6,6,0,0,1-.62,1.61,4.08,4.08,0,0,0-.57,1.69,4.49,4.49,0,0,0,.54,1.73,6.53,6.53,0,0,1,.58,1.58,18.26,18.26,0,0,0,.81,3.23,18,18,0,0,0,1.38,2.74l.13.22a6.78,6.78,0,0,1,.59,1.61A4.29,4.29,0,0,0,37,43.3,12.92,12.92,0,0,0,38.86,45l.73.59a5.72,5.72,0,0,0,1.69.86,10.1,10.1,0,0,1,1.39.63,11,11,0,0,1,1.17.81,6.62,6.62,0,0,0,1.68,1,16.83,16.83,0,0,0,2.86.67l.45.07a8.25,8.25,0,0,0,2.05,0C51.32,49.61,51.75,49.58,52.2,49.58Z"/><path class="cls-1" d="M48.8,52.61c0,1.06-.89,2-1,3a19,19,0,0,1-.42,3.05,19.72,19.72,0,0,1-1.1,2.9,19.53,19.53,0,0,1-1.63,2.66c-.61.84-.76,2.14-1.5,2.88s-2.27.57-3.11,1.19a20.14,20.14,0,0,1-2.48,1.84,19.29,19.29,0,0,1-2.74,1.52c-1,.32-2.1,0-3.15.21a19.56,19.56,0,0,1-3.05.59,20.4,20.4,0,0,1-3.14-.1,20.86,20.86,0,0,1-2.91-1.18c-1-.33-2.16-.21-3.09-.68a21,21,0,0,1-2.82-1.48c-.84-.61-1.09-1.92-1.83-2.66a18.51,18.51,0,0,1-2.08-2.26,17.5,17.5,0,0,1-1.57-2.64c-.48-.93-1.64-1.58-2-2.58s.31-2.21.15-3.25a19.91,19.91,0,0,1-.73-3,21,21,0,0,1,0-3.17,20.55,20.55,0,0,1,.51-3.17c.32-1,1.38-1.72,1.85-2.65a19.37,19.37,0,0,1,1.89-2.46c.61-.85.53-2.29,1.27-3a20.13,20.13,0,0,1,2.54-2c.85-.62,2-.71,3-1.19a20.33,20.33,0,0,1,2.81-1.38,19.37,19.37,0,0,1,3.08-.46c1-.16,2-.8,3.09-.8s2,.85,3.05,1a19.61,19.61,0,0,1,3.09.34,19,19,0,0,1,2.72,1.51c.94.47,2.31.24,3.15.86a20.24,20.24,0,0,1,2.49,2c.74.74.6,2.23,1.22,3.08A19.84,19.84,0,0,1,46,43.75a19.16,19.16,0,0,1,1.32,2.78,19.85,19.85,0,0,1,.86,3A20.22,20.22,0,0,1,48.8,52.61Z"/><path class="cls-2" d="M27.26,73a12.12,12.12,0,0,1-1.9-.12,6.41,6.41,0,0,1-1.88-.7,9.45,9.45,0,0,0-1.11-.49,6.92,6.92,0,0,0-1.25-.24A5.38,5.38,0,0,1,19.21,71l-.87-.41a12,12,0,0,1-2-1.1,4.4,4.4,0,0,1-1.19-1.61,4.54,4.54,0,0,0-.71-1.1l-.33-.33a17.1,17.1,0,0,1-1.8-2,20.44,20.44,0,0,1-1.61-2.71,4.65,4.65,0,0,0-.83-1,4.34,4.34,0,0,1-1.16-1.64,4.19,4.19,0,0,1,0-2,3.9,3.9,0,0,0,.1-1.33,7.93,7.93,0,0,0-.31-1.18,6,6,0,0,1-.42-2c0-.36,0-.72,0-1.08a10.5,10.5,0,0,1,0-2.17c.06-.33.09-.67.13-1a11.09,11.09,0,0,1,.4-2.23,5.17,5.17,0,0,1,1.11-1.69,5.43,5.43,0,0,0,.78-1,8.24,8.24,0,0,1,1.21-1.66c.25-.28.49-.56.71-.86a4,4,0,0,0,.48-1.26,3.77,3.77,0,0,1,.85-1.83,15,15,0,0,1,2-1.57l.62-.44A5.94,5.94,0,0,1,18.17,35a7.67,7.67,0,0,0,1.2-.43l.79-.43a11.68,11.68,0,0,1,2.08-1,9.14,9.14,0,0,1,2.11-.36c.35,0,.7-.07,1.06-.13a6.59,6.59,0,0,0,1.19-.35,5.9,5.9,0,0,1,2-.45,4.56,4.56,0,0,1,1.92.57,4.69,4.69,0,0,0,1.2.45,11.46,11.46,0,0,0,1.2.09,7,7,0,0,1,2,.26,8.46,8.46,0,0,1,1.82,1,9.79,9.79,0,0,0,1,.59,4.28,4.28,0,0,0,1.3.31,4,4,0,0,1,1.92.59,21,21,0,0,1,2.54,2.09,3.61,3.61,0,0,1,.82,1.87,3.93,3.93,0,0,0,.45,1.27,19,19,0,0,1,1.71,2.63c.12.22.24.44.35.66a12.5,12.5,0,0,1,1,2.19L48,47a14,14,0,0,1,.66,2.43,9.82,9.82,0,0,0,.29,1.16,7,7,0,0,1,.38,2,4.36,4.36,0,0,1-.59,1.91,4.39,4.39,0,0,0-.46,1.2c-.06.38-.09.74-.12,1.11a8.59,8.59,0,0,1-.33,2l-.06.2a19.34,19.34,0,0,1-1.07,2.77A20.15,20.15,0,0,1,45,64.55a5.73,5.73,0,0,0-.58,1.19,4.9,4.9,0,0,1-1,1.76,3.65,3.65,0,0,1-1.9.8,3.5,3.5,0,0,0-1.28.43c-.29.21-.56.44-.83.67a9,9,0,0,1-1.71,1.21c-.34.18-.66.39-1,.6a8,8,0,0,1-1.83,1,5.88,5.88,0,0,1-2,.18,7.57,7.57,0,0,0-1.27,0c-.37.06-.74.16-1.11.25a7.76,7.76,0,0,1-2,.35H27.26Zm1.31-40.15a5,5,0,0,0-1.63.39,7.07,7.07,0,0,1-1.38.4c-.37.06-.75.1-1.12.13a9.32,9.32,0,0,0-1.89.32,11.8,11.8,0,0,0-1.91.9c-.27.16-.54.31-.82.45a8.93,8.93,0,0,1-1.36.5,5.07,5.07,0,0,0-1.53.64l-.64.45a14.17,14.17,0,0,0-1.84,1.45,3,3,0,0,0-.59,1.39,4.79,4.79,0,0,1-.64,1.59c-.24.32-.5.63-.76.93a7.34,7.34,0,0,0-1.08,1.46,6.23,6.23,0,0,1-.92,1.24,4.2,4.2,0,0,0-.91,1.34,10.33,10.33,0,0,0-.36,2c0,.35-.07.71-.13,1.06a9,9,0,0,0,0,1.95c0,.38,0,.76,0,1.14a5.3,5.3,0,0,0,.37,1.64,8.38,8.38,0,0,1,.35,1.33,5.21,5.21,0,0,1-.1,1.67,3.28,3.28,0,0,0-.06,1.51A3.69,3.69,0,0,0,10.57,60a5.24,5.24,0,0,1,1,1.25,18.72,18.72,0,0,0,1.53,2.58,14.86,14.86,0,0,0,1.69,1.86l.34.34A5.45,5.45,0,0,1,16,67.39a3.63,3.63,0,0,0,.89,1.26,10.48,10.48,0,0,0,1.85,1c.3.14.61.28.9.43a5,5,0,0,0,1.58.38,7.47,7.47,0,0,1,1.44.28,8.15,8.15,0,0,1,1.24.54,5.48,5.48,0,0,0,1.59.61,14.43,14.43,0,0,0,2.39.1h.67a6.86,6.86,0,0,0,1.76-.31c.4-.11.81-.21,1.22-.28A8.75,8.75,0,0,1,33,71.35a5.25,5.25,0,0,0,1.62-.13,7.29,7.29,0,0,0,1.6-.85,11.89,11.89,0,0,1,1.08-.65,8.18,8.18,0,0,0,1.52-1.09c.28-.24.57-.48.88-.71a4.2,4.2,0,0,1,1.66-.6,2.91,2.91,0,0,0,1.4-.53,4,4,0,0,0,.75-1.41A6.46,6.46,0,0,1,44.2,64a19.12,19.12,0,0,0,1.58-2.58,17.92,17.92,0,0,0,1-2.63l.06-.2a7.52,7.52,0,0,0,.28-1.8c0-.39.06-.78.13-1.18a5.24,5.24,0,0,1,.55-1.49,3.6,3.6,0,0,0,.49-1.47A6.16,6.16,0,0,0,48,50.87a11,11,0,0,1-.32-1.29A13.07,13.07,0,0,0,47,47.32l-.22-.64a11.89,11.89,0,0,0-.93-2L45.51,44a17.86,17.86,0,0,0-1.57-2.42,4.35,4.35,0,0,1-.67-1.7,2.87,2.87,0,0,0-.55-1.39,21.18,21.18,0,0,0-2.43-2,3.4,3.4,0,0,0-1.47-.41,5,5,0,0,1-1.61-.41c-.37-.19-.72-.41-1.07-.63a7.11,7.11,0,0,0-1.58-.84A5.89,5.89,0,0,0,32.85,34a11.77,11.77,0,0,1-1.31-.11,5.36,5.36,0,0,1-1.47-.52A3.74,3.74,0,0,0,28.57,32.85Z"/><path class="cls-3" d="M31.75,63.43c0,.82.25,2-.3,2.52a4,4,0,0,1-2.52.8c-.83,0-2.2,0-2.75-.58a5.41,5.41,0,0,1-1.47-2.74,5.85,5.85,0,0,1,1.22-3c.54-.54,2.17.48,3,.48a2.44,2.44,0,0,1,2,.53A2.65,2.65,0,0,1,31.75,63.43Z"/><path class="cls-2" d="M28.93,67.25c-1.18,0-2.46-.09-3.1-.73a5.77,5.77,0,0,1-1.62-3.09,6.24,6.24,0,0,1,1.37-3.35c.55-.56,1.44-.25,2.31.05a4.17,4.17,0,0,0,1.13.28,2.82,2.82,0,0,1,2.25.67,3.13,3.13,0,0,1,1,2.35c0,.18,0,.38,0,.58a2.9,2.9,0,0,1-.46,2.29A4.37,4.37,0,0,1,28.93,67.25Zm-2.54-6.49a.18.18,0,0,0-.11,0,5.37,5.37,0,0,0-1.07,2.64,5,5,0,0,0,1.33,2.39,4,4,0,0,0,2.39.43,3.54,3.54,0,0,0,2.17-.65c.26-.26.21-1,.17-1.52,0-.23,0-.45,0-.65a2.13,2.13,0,0,0-.69-1.64c-.36-.36-.74-.39-1.55-.38a4.48,4.48,0,0,1-1.45-.33A5,5,0,0,0,26.39,60.76Z"/><path class="cls-3" d="M20.8,48.7c.52.36,1.41.63,1.39,1.39A6.4,6.4,0,0,1,21,52.84a7.6,7.6,0,0,1-2.2,2.35c-.7.27-2.18.55-2.7.19A3.88,3.88,0,0,1,15,52.89c0-.75,1.75-1.84,2.3-2.63A4,4,0,0,1,19,48.6,1.79,1.79,0,0,1,20.8,48.7Z"/><path class="cls-2" d="M16.92,56.05a2,2,0,0,1-1.1-.26,4.23,4.23,0,0,1-1.28-2.91c0-.68.72-1.31,1.47-2a7.9,7.9,0,0,0,.92-.92,4.38,4.38,0,0,1,1.89-1.84,2.26,2.26,0,0,1,2.27.15h0a3.28,3.28,0,0,0,.37.22c.53.3,1.26.71,1.23,1.59a6.91,6.91,0,0,1-1.27,3A7.43,7.43,0,0,1,19,55.65,6.5,6.5,0,0,1,16.92,56.05Zm3-7.14a1.93,1.93,0,0,0-.72.16c-.54.21-.87.68-1.37,1.4a7.76,7.76,0,0,1-1.13,1.17c-.4.36-1.14,1-1.14,1.27A3.48,3.48,0,0,0,16.39,55a4,4,0,0,0,2.24-.25,6.9,6.9,0,0,0,2-2.17,5.9,5.9,0,0,0,1.09-2.48c0-.25-.27-.43-.73-.69l-.45-.27h0A1,1,0,0,0,19.9,48.91Z"/><path class="cls-3" d="M41.33,56.37c0,.45.31,1.06.1,1.43a3.16,3.16,0,0,1-1.13.91c-.37.21-.9.72-1.36.72a4.21,4.21,0,0,1-1.64-.22A4.42,4.42,0,0,1,36.09,58c-.21-.37.67-1.2.67-1.65a2.21,2.21,0,0,1,.12-1.19c.22-.38.19-1.19.57-1.41s1,.19,1.49.19,1.13-.39,1.49-.17a3.36,3.36,0,0,1,1,1.12C41.67,55.28,41.33,55.91,41.33,56.37Z"/><path class="cls-2" d="M38.94,59.93a4.16,4.16,0,0,1-1.89-.29,4.66,4.66,0,0,1-1.39-1.37c-.27-.47,0-1,.32-1.41a2.71,2.71,0,0,0,.28-.51c0-.08,0-.18,0-.27a1.92,1.92,0,0,1,.2-1.16,1.51,1.51,0,0,0,.12-.43,1.6,1.6,0,0,1,.63-1.15,1.63,1.63,0,0,1,1.28,0,2.27,2.27,0,0,0,.46.11,2.21,2.21,0,0,0,.47-.1,1.67,1.67,0,0,1,1.28,0,4.13,4.13,0,0,1,1.2,1.31,1.62,1.62,0,0,1,0,1.26,2.14,2.14,0,0,0-.08.45,2.08,2.08,0,0,0,.07.44,1.67,1.67,0,0,1,0,1.24,3.45,3.45,0,0,1-1.31,1.09l-.31.21A2.38,2.38,0,0,1,38.94,59.93Zm-2.37-2.09a4.15,4.15,0,0,0,1,.94,3.44,3.44,0,0,0,1.39.15,1.91,1.91,0,0,0,.72-.39l.39-.26a3,3,0,0,0,1-.73,1.82,1.82,0,0,0-.07-.52,3,3,0,0,1-.1-.66,2.76,2.76,0,0,1,.11-.7,1.55,1.55,0,0,0,.08-.51,3,3,0,0,0-.83-.94,2.19,2.19,0,0,0-.52.1,2.72,2.72,0,0,1-1.47,0,2.11,2.11,0,0,0-.52-.11,4.21,4.21,0,0,0-.13.5,2.35,2.35,0,0,1-.24.72,1.05,1.05,0,0,0-.06.6c0,.11,0,.22,0,.34a2.08,2.08,0,0,1-.43,1C36.75,57.52,36.62,57.73,36.57,57.84Z"/><path class="cls-3" d="M35.17,43.62c0,.58.21,1.28-.06,1.75a3.76,3.76,0,0,1-1.36,1.17,3.93,3.93,0,0,1-1.68.75A4.51,4.51,0,0,1,30.14,47a4.66,4.66,0,0,1-1.42-1.41c-.28-.47.4-1.35.4-1.93a2.87,2.87,0,0,1,.26-1.56c.28-.48.39-1.29.88-1.57s1.22,0,1.81,0,1.33-.27,1.8,0a4,4,0,0,1,1.26,1.35C35.4,42.32,35.17,43,35.17,43.62Z"/><path class="cls-2" d="M32.07,47.79a4.92,4.92,0,0,1-2.18-.4,5.09,5.09,0,0,1-1.61-1.59,1.8,1.8,0,0,1,.14-1.54,2.51,2.51,0,0,0,.2-.64v-.11a3.19,3.19,0,0,1,.32-1.7,2.78,2.78,0,0,0,.21-.49A2.28,2.28,0,0,1,30,40.05a2.3,2.3,0,0,1,1.51-.12,3.62,3.62,0,0,0,1.09,0,2.38,2.38,0,0,1,1.51.13,4.36,4.36,0,0,1,1.44,1.54,2.28,2.28,0,0,1,.15,1.5,4.73,4.73,0,0,0,0,.52,4.22,4.22,0,0,0,0,.49,2.46,2.46,0,0,1-.17,1.51A4,4,0,0,1,34,47l-.28.17A3.32,3.32,0,0,1,32.07,47.79ZM30.8,40.86a.6.6,0,0,0-.29.06c-.17.1-.3.45-.42.75a5.56,5.56,0,0,1-.28.64,2.32,2.32,0,0,0-.19,1.2v.11a2.87,2.87,0,0,1-.27,1,2.07,2.07,0,0,0-.2.68,4.21,4.21,0,0,0,1.24,1.21,3.88,3.88,0,0,0,1.68.27,2.75,2.75,0,0,0,1.14-.5l.29-.18a3.21,3.21,0,0,0,1.17-1,1.77,1.77,0,0,0,0-.91c0-.2,0-.4,0-.59s0-.42,0-.64a1.79,1.79,0,0,0,0-.88,3.52,3.52,0,0,0-1.08-1.17,1.72,1.72,0,0,0-.88,0,4.77,4.77,0,0,1-1.36,0A4.23,4.23,0,0,0,30.8,40.86Z"/><path class="cls-3" d="M20.26,29.5c-.49.66-1.26.41-2,.53s-1.55,1-2.21.48-1.76-1.33-1.87-2.09a5.38,5.38,0,0,1,.43-3.09,5.92,5.92,0,0,1,2.76-1.69c.76-.12.84,1.85,1.51,2.34s1.8.66,1.91,1.42A2.65,2.65,0,0,1,20.26,29.5Z"/><path class="cls-2" d="M16.47,31.16a1.24,1.24,0,0,1-.74-.25c-1-.69-1.93-1.52-2.07-2.42A5.74,5.74,0,0,1,14.19,25a6.25,6.25,0,0,1,3.08-1.89c.83-.14,1.15.75,1.41,1.46a2.64,2.64,0,0,0,.48,1,4.26,4.26,0,0,0,.68.36c.58.28,1.31.62,1.43,1.39a3.14,3.14,0,0,1-.6,2.46h0a2,2,0,0,1-1.77.7,3.76,3.76,0,0,0-.58,0,2.73,2.73,0,0,0-.68.27A2.65,2.65,0,0,1,16.47,31.16Zm.88-7A5.74,5.74,0,0,0,15,25.63a5.08,5.08,0,0,0-.34,2.71c.06.4.62,1,1.67,1.76.17.13.41,0,.88-.2a3.23,3.23,0,0,1,1-.36,4.24,4.24,0,0,1,.71-.05c.56,0,.79,0,1-.29h0a2.16,2.16,0,0,0,.42-1.72c0-.24-.44-.43-.86-.63a5.16,5.16,0,0,1-.86-.47A3,3,0,0,1,17.74,25,2.68,2.68,0,0,0,17.35,24.12Z"/><path class="cls-3" d="M17,11.26c.2.6.76,1.35.3,1.94S16,15.41,15,15.72s-2.38-.8-3.11-1-3,.15-3.2-.45.66-2.45,1.12-3,2.56-.2,3.48-.51,1.52-.8,2.25-.6A1.76,1.76,0,0,1,17,11.26Z"/><path class="cls-2" d="M14.69,16.27a5,5,0,0,1-2.09-.7,5.36,5.36,0,0,0-.8-.36,6.54,6.54,0,0,0-1.09-.05c-1.15,0-2.2,0-2.45-.72-.3-.9.77-3,1.2-3.52s1.34-.54,2.31-.56a5.4,5.4,0,0,0,1.39-.11c.26-.09.5-.19.72-.29a2.68,2.68,0,0,1,1.83-.33,2.29,2.29,0,0,1,1.74,1.47h0l.17.39a1.86,1.86,0,0,1,.05,2c-.1.13-.22.31-.36.52-.53.79-1.25,1.87-2.12,2.16A1.42,1.42,0,0,1,14.69,16.27Zm-3.85-2.11a5.27,5.27,0,0,1,1.22.09,5.49,5.49,0,0,1,1,.43c.59.3,1.41.71,1.83.57s1.2-1.18,1.6-1.78c.16-.23.29-.43.4-.57s0-.52-.17-1a3.78,3.78,0,0,1-.2-.48h0c-.1-.3-.3-.62-1.06-.82-.32-.09-.64,0-1.17.28-.24.1-.51.22-.8.32a5.78,5.78,0,0,1-1.7.16,4.25,4.25,0,0,0-1.54.18,6.37,6.37,0,0,0-1,2.52,6.71,6.71,0,0,0,1.5.1Z"/><path class="cls-3" d="M30.92,15.94c-.34.47-.22,1.81-.72,2a8.81,8.81,0,0,1-2.52,1c-.54-.06-1.33-1.23-1.8-1.58a4.54,4.54,0,0,1-1-1.73,4.77,4.77,0,0,1-.31-2c.06-.55,1.12-.85,1.47-1.33a3,3,0,0,1,1.12-1.1c.52-.22,1.09-.81,1.65-.75s1,.73,1.46,1.07,1.23.58,1.44,1.08a3.91,3.91,0,0,1,.23,1.83C31.88,15,31.27,15.46,30.92,15.94Z"/><path class="cls-2" d="M27.74,19.46h-.11c-.54-.06-1-.61-1.51-1.13a4.5,4.5,0,0,0-.54-.54,4,4,0,0,1-1-1.68l-.11-.26a5.06,5.06,0,0,1-.36-2.23c.06-.56.57-.88,1-1.16a2.36,2.36,0,0,0,.54-.4L25.7,12A3.08,3.08,0,0,1,27,10.79a2.55,2.55,0,0,0,.47-.27A2.21,2.21,0,0,1,28.86,10a2.27,2.27,0,0,1,1.29.79,3.42,3.42,0,0,0,.41.37,4.17,4.17,0,0,0,.47.28,2.27,2.27,0,0,1,1.14,1,4.45,4.45,0,0,1,.26,2.09,2.38,2.38,0,0,1-.77,1.3c-.12.13-.24.26-.34.39h0a2.85,2.85,0,0,0-.18.73c-.1.58-.21,1.23-.74,1.47l-.46.22A6.05,6.05,0,0,1,27.74,19.46Zm1-8.46a1.84,1.84,0,0,0-.76.36,3.85,3.85,0,0,1-.6.35,2.29,2.29,0,0,0-.87.86l-.06.08a2.93,2.93,0,0,1-.81.66,2.21,2.21,0,0,0-.57.43,4.42,4.42,0,0,0,.28,1.71l.12.28A3.43,3.43,0,0,0,26.18,17a6,6,0,0,1,.68.67,3.67,3.67,0,0,0,.88.81,8.72,8.72,0,0,0,1.75-.7l.51-.25a5.06,5.06,0,0,0,.15-.72,2.89,2.89,0,0,1,.37-1.15h0a5.82,5.82,0,0,1,.41-.48c.24-.26.49-.52.51-.73a3.57,3.57,0,0,0-.18-1.58c-.08-.18-.42-.36-.71-.52S30.14,12.1,30,12a5.29,5.29,0,0,1-.51-.46c-.24-.23-.51-.5-.7-.52Zm2.19,4.94h0Z"/><path class="cls-3" d="M45.66,22.7c.52.37,1.41.64,1.39,1.39s.55,3.09,0,3.88-2.67,1-3.38,1.22-2.18.56-2.71.19A3.87,3.87,0,0,1,39.9,26.9c0-.76,1.75-1.85,2.3-2.64s.69-1.9,1.39-2.17S45.14,22.33,45.66,22.7Z"/><path class="cls-2" d="M41.78,30.05a2,2,0,0,1-1.1-.26,4.23,4.23,0,0,1-1.28-2.91c0-.68.72-1.31,1.47-2a7.9,7.9,0,0,0,.92-.92,4.85,4.85,0,0,0,.45-.88,2.47,2.47,0,0,1,1.17-1.48,2.87,2.87,0,0,1,2.54.67,2.58,2.58,0,0,0,.37.22c.53.3,1.26.72,1.23,1.6a9.29,9.29,0,0,0,.09.93c.18,1.42.28,2.56-.18,3.21s-1.74,1-2.74,1.19a8.24,8.24,0,0,0-.87.22A6.4,6.4,0,0,1,41.78,30.05ZM44,22.51a.61.61,0,0,0-.24,0c-.25.1-.43.51-.62.95a5.56,5.56,0,0,1-.55,1.05,7.86,7.86,0,0,1-1.08,1.1c-.39.35-1.13,1-1.13,1.26A3.45,3.45,0,0,0,41.25,29a3.94,3.94,0,0,0,2.24-.24,7.26,7.26,0,0,1,1-.27c.7-.14,1.86-.39,2.13-.78a5.66,5.66,0,0,0,0-2.51,7.5,7.5,0,0,1-.1-1.09c0-.26-.27-.44-.73-.7l-.45-.27A2.87,2.87,0,0,0,44,22.51Z"/><path class="cls-3" d="M61.36,39.07a3.77,3.77,0,0,1-.67,1.47c-.22.38-.23,1.26-.61,1.48a5.45,5.45,0,0,1-1.87.15c-.46,0-1.5.78-1.86.57s-.78-1.6-1-2,0-1.17,0-1.62a3.48,3.48,0,0,1,.23-1.5,3.87,3.87,0,0,1,1.16-1.12A3,3,0,0,1,58.06,36a4.34,4.34,0,0,1,1.64.57,4.84,4.84,0,0,1,1.66,2.54Z"/><path class="cls-2" d="M56.5,43.27a.79.79,0,0,1-.4-.1c-.38-.22-.62-.78-.94-1.6a5.1,5.1,0,0,0-.24-.56,2.51,2.51,0,0,1-.13-1.45,3.44,3.44,0,0,0,0-.42,3.73,3.73,0,0,1,.3-1.75,4.29,4.29,0,0,1,1.34-1.31L56.6,36a3.06,3.06,0,0,1,1.46-.54,5,5,0,0,1,1.89.63,4.06,4.06,0,0,1,1.21,1.31l.13.22a3.06,3.06,0,0,1,.57,1.45,3.33,3.33,0,0,1-.61,1.52l-.12.2a3.11,3.11,0,0,0-.15.46,1.74,1.74,0,0,1-.65,1.2,4.33,4.33,0,0,1-1.89.23h-.23a3.85,3.85,0,0,0-.59.24A2.85,2.85,0,0,1,56.5,43.27Zm1.56-6.81a2.4,2.4,0,0,0-1,.4L57,37a3.53,3.53,0,0,0-1,.94,3.47,3.47,0,0,0-.16,1.25c0,.14,0,.32,0,.52a2.41,2.41,0,0,0,0,.85c.08.14.18.4.3.69a6.14,6.14,0,0,0,.48,1.06,4.23,4.23,0,0,0,.62-.25,2.72,2.72,0,0,1,1-.34h.25a5,5,0,0,0,1.37-.1A2.13,2.13,0,0,0,60,41a3.22,3.22,0,0,1,.25-.72l.14-.22a3.15,3.15,0,0,0,.46-1,2.61,2.61,0,0,0-.42-.93l-.15-.23a2.9,2.9,0,0,0-.84-.95A4.06,4.06,0,0,0,58.06,36.46Z"/><path class="cls-3" d="M63.82,24.74c0,.67.24,1.46-.07,2a4.32,4.32,0,0,1-1.54,1.33,4.49,4.49,0,0,1-1.93.86,4.94,4.94,0,0,1-2.19-.39c-.56-.32.18-1.64-.14-2.2s-1-.93-1-1.6A3.35,3.35,0,0,1,57.22,23c.32-.55.45-1.47,1-1.8s1.54.6,2.21.6,1.37-.89,1.91-.58a4.59,4.59,0,0,1,1.44,1.53C64.09,23.26,63.82,24.08,63.82,24.74Z"/><path class="cls-2" d="M60.28,29.43A5.54,5.54,0,0,1,57.84,29c-.61-.35-.48-1.11-.38-1.66a1.92,1.92,0,0,0,0-.73,2.68,2.68,0,0,0-.36-.44,2.1,2.1,0,0,1-.72-1.41v-.11a3.55,3.55,0,0,1,.36-1.91,3.76,3.76,0,0,0,.24-.57A2.54,2.54,0,0,1,58,20.74c.54-.31,1.16,0,1.7.24a2.3,2.3,0,0,0,.76.29,1.67,1.67,0,0,0,.63-.28,1.52,1.52,0,0,1,1.53-.24,5.05,5.05,0,0,1,1.62,1.72,2.6,2.6,0,0,1,.16,1.67c0,.21-.05.41-.05.6a5.66,5.66,0,0,0,0,.57A2.7,2.7,0,0,1,64.18,27a4.54,4.54,0,0,1-1.72,1.52l-.31.18A3.75,3.75,0,0,1,60.28,29.43ZM58.5,21.61h0c-.21.12-.36.53-.5.89a5.36,5.36,0,0,1-.32.72,2.78,2.78,0,0,0-.22,1.4v.12c0,.22.17.42.45.73a3.77,3.77,0,0,1,.5.62,2,2,0,0,1,.06,1.4,2.52,2.52,0,0,0-.06.67,5.17,5.17,0,0,0,1.9.27,3.14,3.14,0,0,0,1.34-.59l.34-.2a3.6,3.6,0,0,0,1.35-1.15,2.06,2.06,0,0,0,.06-1.08c0-.23,0-.45,0-.67a5.83,5.83,0,0,1,.06-.71,1.92,1.92,0,0,0,0-1.06,4,4,0,0,0-1.25-1.35,1.79,1.79,0,0,0-.53.24,2.34,2.34,0,0,1-1.13.41,3,3,0,0,1-1.19-.38A2.88,2.88,0,0,0,58.5,21.61Z"/><circle class="cls-2" cx="47" cy="34.14" r="1"/><circle class="cls-2" cx="50.12" cy="40.36" r="1"/><circle class="cls-2" cx="52.82" cy="23.63" r="1"/><circle class="cls-2" cx="57.93" cy="16.49" r="1"/><path class="cls-2" d="M47.52,18.21a1,1,0,1,1-1-1A1,1,0,0,1,47.52,18.21Z"/><circle class="cls-2" cx="27.26" cy="27.87" r="1"/><circle class="cls-2" cx="26.26" cy="37.59" r="1"/><circle class="cls-2" cx="17.46" cy="43.83" r="1"/><circle class="cls-2" cx="25.26" cy="46.89" r="1"/><circle class="cls-2" cx="40.53" cy="44.83" r="1"/><circle class="cls-2" cx="44.31" cy="52.98" r="1"/><circle class="cls-2" cx="33.39" cy="51.43" r="1"/><circle class="cls-2" cx="24.26" cy="56.95" r="1"/><circle class="cls-2" cx="15.5" cy="60.13" r="1"/><circle class="cls-2" cx="21.32" cy="66.75" r="1"/><circle class="cls-2" cx="35.26" cy="63.78" r="1"/><circle class="cls-2" cx="41.92" cy="62.51" r="1"/><circle class="cls-2" cx="9.04" cy="28.15" r="1"/><circle class="cls-2" cx="6.62" cy="20.43" r="1"/><circle class="cls-2" cx="18.46" cy="4.83" r="1"/><circle class="cls-2" cx="26.9" cy="6.83" r="1"/><circle class="cls-2" cx="20.46" cy="20.01" r="1"/><circle class="cls-2" cx="65.6" cy="31.43" r="1"/><circle class="cls-2" cx="65.6" cy="38.36" r="1"/></g></g></svg>