<svg xmlns="http://www.w3.org/2000/svg" viewBox="0 0 73 73"><defs><style>.cls-1{fill:#edc16b;}.cls-2{fill:#1b3249;}.cls-3{fill:#f29e8c;}.cls-4{fill:#fff;}</style></defs><title>Asset 271</title><g id="Layer_2" data-name="Layer 2"><g id="_1" data-name="1"><path class="cls-1" d="M64.74,26a2,2,0,0,1-1.43-1.64,27,27,0,0,0-53.62,0A2,2,0,0,1,8.26,26,11,11,0,0,0,.5,36.5L8.78,68.78H64.45l8-32.28A11,11,0,0,0,64.74,26Z"/><path class="cls-2" d="M64.45,69.28H8.78a.49.49,0,0,1-.48-.38L0,36.62a.5.5,0,0,1,0-.12,11.42,11.42,0,0,1,8.12-11A1.49,1.49,0,0,0,9.19,24.3a27.5,27.5,0,0,1,54.62,0,1.49,1.49,0,0,0,1.07,1.22h0A11.42,11.42,0,0,1,73,36.5a.49.49,0,0,1,0,.12L64.93,68.9A.49.49,0,0,1,64.45,69.28Zm-55.28-1H64.06L72,36.44a10.45,10.45,0,0,0-7.41-10,2.49,2.49,0,0,1-1.78-2.06,26.49,26.49,0,0,0-52.62,0,2.49,2.49,0,0,1-1.78,2.06A10.45,10.45,0,0,0,1,36.44Z"/><path class="cls-3" d="M59.35,36.5a11.16,11.16,0,0,1-15.23,0,11.18,11.18,0,0,1-15.24,0,11.16,11.16,0,0,1-15.23,0A9,9,0,0,1,.5,36.5v.21L8.78,68.78a5.1,5.1,0,0,0,5,3.72l22.84-.07,22.83-.07a5.08,5.08,0,0,0,5-3.75l8-32.11A9,9,0,0,1,59.35,36.5Z"/><path class="cls-2" d="M13.78,73A5.57,5.57,0,0,1,8.3,68.9L0,36.84a.51.51,0,0,1,0-.13V36.5A.49.49,0,0,1,.31,36a.51.51,0,0,1,.55.11,8.5,8.5,0,0,0,12.43,0,.51.51,0,0,1,.71,0,10.68,10.68,0,0,0,14.54,0,.49.49,0,0,1,.69,0,10.68,10.68,0,0,0,14.54,0,.49.49,0,0,1,.69,0,10.68,10.68,0,0,0,14.54,0,.51.51,0,0,1,.71,0,8.5,8.5,0,0,0,12.43,0,.5.5,0,0,1,.6-.09.49.49,0,0,1,.24.56l-8,32.11a5.55,5.55,0,0,1-5.47,4.13L13.79,73ZM1.32,37.9,9.26,68.65A4.59,4.59,0,0,0,13.78,72h0l45.67-.14A4.56,4.56,0,0,0,64,68.49L71.62,38a9.5,9.5,0,0,1-12.29-.76,11.71,11.71,0,0,1-15.21,0,11.73,11.73,0,0,1-15.24,0,11.71,11.71,0,0,1-15.21,0,9.49,9.49,0,0,1-12.35.71Z"/><path class="cls-2" d="M19.58,73a.51.51,0,0,1-.5-.42L13.16,36.75a.5.5,0,0,1,.41-.57.51.51,0,0,1,.58.41L20,72l33.27-.09,5.58-35.42a.5.5,0,0,1,.57-.42.5.5,0,0,1,.42.57L54.19,72.46a.5.5,0,0,1-.49.42L19.58,73Z"/><path class="cls-2" d="M30.94,73a.5.5,0,0,1-.5-.47L28.39,36.66a.5.5,0,1,1,1-.06l2,35.35,10.43,0,1.78-35.36a.5.5,0,1,1,1,0l-1.8,35.83a.49.49,0,0,1-.5.47L30.94,73Z"/><path class="cls-4" d="M26.9,29a1,1,0,0,1-.3,0,1,1,0,0,1-.66-1.26l2-6.45a1,1,0,0,1,1.91.59l-2,6.46A1,1,0,0,1,26.9,29Z"/><path class="cls-4" d="M22.78,36.7a1,1,0,0,1-.9-.55l-3-6a1,1,0,0,1,1.79-.9l3,6a1,1,0,0,1-.45,1.34A1,1,0,0,1,22.78,36.7Z"/><path class="cls-4" d="M11.85,33.12a1,1,0,0,1-.54-.16,1,1,0,0,1-.3-1.39L14.65,26A1,1,0,0,1,16.33,27l-3.64,5.62A1,1,0,0,1,11.85,33.12Z"/><path class="cls-4" d="M42.31,33.91a1,1,0,0,1-.81-.41l-3.94-5.4a1,1,0,0,1,.22-1.4,1,1,0,0,1,1.4.22l3.94,5.4a1,1,0,0,1-.22,1.4A1,1,0,0,1,42.31,33.91Z"/><path class="cls-4" d="M57.64,26.31A1,1,0,0,1,57,26.1l-5.21-4a1,1,0,0,1-.19-1.4,1,1,0,0,1,1.41-.2l5.21,4a1,1,0,0,1,.19,1.4A1,1,0,0,1,57.64,26.31Z"/><path class="cls-4" d="M60.26,33.77a1.15,1.15,0,0,1-.36-.07l-6.09-2.41a1,1,0,1,1,.73-1.86l6.09,2.41a1,1,0,0,1-.37,1.93Z"/><path class="cls-4" d="M49,11.94a1,1,0,0,1-.73-.32L43.71,6.77A1,1,0,1,1,45.17,5.4l4.55,4.85a1,1,0,0,1,0,1.41A1,1,0,0,1,49,11.94Z"/><path class="cls-4" d="M39.42,22a1,1,0,0,1-.53-1.84l5.57-3.51a1,1,0,1,1,1.07,1.69L40,21.86A1,1,0,0,1,39.42,22Z"/><path class="cls-4" d="M34.68,11.31a1,1,0,0,1-.54-.15L28.59,7.59a1,1,0,0,1,1.08-1.68l5.55,3.56a1,1,0,0,1,.3,1.38A1,1,0,0,1,34.68,11.31Z"/><path class="cls-4" d="M23.14,20.1a1.06,1.06,0,0,1-.51-.14L17,16.63a1,1,0,0,1,1-1.72l5.66,3.33a1,1,0,0,1-.51,1.86Z"/><path class="cls-2" d="M50.08,27.75a1.39,1.39,0,1,1-1.38-1.38A1.38,1.38,0,0,1,50.08,27.75Z"/><path class="cls-2" d="M54.42,16.12A1.39,1.39,0,1,1,53,14.74,1.38,1.38,0,0,1,54.42,16.12Z"/><path class="cls-2" d="M42,11.85a1.39,1.39,0,1,1-1.39-1.38A1.39,1.39,0,0,1,42,11.85Z"/><path class="cls-2" d="M34.68,18.75a1.39,1.39,0,1,1-1.39-1.38A1.39,1.39,0,0,1,34.68,18.75Z"/><path class="cls-2" d="M27.15,12a1.39,1.39,0,1,1-1.39-1.38A1.39,1.39,0,0,1,27.15,12Z"/><path class="cls-2" d="M22.15,25a1.39,1.39,0,1,1-1.39-1.38A1.39,1.39,0,0,1,22.15,25Z"/><path class="cls-2" d="M34.42,33.55A1.39,1.39,0,1,1,33,32.17,1.38,1.38,0,0,1,34.42,33.55Z"/><path class="cls-2" d="M8.46,32.89A1.38,1.38,0,1,1,7.08,31.5,1.38,1.38,0,0,1,8.46,32.89Z"/><path class="cls-2" d="M66.23,32.35A1.39,1.39,0,1,1,64.85,31,1.38,1.38,0,0,1,66.23,32.35Z"/></g></g></svg>