<svg xmlns="http://www.w3.org/2000/svg" viewBox="0 0 73 73"><defs><style>.cls-1{fill:#edc16b;}.cls-2{fill:#1b3249;}.cls-3{fill:#f29e8c;}.cls-4{fill:#fff;}</style></defs><title>Asset 211</title><g id="Layer_2" data-name="Layer 2"><g id="_1" data-name="1"><path class="cls-1" d="M2.07,24.38c0,1.85.05,1.85.05,3.7s-.43,1.86-.43,3.71.47,1.85.47,3.7.11,1.86.11,3.71-.41,1.85-.41,3.7-.12,1.85-.12,3.7.4,1.85.4,3.7.24,1.85.24,3.7.18,1.85.18,3.7-.87,1.85-.87,3.7.38,1.85.38,3.7S2.6,67,2.6,68.8s-.9,1.85-.9,3.7H69.52V24.38Z"/><path class="cls-2" d="M69.52,73H1.7a.5.5,0,0,1-.5-.5,4.2,4.2,0,0,1,.5-2.07,3.11,3.11,0,0,0,.4-1.63,5.53,5.53,0,0,0-.24-1.71,5.92,5.92,0,0,1-.29-2,7.58,7.58,0,0,0-.18-1.75,8.25,8.25,0,0,1-.2-2,4.34,4.34,0,0,1,.48-2.06,3.23,3.23,0,0,0,.39-1.64A14.7,14.7,0,0,0,2,55.9,18.41,18.41,0,0,1,1.88,54a11.59,11.59,0,0,0-.12-1.78,13.17,13.17,0,0,1-.12-1.92,7.36,7.36,0,0,0-.19-1.74,7.72,7.72,0,0,1-.21-2c0-.94,0-1.41.06-1.88s.06-.91.06-1.82a8.22,8.22,0,0,1,.21-2,6.34,6.34,0,0,0,.2-1.74c0-.91,0-1.37-.06-1.82s-.05-.94-.05-1.89a6.15,6.15,0,0,0-.22-1.73,7,7,0,0,1-.25-2,7.52,7.52,0,0,1,.23-2,6.85,6.85,0,0,0,.2-1.75c0-.92,0-1.38,0-1.84s0-.93,0-1.86a.5.5,0,0,1,.5-.5H69.52a.5.5,0,0,1,.5.5V72.5A.5.5,0,0,1,69.52,73ZM2.23,72H69V24.88H2.57c0,.6,0,1,0,1.34s0,.93,0,1.86a7.55,7.55,0,0,1-.23,2,6.76,6.76,0,0,0-.2,1.74,6,6,0,0,0,.22,1.73,7.08,7.08,0,0,1,.25,2c0,.91,0,1.37,0,1.83s.06.94.06,1.88a7.68,7.68,0,0,1-.22,2,6.8,6.8,0,0,0-.19,1.74c0,.94,0,1.41-.07,1.88s0,.91,0,1.82a7.58,7.58,0,0,0,.18,1.75,7.53,7.53,0,0,1,.22,1.95,12.05,12.05,0,0,0,.11,1.79A11.54,11.54,0,0,1,2.88,54,14.89,14.89,0,0,0,3,55.81a15.7,15.7,0,0,1,.09,1.89,4.23,4.23,0,0,1-.48,2.07,3.22,3.22,0,0,0-.39,1.63,7.51,7.51,0,0,0,.18,1.75,8.31,8.31,0,0,1,.2,1.95,5.14,5.14,0,0,0,.25,1.71,6.3,6.3,0,0,1,.28,2,4.09,4.09,0,0,1-.5,2.07A3.34,3.34,0,0,0,2.23,72Z"/><path class="cls-3" d="M2.06,21.12l70,5.38S68.82,2.32,48.26.5C48.26.5,27.91,6.46,2.06,21.12Z"/><path class="cls-2" d="M72.09,27h0L2,21.61a.49.49,0,0,1-.45-.39.5.5,0,0,1,.24-.54C27.41,6.16,47.92.08,48.12,0a.62.62,0,0,1,.19,0C69,1.84,72.55,26.19,72.59,26.43a.51.51,0,0,1-.13.41A.52.52,0,0,1,72.09,27ZM3.74,20.74,71.49,26C70.8,22.21,66.33,2.67,48.31,1,46.84,1.45,27.7,7.34,3.74,20.74Z"/><path class="cls-3" d="M72.4,50.4c-.06-1.6-.11-3.12-.11-6.24a42.55,42.55,0,0,0-.45-6.73c-.2-1.52,1-8.06.25-10.93-1.06-4.07-3.48-5.27-7-5.84-2.84-.46-8.28,0-9.72,0H49.65a33.43,33.43,0,0,1-5.36-.37,40.07,40.07,0,0,0-6.16-.42,26,26,0,0,0-6.38.69,20.92,20.92,0,0,1-5.13.55c-2.77,0-4.11-.11-5.54-.21s-3-.24-6-.24-4.36,0-5.81.05-2.85.05-5.7.05c-1.65,0-2.62.88-3,3-.29,1.63-.1,3,1.54,3,2.91,0,5.79,0,7.24-.05s2.85-.05,5.71-.05,4.11.11,5.53.22,3,.23,6,.23A25.87,25.87,0,0,0,33,26.41a21,21,0,0,1,5.14-.55,33.43,33.43,0,0,1,5.36.37,38.81,38.81,0,0,0,6.16.42H55.4c1.45,0,3.92-.16,6.8-.16s4.59,1.68,3.94,4.86a18,18,0,0,0-.2,6.87,37.35,37.35,0,0,1,.4,5.93v.63c-.55.07-1,.16-1.43.24a13.65,13.65,0,0,1-3.08.3,23.18,23.18,0,0,0-4.1.32,17.63,17.63,0,0,1-3.19.25c-1.7,0-2.52-.07-3.4-.14s-1.94-.16-3.88-.16c-1.77,0-2.66,0-3.55-.06s-1.87-.06-3.73-.06a15.88,15.88,0,0,0-4.36.54,9.87,9.87,0,0,1-2.92.37A6.91,6.91,0,0,1,30,45.93a12.52,12.52,0,0,0-4.6-.79,15.8,15.8,0,0,1-3.12-.27,20.28,20.28,0,0,0-4.16-.37,12.7,12.7,0,0,0-4.58.76,6.91,6.91,0,0,1-2.7.46c-1.93,0-2.91.07-3.86.14S3.86,46,2.15,46,1,47.33,1,49s-.52,3,1.12,3c1.93,0,4.34-.07,5.29-.14s1.71-.13,3.42-.13A12.7,12.7,0,0,0,15.44,51a7.13,7.13,0,0,1,2.7-.45,15.06,15.06,0,0,1,3.12.27,20.2,20.2,0,0,0,4.16.37,6.75,6.75,0,0,1,2.68.47,12.78,12.78,0,0,0,4.6.78,15.86,15.86,0,0,0,4.35-.54A9.89,9.89,0,0,1,40,51.48c1.77,0,2.66,0,3.55.06s1.87.06,3.73.06a32.88,32.88,0,0,1,3.4.14c1,.08,1.94.16,3.88.16a23.18,23.18,0,0,0,4.1-.32,17.63,17.63,0,0,1,3.19-.25,19.39,19.39,0,0,0,4.2-.4l.42-.08c0,1.51.09,3,.09,6V72.5h3a2.34,2.34,0,0,0,2.57-2.59l.41-13.08C72.5,53.62,72.45,52,72.4,50.4Z"/><path class="cls-2" d="M69.52,73h-3a.51.51,0,0,1-.5-.5V56.83c0-2.5,0-3.95-.07-5.38a19.72,19.72,0,0,1-4.14.38,18.16,18.16,0,0,0-3.12.24,22.66,22.66,0,0,1-4.17.33c-2,0-3-.09-3.92-.17s-1.69-.13-3.36-.13c-1.87,0-2.81,0-3.75-.06S41.73,52,40,52a9.74,9.74,0,0,0-2.81.35,16.08,16.08,0,0,1-4.47.56,13,13,0,0,1-4.76-.81,6.37,6.37,0,0,0-2.52-.44,21.88,21.88,0,0,1-4.25-.37,14.21,14.21,0,0,0-3-.27,6.57,6.57,0,0,0-2.54.43,13.2,13.2,0,0,1-4.74.79c-1.69,0-2.51.06-3.38.12s-3.33.15-5.33.15A1.69,1.69,0,0,1,.85,52a2.68,2.68,0,0,1-.36-2.1c0-.29,0-.61,0-.94s0-.65,0-.94A2.68,2.68,0,0,1,.85,46a1.69,1.69,0,0,1,1.3-.46c1.64,0,3.93-.06,4.82-.13s1.94-.14,3.89-.14a6.57,6.57,0,0,0,2.54-.43A13,13,0,0,1,18.14,44a21.75,21.75,0,0,1,4.24.37,14.32,14.32,0,0,0,3,.27,13.05,13.05,0,0,1,4.76.81,6.3,6.3,0,0,0,2.52.44,9.71,9.71,0,0,0,2.8-.35A16.16,16.16,0,0,1,40,45c1.87,0,2.81,0,3.75.06s1.78.06,3.53.06c2,0,3,.08,3.93.16s1.68.14,3.35.14a17.19,17.19,0,0,0,3.12-.24,22.66,22.66,0,0,1,4.17-.33,12.89,12.89,0,0,0,3-.29l1-.18v-.2a37.82,37.82,0,0,0-.39-5.86,18.3,18.3,0,0,1,.2-7,3.72,3.72,0,0,0-.47-3.17,3.71,3.71,0,0,0-3-1.09c-1.65,0-3.2.05-4.45.1l-2.35.06H49.65a39.36,39.36,0,0,1-6.23-.43,34.09,34.09,0,0,0-5.29-.36,20.21,20.21,0,0,0-5,.54,26.69,26.69,0,0,1-6.48.7c-3,0-4.55-.12-6-.23s-2.75-.22-5.49-.22-4.28,0-5.7.05-4.34.05-7.25.05a2,2,0,0,1-1.64-.67,3.53,3.53,0,0,1-.39-2.92c.39-2.3,1.53-3.41,3.47-3.41,2.85,0,4.27,0,5.7-.05s2.9-.05,5.81-.05,4.54.12,6,.24,2.75.21,5.5.21a20.18,20.18,0,0,0,5-.54,26.72,26.72,0,0,1,6.49-.7,39.36,39.36,0,0,1,6.23.43,34,34,0,0,0,5.29.36h5.77c.32,0,1,0,1.76-.07a46.74,46.74,0,0,1,8,.08c3.6.59,6.23,1.87,7.36,6.2.49,1.9.18,5.18-.06,7.81a21.59,21.59,0,0,0-.18,3.18,44.59,44.59,0,0,1,.46,6.8c0,3.14,0,4.64.1,6.22h0l-.5,0,.5,0c0,1.58.1,3.21.1,6.39l-.41,13.1A2.82,2.82,0,0,1,69.52,73ZM67,72h2.48a1.84,1.84,0,0,0,2.07-2.09L72,56.82c0-3.16,0-4.78-.1-6.35l.5-.07-.5,0c-.06-1.6-.1-3.1-.1-6.26a43,43,0,0,0-.45-6.66,20.67,20.67,0,0,1,.18-3.41c.22-2.42.53-5.74.08-7.46-1-3.83-3.24-4.93-6.55-5.47a45.38,45.38,0,0,0-7.84-.07c-.79,0-1.46.07-1.8.07H49.65a34.37,34.37,0,0,1-5.43-.37,37.86,37.86,0,0,0-6.09-.42,25.65,25.65,0,0,0-6.27.68,21.23,21.23,0,0,1-5.24.56c-2.79,0-4.14-.11-5.57-.22s-3-.23-6-.23-4.35,0-5.8.05-2.86.05-5.71.05c-1.45,0-2.17.75-2.49,2.58a2.81,2.81,0,0,0,.17,2.11,1.13,1.13,0,0,0,.88.31c2.9,0,5.78,0,7.23-.05s2.86-.05,5.72-.05,4.13.11,5.56.22,3,.23,6,.23a26.36,26.36,0,0,0,6.27-.67,20.6,20.6,0,0,1,5.24-.57,34.37,34.37,0,0,1,5.43.37,37.86,37.86,0,0,0,6.09.42H55.4l2.32-.06c1.25,0,2.81-.1,4.48-.1A4.67,4.67,0,0,1,66,27.46a4.65,4.65,0,0,1,.66,4,17.63,17.63,0,0,0-.19,6.68,38.41,38.41,0,0,1,.41,6v.6a.54.54,0,0,1-.43.53c-.54.07-1,.15-1.41.23a13.73,13.73,0,0,1-3.17.31,23.53,23.53,0,0,0-4,.31,17.47,17.47,0,0,1-3.27.26c-1.71,0-2.54-.07-3.43-.14s-1.92-.16-3.85-.16c-1.77,0-2.66,0-3.54-.06S41.84,46,40,46a15.12,15.12,0,0,0-4.24.53,10.73,10.73,0,0,1-3,.38,7.42,7.42,0,0,1-2.85-.49,12,12,0,0,0-4.43-.76,15.77,15.77,0,0,1-3.21-.28A20.38,20.38,0,0,0,18.14,45a12.53,12.53,0,0,0-4.42.73,7.33,7.33,0,0,1-2.86.49C9,46.22,8,46.29,7,46.36s-3.2.13-4.89.13a.85.85,0,0,0-.57.14c-.17.19-.14.78-.1,1.35,0,.32.05.66.05,1s0,.69-.05,1c0,.57-.07,1.16.1,1.35a.91.91,0,0,0,.57.14c2,0,4.35-.08,5.25-.14s1.74-.13,3.46-.13a12.21,12.21,0,0,0,4.42-.74A7.55,7.55,0,0,1,18.14,50a15.77,15.77,0,0,1,3.21.28,20.21,20.21,0,0,0,4.07.36,7.33,7.33,0,0,1,2.84.49,12.07,12.07,0,0,0,4.44.76,15.1,15.1,0,0,0,4.23-.53A10.81,10.81,0,0,1,40,51c1.77,0,2.66,0,3.54.06s1.88.06,3.74.06a33.42,33.42,0,0,1,3.43.14c1,.08,1.93.16,3.85.16a23.53,23.53,0,0,0,4-.31,17.47,17.47,0,0,1,3.27-.26,19.43,19.43,0,0,0,4.11-.39l.42-.08a.48.48,0,0,1,.4.1.5.5,0,0,1,.19.37c0,1.65.09,3.14.09,6Z"/><path class="cls-4" d="M22.79,13.87a.5.5,0,0,1-.21-1c7.5-3.38,18.27-7.83,27-9.82a.5.5,0,0,1,.22,1C41.15,6,30.45,10.46,23,13.82A.46.46,0,0,1,22.79,13.87Z"/><path class="cls-4" d="M12.45,18.8a.49.49,0,0,1-.44-.28.5.5,0,0,1,.21-.67s2.61-1.34,6.55-3.18a.5.5,0,1,1,.43.9c-3.93,1.84-6.49,3.16-6.52,3.17A.46.46,0,0,1,12.45,18.8Z"/></g></g></svg>