<svg xmlns="http://www.w3.org/2000/svg" viewBox="0 0 73 73"><defs><style>.cls-1{fill:#f29e8c;}.cls-2{fill:#1b3249;}.cls-3{fill:#fff;}.cls-4{fill:#edc16b;}</style></defs><title>Asset 71</title><g id="Layer_2" data-name="Layer 2"><g id="_1" data-name="1"><path class="cls-1" d="M.89,22.87.5,57.7c0,8.17,16.08,14.8,35.92,14.8s35.93-6.63,35.93-14.8L72,32.06Z"/><path class="cls-2" d="M36.42,73C16.34,73,0,66.13,0,57.7L.39,22.87a.48.48,0,0,1,.17-.37A.47.47,0,0,1,1,22.38l71.1,9.19a.5.5,0,0,1,.43.49l.37,25.63C72.85,66.13,56.51,73,36.42,73Zm-35-49.56L1,57.71C1,65.58,16.89,72,36.42,72s35.43-6.42,35.43-14.3l-.36-25.2Z"/><path class="cls-3" d="M41.34,68.86a.5.5,0,0,1-.5-.47.49.49,0,0,1,.47-.53,64.79,64.79,0,0,0,19.92-4,.52.52,0,0,1,.65.28.5.5,0,0,1-.28.65,65.55,65.55,0,0,1-20.23,4.07Z"/><path class="cls-3" d="M36.42,69c-2.7,0-5.41-.13-8-.37a.5.5,0,1,1,.1-1c2.59.24,5.26.37,7.93.37a.5.5,0,0,1,.5.5A.5.5,0,0,1,36.42,69Z"/><path class="cls-4" d="M7.5,33.46V57a3,3,0,0,0,6,0V53a3,3,0,0,1,6,0v9a4,4,0,0,0,8,0V44.6Z"/><path class="cls-2" d="M23.5,66.5A4.51,4.51,0,0,1,19,62V53a2.5,2.5,0,0,0-5,0v4a3.5,3.5,0,0,1-7,0V33.46a.5.5,0,0,1,1,0V57a2.5,2.5,0,0,0,5,0V53a3.5,3.5,0,0,1,7,0v9a3.5,3.5,0,0,0,7,0V44.6a.5.5,0,1,1,1,0V62A4.51,4.51,0,0,1,23.5,66.5Z"/><path class="cls-4" d="M49.34,43.72V56.19a3.41,3.41,0,0,0,6.81,0v-.66a2.55,2.55,0,1,1,5.1,0v3.41a2.56,2.56,0,0,0,5.11,0V35.21Z"/><path class="cls-2" d="M63.81,62a3.06,3.06,0,0,1-3.06-3.05V55.53a2.05,2.05,0,1,0-4.1,0v.66a3.91,3.91,0,0,1-7.81,0V43.72a.5.5,0,0,1,1,0V56.19a2.91,2.91,0,0,0,5.81,0v-.66a3,3,0,1,1,6.1,0v3.41a2.06,2.06,0,0,0,4.11,0V35.21a.5.5,0,1,1,1,0V58.94A3.06,3.06,0,0,1,63.81,62Z"/><path class="cls-4" d="M72.27,34C70,46.53,52.07,53.57,32.36,49.76S-1.51,32.72.73,20.22,20.78.68,40.49,4.49,74.51,21.53,72.27,34Z"/><path class="cls-2" d="M43,51.29a56.3,56.3,0,0,1-10.71-1,57.91,57.91,0,0,1-7.84-2.09.5.5,0,0,1,.33-.95,55.88,55.88,0,0,0,7.7,2.06C41.19,51,50,50.55,57.13,48.11a.5.5,0,0,1,.63.32.5.5,0,0,1-.31.63A45.41,45.41,0,0,1,43,51.29Z"/><path class="cls-2" d="M64.3,45.72a.48.48,0,0,1-.42-.23A.5.5,0,0,1,64,44.8c4.31-2.86,7-6.62,7.76-10.86C74,21.74,59.89,8.75,40.4,5c-12.19-2.36-24-.62-31.7,4.63C4.56,12.45,2,16.15,1.23,20.31-.13,27.87,4.67,36,14.07,42.08a.5.5,0,0,1-.54.84C3.78,36.62-1.19,28.1.24,20.13,1,15.7,3.77,11.78,8.13,8.79,16,3.38,28.15,1.59,40.59,4c20,3.87,34.46,17.39,32.17,30.12-.81,4.52-3.64,8.5-8.19,11.52A.53.53,0,0,1,64.3,45.72Z"/><path class="cls-4" d="M60.31,21.21c-1,8.56-12.48,14.17-25.67,12.54s-23.08-9.9-22.1-18.46S25,1.12,38.21,2.75,61.29,12.65,60.31,21.21Z"/><path class="cls-2" d="M39.18,34.53a36,36,0,0,1-4.6-.29C21.14,32.57,11,24.05,12.05,15.23A12.35,12.35,0,0,1,17,7c5-4,13-5.72,21.24-4.69,13.44,1.66,23.55,10.19,22.53,19h0a12.35,12.35,0,0,1-5,8.28C51.73,32.77,45.72,34.53,39.18,34.53ZM33.65,3c-6.31,0-12.08,1.68-16,4.77A11.37,11.37,0,0,0,13,15.34c-.95,8.28,8.77,16.31,21.66,17.91,8,1,15.67-.69,20.5-4.49a11.37,11.37,0,0,0,4.61-7.61c.95-8.27-8.77-16.3-21.66-17.9A36.24,36.24,0,0,0,33.65,3ZM60.31,21.21h0Z"/><path class="cls-4" d="M51.27,15c-1,5-8.54,7.5-16.74,5.46s-14-7.78-13-12.83S30.12.16,38.32,2.2,52.32,10,51.27,15Z"/><path class="cls-2" d="M40.24,21.71A24.49,24.49,0,0,1,34.41,21C26,18.88,20,12.86,21.09,7.56A7.1,7.1,0,0,1,24.46,3c3.41-2.15,8.63-2.63,14-1.31,8.44,2.1,14.42,8.12,13.32,13.42h0a7.1,7.1,0,0,1-3.37,4.54A15.37,15.37,0,0,1,40.24,21.71ZM32.65,2A14.57,14.57,0,0,0,25,3.86a6.15,6.15,0,0,0-2.93,3.9C21.08,12.55,26.72,18,34.65,20c5,1.24,10.07.79,13.2-1.18a6.15,6.15,0,0,0,2.93-3.9h0c1-4.79-4.65-10.28-12.58-12.25A23.48,23.48,0,0,0,32.65,2Z"/><path class="cls-4" d="M37.67,1.43c-3.8-1.59-7.43-1.1-8.12,1.11s1.84,5.29,5.63,6.88c2.88,1.21,5.66,1.22,7.13.2l1-5.61S40,2.39,37.67,1.43Z"/><path class="cls-2" d="M39.44,10.86a11.82,11.82,0,0,1-4.45-1c-4.09-1.72-6.69-5-5.92-7.5A3.12,3.12,0,0,1,30.82.5c1.73-.81,4.43-.63,7,.47,2.28,1,5.61,2.57,5.64,2.59a.5.5,0,0,1,.23.67.49.49,0,0,1-.66.23s-3.34-1.62-5.6-2.57S32.73.72,31.24,1.41A2.08,2.08,0,0,0,30,2.69c-.6,1.93,1.85,4.8,5.35,6.27,2.6,1.1,5.28,1.2,6.65.24a.5.5,0,0,1,.57.83A5.58,5.58,0,0,1,39.44,10.86Z"/><path class="cls-2" d="M42.31,12.84a.51.51,0,0,1-.5-.5V9.61a.51.51,0,0,1,.5-.5.5.5,0,0,1,.5.5v2.73A.5.5,0,0,1,42.31,12.84Z"/><path class="cls-2" d="M29.44,9a.5.5,0,0,1-.5-.5v-5a.5.5,0,1,1,1,0v5A.5.5,0,0,1,29.44,9Z"/><path class="cls-2" d="M51.39,20a.5.5,0,0,1-.5-.5V13.78a.5.5,0,0,1,.5-.5.5.5,0,0,1,.5.5v5.76A.51.51,0,0,1,51.39,20Z"/><path class="cls-2" d="M21.47,16.73a.5.5,0,0,1-.5-.5V8.48a.5.5,0,0,1,.5-.5.5.5,0,0,1,.5.5v7.75A.51.51,0,0,1,21.47,16.73Z"/><path class="cls-2" d="M60.37,29.76a.5.5,0,0,1-.5-.5v-9a.5.5,0,0,1,.5-.5.5.5,0,0,1,.5.5v9A.51.51,0,0,1,60.37,29.76Z"/><path class="cls-2" d="M12.48,25.26a.51.51,0,0,1-.5-.5v-8.1a.5.5,0,0,1,.5-.5.5.5,0,0,1,.5.5v8.1A.5.5,0,0,1,12.48,25.26Z"/><circle class="cls-2" cx="63.84" cy="35.64" r="1"/><circle class="cls-2" cx="52.39" cy="44.73" r="1"/><circle class="cls-2" cx="45.28" cy="40.14" r="1"/><circle class="cls-2" cx="34.86" cy="45.73" r="1"/><circle class="cls-2" cx="25.14" cy="38.57" r="1"/><circle class="cls-2" cx="17.5" cy="31.73" r="1"/><circle class="cls-2" cx="9.66" cy="33.46" r="1"/><circle class="cls-2" cx="7.5" cy="22.87" r="1"/><circle class="cls-2" cx="19.5" cy="20.87" r="1"/><circle class="cls-2" cx="27.5" cy="27.34" r="1"/><circle class="cls-2" cx="38.12" cy="24.76" r="1"/><circle class="cls-2" cx="51.39" cy="26.76" r="1"/><circle class="cls-2" cx="47.28" cy="14.78" r="1"/><circle class="cls-2" cx="35.86" cy="13.78" r="1"/><circle class="cls-2" cx="28.5" cy="13.78" r="1"/><circle class="cls-2" cx="34.26" cy="4.45" r="1"/><circle class="cls-2" cx="67.36" cy="28.13" r="1"/></g></g></svg>