<svg xmlns="http://www.w3.org/2000/svg" viewBox="0 0 73 73"><defs><style>.cls-1{fill:#f29e8c;}.cls-2{fill:#1b3249;}.cls-3{fill:#fff;}.cls-4{fill:#edc16b;}</style></defs><title>Asset 141</title><g id="Layer_2" data-name="Layer 2"><g id="_1" data-name="1"><path class="cls-1" d="M68.5,64.5H4.5l9.09-49.09a6,6,0,0,1,5.9-4.91h34a6,6,0,0,1,5.9,4.91Z"/><path class="cls-2" d="M68.5,65H4.5a.49.49,0,0,1-.38-.18A.48.48,0,0,1,4,64.41L13.1,15.32A6.5,6.5,0,0,1,19.49,10h34a6.5,6.5,0,0,1,6.39,5.32L69,64.41a.48.48,0,0,1-.11.41A.49.49,0,0,1,68.5,65ZM5.1,64H67.9l-9-48.5A5.51,5.51,0,0,0,53.51,11h-34a5.51,5.51,0,0,0-5.41,4.5Z"/><path class="cls-3" d="M64.5,72.5H8.5a8,8,0,0,1-8-8h72A8,8,0,0,1,64.5,72.5Z"/><path class="cls-2" d="M64.5,73H8.5A8.51,8.51,0,0,1,0,64.5.5.5,0,0,1,.5,64h72a.5.5,0,0,1,.5.5A8.51,8.51,0,0,1,64.5,73ZM1,65A7.5,7.5,0,0,0,8.5,72h56A7.5,7.5,0,0,0,72,65Z"/><path class="cls-1" d="M42.5,7.5c0,2.76-3.24,3-6,3s-6-.24-6-3,3.24-7,6-7S42.5,4.74,42.5,7.5Z"/><path class="cls-2" d="M36.5,11C34.39,11,30,11,30,7.5c0-3,3.42-7.5,6.5-7.5S43,4.47,43,7.5C43,11,38.61,11,36.5,11Zm0-10C34,1,31,5,31,7.5c0,2.08,2.2,2.5,5.5,2.5S42,9.58,42,7.5C42,5,39,1,36.5,1Z"/><path class="cls-4" d="M12.59,15.41,8.65,36.7a4.9,4.9,0,0,0,4.82,5.8h0a6,6,0,0,0,6-6l0-7.8a3.12,3.12,0,0,1,2.84-3.17,3,3,0,0,1,3.16,3v6.83A4.12,4.12,0,0,0,29,39.48a4,4,0,0,0,4.39-4l.07-2A2.5,2.5,0,0,1,36.26,31a2.6,2.6,0,0,1,2.24,2.63v8.88c0,2.9,1.53,4.76,3.61,5a4,4,0,0,0,4.39-4V29.67a3.12,3.12,0,0,1,2.84-3.17,3,3,0,0,1,3.16,3v3a5,5,0,0,0,5,5h0a5.83,5.83,0,0,0,5.73-6.88L60.41,15.41a6,6,0,0,0-5.9-4.91h-36A6,6,0,0,0,12.59,15.41Z"/><path class="cls-2" d="M42.51,48l-.45,0C39.63,47.75,38,45.55,38,42.52V33.64a2.1,2.1,0,0,0-1.79-2.13,2,2,0,0,0-1.55.51A2,2,0,0,0,34,33.5l-.07,2A4.5,4.5,0,0,1,29,40a4.64,4.64,0,0,1-4.06-4.65V28.5a2.44,2.44,0,0,0-.78-1.81A2.48,2.48,0,0,0,22.3,26a2.63,2.63,0,0,0-2.37,2.67l0,7.8A6.5,6.5,0,0,1,13.47,43a5.41,5.41,0,0,1-5.31-6.39L12.1,15.32A6.5,6.5,0,0,1,18.49,10h36a6.5,6.5,0,0,1,6.39,5.32l2.82,15.21A6.33,6.33,0,0,1,57.5,38,5.51,5.51,0,0,1,52,32.5v-3a2.47,2.47,0,0,0-.78-1.81A2.5,2.5,0,0,0,49.37,27,2.63,2.63,0,0,0,47,29.67V43.5a4.52,4.52,0,0,1-1.47,3.33A4.47,4.47,0,0,1,42.51,48ZM36,30.5a1.51,1.51,0,0,1,.3,0A3.1,3.1,0,0,1,39,33.64v8.88c0,2.53,1.24,4.28,3.16,4.46a3.43,3.43,0,0,0,2.69-.89A3.51,3.51,0,0,0,46,43.5V29.67A3.64,3.64,0,0,1,49.31,26a3.42,3.42,0,0,1,2.6,1A3.49,3.49,0,0,1,53,29.5v3A4.51,4.51,0,0,0,57.5,37a5.32,5.32,0,0,0,5.23-6.29L59.92,15.5A5.51,5.51,0,0,0,54.51,11h-36a5.51,5.51,0,0,0-5.41,4.5h0L9.14,36.79A4.4,4.4,0,0,0,13.47,42,5.5,5.5,0,0,0,19,36.47l0-7.8A3.64,3.64,0,0,1,22.24,25a3.42,3.42,0,0,1,2.6,1,3.49,3.49,0,0,1,1.09,2.54v6.83A3.61,3.61,0,0,0,29.09,39a3.47,3.47,0,0,0,2.7-.89,3.54,3.54,0,0,0,1.14-2.59l.07-2a3,3,0,0,1,3-3ZM12.59,15.41h0Z"/><path class="cls-3" d="M48.51,15H28.67a.5.5,0,0,1,0-1H48.51a.5.5,0,0,1,0,1Z"/><path class="cls-3" d="M24.67,15H18.49a.5.5,0,1,1,0-1h6.18a.5.5,0,0,1,0,1Z"/></g></g></svg>