<svg xmlns="http://www.w3.org/2000/svg" viewBox="0 0 73 73"><defs><style>.cls-1{fill:#edc16b;}.cls-2{fill:#1b3249;}.cls-3{fill:#f29e8c;}.cls-4{fill:#fff;}</style></defs><title>Asset 11</title><g id="Layer_2" data-name="Layer 2"><g id="_1" data-name="1"><path class="cls-1" d="M2.07,33.37c0,1.86.05,1.86.05,3.71s0,5.56,0,7.41.11.85.11,2.71-.53,5.55-.53,7.4.64,4.55.64,6.4.18,1.85.18,3.7-.86,6-.86,7.8H69.52V33.37Z"/><path class="cls-2" d="M69.52,73H1.7a.5.5,0,0,1-.5-.5,32.11,32.11,0,0,1,.44-4,33.1,33.1,0,0,0,.42-3.83A14.57,14.57,0,0,0,2,62.9,18.58,18.58,0,0,1,1.88,61a23.9,23.9,0,0,0-.32-3.13,25.37,25.37,0,0,1-.32-3.27c0-1,.13-2.38.26-3.75s.27-2.75.27-3.65a9.73,9.73,0,0,0-.05-1.29,9.46,9.46,0,0,1-.06-1.42c0-.92,0-2.31,0-3.7s0-2.78,0-3.71,0-1.38,0-1.84,0-.93,0-1.87a.5.5,0,0,1,.5-.5H69.52a.51.51,0,0,1,.5.5V72.5A.5.5,0,0,1,69.52,73ZM2.22,72H69V33.87H2.57c0,.61,0,1,0,1.35s0,.93,0,1.86,0,2.32,0,3.71,0,2.78,0,3.7a8.25,8.25,0,0,0,0,1.29,9.35,9.35,0,0,1,.06,1.42c0,.94-.14,2.37-.27,3.74s-.26,2.76-.26,3.66a25.6,25.6,0,0,0,.31,3.13A25.49,25.49,0,0,1,2.88,61,14.57,14.57,0,0,0,3,62.8a16,16,0,0,1,.09,1.9,33.83,33.83,0,0,1-.43,4C2.45,69.87,2.27,71.11,2.22,72Z"/><path class="cls-3" d="M2.06,30.11l70,5.39s-3.27-24.18-23.83-26C48.26,9.5,27.91,15.45,2.06,30.11Z"/><path class="cls-2" d="M72.09,36h0L2,30.61a.49.49,0,0,1-.45-.39.5.5,0,0,1,.24-.54C27.41,15.16,47.92,9.08,48.12,9a.62.62,0,0,1,.19,0C69,10.83,72.55,35.19,72.59,35.43a.51.51,0,0,1-.13.41A.52.52,0,0,1,72.09,36ZM3.74,29.74,71.49,35C70.8,31.21,66.33,11.67,48.31,10,46.84,10.45,27.7,16.34,3.74,29.74Z"/><path class="cls-4" d="M21.7,58.82c11.33,2,14.1-1.7,23.52-.61,7.33.85,16.12,2.68,24.3,1V47.66c-7.15,2.06-15.72,1.47-22.86,0C36.1,45.4,31.55,50.41,20.22,48a54.35,54.35,0,0,0-18-.52c0,1.92-.52,5.34-.52,7.1a29.14,29.14,0,0,0,.4,3.75A73.23,73.23,0,0,1,21.7,58.82Z"/><path class="cls-2" d="M62.21,60.4a97.3,97.3,0,0,1-12.84-1.14c-1.45-.2-2.85-.39-4.21-.55a31.17,31.17,0,0,0-9.95.5,34.6,34.6,0,0,1-13.6.1h0a73.52,73.52,0,0,0-19.42-.46.52.52,0,0,1-.55-.43l-.07-.52a24.22,24.22,0,0,1-.33-3.3c0-1,.13-2.37.26-3.75.12-1.21.24-2.47.26-3.36A.51.51,0,0,1,2.2,47a54.71,54.71,0,0,1,18.12.53c5.67,1.2,9.67.5,13.53-.17s7.63-1.34,12.91-.23c4.92,1,14.4,2.42,22.62,0a.47.47,0,0,1,.44.08.51.51,0,0,1,.2.4V59.22a.49.49,0,0,1-.4.49A36.9,36.9,0,0,1,62.21,60.4Zm-20.4-2.89a29.23,29.23,0,0,1,3.47.21c1.36.16,2.77.35,4.22.54,6.13.84,13,1.77,19.52.55V48.31c-8.27,2.19-17.58.83-22.47-.2-5.09-1.07-8.7-.44-12.53.23s-8,1.41-13.91.17a53.59,53.59,0,0,0-17.37-.57c0,.87-.14,2-.24,3-.13,1.35-.26,2.75-.26,3.65a24.67,24.67,0,0,0,.32,3.16v0a73.82,73.82,0,0,1,19.23.53A33.59,33.59,0,0,0,35,58.22,38.15,38.15,0,0,1,41.81,57.51Z"/><path class="cls-3" d="M72.4,58.4c-.06-1.61-.11-3.12-.11-6.24a28.85,28.85,0,0,0-.45-5.73c-.2-1.53,1-8.06.25-10.93-1.06-4.07-3.48-5.27-7-5.84-2.84-.46-8.28,0-9.72,0H49.65a33.43,33.43,0,0,1-5.36-.37,38.81,38.81,0,0,0-6.16-.42,26.6,26.6,0,0,0-6.38.68,20.34,20.34,0,0,1-5.13.56c-2.77,0-4.11-.11-5.54-.22s-3-.23-6-.23-4.36,0-5.81.05-2.85,0-5.7,0c-1.65,0-2.62.88-3,3-.29,1.64-.1,3,1.54,3,2.91,0,5.79,0,7.24,0s2.85-.05,5.71-.05,4.11.11,5.53.22,3,.23,6,.23A26.38,26.38,0,0,0,33,35.41a21,21,0,0,1,5.14-.55,33.43,33.43,0,0,1,5.36.37,40.07,40.07,0,0,0,6.16.42H55.4c1.45,0,3.92-.16,6.8-.16s4.13,1.62,3.94,4.86a54.07,54.07,0,0,0-.2,5.87c.06,1.54.4,3,.4,5.93,0,.22-.13,6.44-.13,6.65.05,1.51.33,2.07.33,5V72.5h3a2.34,2.34,0,0,0,2.57-2.59l.41-6.08C72.5,60.61,72.45,60,72.4,58.4Z"/><path class="cls-2" d="M69.52,73h-3a.51.51,0,0,1-.5-.5V63.83a25.66,25.66,0,0,0-.2-3.46c-.06-.49-.11-.95-.13-1.55,0-.11,0-1.67.06-3.25s.07-3.3.07-3.41A34.12,34.12,0,0,0,65.59,48c-.07-.62-.13-1.18-.15-1.75a46.88,46.88,0,0,1,.14-5.07l.06-.85c.1-1.65-.16-2.78-.8-3.46A3.43,3.43,0,0,0,62.2,36c-1.65,0-3.2,0-4.44.1-.94,0-1.72.07-2.36.06H49.65a39.32,39.32,0,0,1-6.22-.43,34.25,34.25,0,0,0-5.3-.36,20.21,20.21,0,0,0-5,.54,26.76,26.76,0,0,1-6.48.7c-3,0-4.53-.12-6-.23s-2.78-.22-5.51-.22-4.28,0-5.7.05-4.34,0-7.25,0a2,2,0,0,1-1.64-.66,3.53,3.53,0,0,1-.39-2.92c.39-2.3,1.53-3.42,3.47-3.42,2.85,0,4.27,0,5.7,0s2.9-.05,5.81-.05,4.53.12,6,.23,2.78.22,5.52.22a20.18,20.18,0,0,0,5-.54,26.72,26.72,0,0,1,6.49-.7,39.36,39.36,0,0,1,6.23.43,34.2,34.2,0,0,0,5.29.36h5.77c.38,0,1,0,1.76-.07a45.75,45.75,0,0,1,8,.08c3.6.59,6.23,1.87,7.36,6.2.49,1.9.18,5.17-.06,7.81a21.53,21.53,0,0,0-.18,3.18c0,.32.08.6.13.87a28.1,28.1,0,0,1,.32,4.93c0,3.11,0,4.62.11,6.22h0l0,.88c0,1.07.07,2,.07,4.57l-.41,6.11A2.83,2.83,0,0,1,69.52,73ZM67,72h2.48a1.84,1.84,0,0,0,2.07-2.09L72,63.8c0-2.52,0-3.44-.07-4.51l0-.88c-.06-1.6-.11-3.12-.11-6.25a26.66,26.66,0,0,0-.31-4.78c0-.28-.09-.56-.13-.89a20.71,20.71,0,0,1,.18-3.41c.22-2.42.53-5.73.08-7.46-1-3.82-3.24-4.92-6.55-5.46a45.27,45.27,0,0,0-7.83-.07c-.78,0-1.42.07-1.79.07H49.65a34.22,34.22,0,0,1-5.42-.37,38.11,38.11,0,0,0-6.1-.42,26.29,26.29,0,0,0-6.27.67,20.72,20.72,0,0,1-5.24.57c-2.77,0-4.12-.11-5.55-.22s-3-.23-6-.23-4.35,0-5.8.05-2.86,0-5.71,0c-1.45,0-2.17.75-2.49,2.59a2.78,2.78,0,0,0,.17,2.1,1.1,1.1,0,0,0,.88.31c2.9,0,5.78,0,7.23,0s2.86-.05,5.72-.05,4.12.11,5.54.22,3,.23,6,.23a26.33,26.33,0,0,0,6.26-.67,20.75,20.75,0,0,1,5.25-.57,34.27,34.27,0,0,1,5.43.37,38.06,38.06,0,0,0,6.09.42H55.4c.58,0,1.4,0,2.33-.06,1.25-.05,2.8-.1,4.47-.1a4.4,4.4,0,0,1,3.37,1.18c.83.89,1.18,2.27,1.06,4.21l0,.85a47.91,47.91,0,0,0-.14,5c0,.55.08,1.08.14,1.68a34.7,34.7,0,0,1,.26,4.27c0,.11,0,1.79-.07,3.43s-.06,3.12-.06,3.22c0,.54.07,1,.12,1.44A25.23,25.23,0,0,1,67,63.83Z"/><path class="cls-3" d="M26.25,13.28s-3.76,1.8-5.75-1.64a4.69,4.69,0,0,1,4.63-2.92S21.32,5.59,25.06.87c.69,3.49,3,4,3,4A4.63,4.63,0,0,1,31.64.5a4.73,4.73,0,0,1,1.64,5.75C31.81,6.83,26.83,11.81,26.25,13.28Z"/><path class="cls-2" d="M24.08,14.26a4.44,4.44,0,0,1-4-2.37.47.47,0,0,1-.05-.4,5.15,5.15,0,0,1,4.07-3.18c-1-1.31-2.3-4.12.58-7.75a.49.49,0,0,1,.51-.17.47.47,0,0,1,.37.39,4.62,4.62,0,0,0,2.07,3.36A5.15,5.15,0,0,1,31.55,0a.53.53,0,0,1,.39.09,5.26,5.26,0,0,1,1.79,6.37.51.51,0,0,1-.27.25c-1.35.53-6.21,5.39-6.74,6.74a.51.51,0,0,1-.25.27A5.71,5.71,0,0,1,24.08,14.26Zm2.17-1h0ZM21.06,11.6a3.83,3.83,0,0,0,4.82,1.3,28,28,0,0,1,7-7A4.18,4.18,0,0,0,31.53,1a4.12,4.12,0,0,0-3,3.84.48.48,0,0,1-.19.36.5.5,0,0,1-.41.09A4.63,4.63,0,0,1,24.85,2c-2.35,3.78.47,6.2.6,6.3a.52.52,0,0,1,.15.56.5.5,0,0,1-.46.33A4.24,4.24,0,0,0,21.06,11.6Z"/><path class="cls-4" d="M44.45,21.25c-.87-4.9-.29-10.64-2.94-13.29C37.77,4.22,32.84,5.35,29.1,9.1S24.22,17.77,28,21.51c2.65,2.65,8.39,2.07,13.29,2.94A2.74,2.74,0,0,0,44.45,21.25Z"/><path class="cls-2" d="M41.76,25a4,4,0,0,1-.6-.05c-1.47-.27-3-.4-4.56-.53-3.61-.3-7-.58-9-2.55-3.64-3.65-3.2-8.8,1.13-13.13S38.22,4,41.87,7.61c2,2,2.25,5.38,2.55,9,.13,1.52.26,3.09.52,4.56A3.24,3.24,0,0,1,41.76,25ZM36.24,6.18a9.84,9.84,0,0,0-6.79,3.27c-3.9,3.9-4.35,8.5-1.14,11.71,1.72,1.71,4.95,2,8.38,2.27,1.54.13,3.13.26,4.64.53A2.25,2.25,0,0,0,44,21.34h0c-.27-1.52-.4-3.11-.53-4.65-.29-3.43-.56-6.66-2.27-8.37A6.86,6.86,0,0,0,36.24,6.18Z"/><path class="cls-2" d="M36.48,15.33a.9.9,0,1,1-.9-.9A.9.9,0,0,1,36.48,15.33Z"/><path class="cls-2" d="M32.47,11.62a.9.9,0,1,1-.9-.9A.9.9,0,0,1,32.47,11.62Z"/><path class="cls-2" d="M35.4,20.27a.9.9,0,1,1-.9-.9A.9.9,0,0,1,35.4,20.27Z"/><path class="cls-2" d="M38,9.77a.9.9,0,1,1-.9-.9A.9.9,0,0,1,38,9.77Z"/><path class="cls-2" d="M31,17.44a.9.9,0,0,1-1.8,0,.9.9,0,0,1,1.8,0Z"/><path class="cls-2" d="M40.79,19.62a.9.9,0,0,1-1.8,0,.9.9,0,1,1,1.8,0Z"/><path class="cls-2" d="M41.37,14.43a.9.9,0,1,1-.9-.9A.9.9,0,0,1,41.37,14.43Z"/></g></g></svg>